<svg id="Capa_1" enable-background="new 0 0 512 512" height="512" viewBox="0 0 512 512" width="512" xmlns="http://www.w3.org/2000/svg"><g><path d="m457 71h-231.188l-16.582-49.743c-2.041-6.125-7.774-10.257-14.23-10.257h-180c-8.284 0-15 6.716-15 15v104.879 330.121c0 22.091 17.909 40 40 40 25.767 0 50.638-9.455 69.898-26.572l358.251-318.393c2.479-2.755 3.851-6.329 3.851-10.035v-60c0-8.284-6.716-15-15-15z" fill="#ffb454"/><g><path d="m457 71h-146v224.651l157.149-139.617c2.479-2.754 3.851-6.328 3.851-10.034v-60c0-8.284-6.716-15-15-15z" fill="#ff7d47"/></g><g><path d="m497 131h-402c-8.284 0-15 6.716-15 15v315c0 22.091-17.909 40-40 40h417c30.327 0 55-24.673 55-55v-300c0-8.284-6.716-15-15-15z" fill="#fff16b"/></g><g><path d="m497 130.879h-186v370h146c30.327 0 55-24.673 55-55v-300c0-8.284-6.716-15-15-15z" fill="#ffb454"/></g><g><path d="m390.431 199.335c-3.523-2.848-8.145-3.953-12.573-3.002l-140 30c-6.917 1.482-11.858 7.594-11.858 14.667v120.755c-2.424-.494-4.932-.755-7.5-.755-20.678 0-37.5 16.823-37.5 37.5s16.822 37.5 37.5 37.5 37.5-16.823 37.5-37.5v-100.714l110-23.571v67.54c-2.424-.494-4.932-.755-7.5-.755-20.678 0-37.5 16.823-37.5 37.5s16.822 37.5 37.5 37.5 37.5-16.823 37.5-37.5v-167.5c0-4.53-2.047-8.817-5.569-11.665z" fill="#bceaf9"/><g><path d="m390.431 199.335c-3.523-2.848-8.145-3.953-12.573-3.002l-66.858 14.327v75.34l55-11.786v67.54c-2.424-.494-4.932-.755-7.5-.755-20.678 0-37.5 16.823-37.5 37.5s16.822 37.5 37.5 37.5 37.5-16.823 37.5-37.5v-167.499c0-4.53-2.047-8.817-5.569-11.665z" fill="#8bb9ff"/></g></g></g></svg>