<svg id="Capa_1" enable-background="new 0 0 512 512" height="512" viewBox="0 0 512 512" width="512" xmlns="http://www.w3.org/2000/svg"><g><path d="m71 320c8.284 0 15 6.716 15 15v162c0 8.284-6.716 15-15 15s-15-6.716-15-15v-162c0-8.284 6.716-15 15-15z" fill="#8bb9ff"/><g><path d="m441 192c-8.284 0-15-6.716-15-15v-162c0-8.284 6.716-15 15-15s15 6.716 15 15v162c0 8.284-6.716 15-15 15z" fill="#bceaf9"/><g><path d="m356 482h-60c-8.284 0-15-6.716-15-15v-100c0-8.284 6.716-15 15-15h60c8.284 0 15 6.716 15 15v100c0 8.284-6.716 15-15 15z" fill="#0052be"/><g><g><path d="m281 417v50c0 8.284 6.716 15 15 15h60c8.284 0 15-6.716 15-15v-50z" fill="#00337a"/></g></g><g><path d="m471 192c0-16.844-13.954-30.49-30.908-29.986-16.317.484-29.092 14.3-29.092 30.624v29.362c0 8.284 6.716 15 15 15h30c8.284 0 15-6.716 15-15z" fill="#00337a"/><path d="m411 222v100h-45c-8.284 0-15 6.716-15 15v160c0 8.284 6.716 15 15 15h30c41.355 0 75-33.645 75-75v-215z" fill="#2681ff"/></g><path d="m286 512h-20c-35.841 0-65-29.159-65-65v-60c0-35.841 29.159-65 65-65h20c8.284 0 15 6.716 15 15v160c0 8.284-6.716 15-15 15z" fill="#bceaf9"/></g></g><g><g><path d="m351 417v80c0 8.284 6.716 15 15 15h30c41.355 0 75-33.645 75-75v-20z" fill="#0052be"/><path d="m201 447c0 35.841 29.159 65 65 65h20c8.284 0 15-6.716 15-15v-80h-100z" fill="#8bb9ff"/></g></g><g><g><path d="m156 30h60c8.284 0 15 6.716 15 15v100c0 8.284-6.716 15-15 15h-60c-8.284 0-15-6.716-15-15v-100c0-8.284 6.716-15 15-15z" fill="#0052be"/><g><path d="m141 95v50c0 8.284 6.716 15 15 15h60c8.284 0 15-6.716 15-15v-50z" fill="#00337a"/></g><g><path d="m41 320c0 16.844 13.954 30.49 30.908 29.987 16.317-.485 29.092-14.301 29.092-30.625v-29.362c0-8.284-6.716-15-15-15h-30c-8.284 0-15 6.716-15 15z" fill="#00337a"/><path d="m101 290v-100h45c8.284 0 15-6.716 15-15v-160c0-8.284-6.716-15-15-15h-30c-41.355 0-75 33.645-75 75v215z" fill="#2681ff"/><path d="m41 95v195h60v-100h45c8.284 0 15-6.716 15-15v-80z" fill="#0052be"/></g><path d="m226 0h20c35.841 0 65 29.159 65 65v60c0 35.841-29.159 65-65 65h-20c-8.284 0-15-6.716-15-15v-160c0-8.284 6.716-15 15-15z" fill="#bceaf9"/></g></g><g><path d="m211 95v80c0 8.284 6.716 15 15 15h20c35.841 0 65-29.159 65-65v-30z" fill="#8bb9ff"/></g></g></svg>