<svg id="Capa_1" enable-background="new 0 0 512 512" height="512" viewBox="0 0 512 512" width="512" xmlns="http://www.w3.org/2000/svg"><g><circle cx="256" cy="256" fill="#ff6b6b" r="256"/><path d="m256 0v512c141.385 0 256-114.615 256-256s-114.615-256-256-256z" fill="#ff1f3d"/><path d="m448 232-45-60c-2.86-3.813-7.233-6-12-6s-9.14 2.187-12 6l-45 60c-3.431 4.575-3.974 10.594-1.416 15.708 2.557 5.115 7.698 8.292 13.416 8.292h15c0 57.897-47.103 105-105 105s-105-47.103-105-105 47.103-105 105-105c17.757 0 35.451 4.661 51.167 13.479 5.93 3.329 13.354 2.251 18.093-2.623l21.603-22.212c3.151-3.239 4.673-7.728 4.144-12.216s-3.055-8.499-6.874-10.916c-26.366-16.69-56.842-25.512-88.133-25.512-90.981 0-165 74.019-165 165s74.019 165 165 165 165-74.019 165-165h15c5.718 0 10.859-3.177 13.416-8.292 2.558-5.114 2.015-11.133-1.416-15.708z" fill="#f9f9f9"/><g fill="#e2dff4"><path d="m449.416 247.708c2.558-5.114 2.015-11.133-1.416-15.708l-45-60c-2.86-3.813-7.233-6-12-6s-9.14 2.187-12 6l-45 60c-3.431 4.575-3.974 10.594-1.416 15.708 2.557 5.115 7.698 8.292 13.416 8.292h15c0 57.897-47.103 105-105 105v60c90.981 0 165-74.019 165-165h15c5.718 0 10.859-3.177 13.416-8.292z"/><path d="m307.167 164.479c5.93 3.329 13.354 2.251 18.093-2.623l21.603-22.212c3.151-3.239 4.673-7.728 4.144-12.216s-3.055-8.499-6.874-10.916c-26.366-16.69-56.842-25.512-88.133-25.512v60c17.757 0 35.451 4.661 51.167 13.479z"/></g></g></svg>