<svg id="Capa_1" enable-background="new 0 0 512 512" height="512" viewBox="0 0 512 512" width="512" xmlns="http://www.w3.org/2000/svg"><g><circle cx="256" cy="256" fill="#0052be" r="256"/><path d="m512 256h-512c0 141.385 114.615 256 256 256s256-114.615 256-256z" fill="#00337a"/><path d="m331 141h-30c-8.284 0-15 6.716-15 15v67.974l-95.397-79.498c-4.47-3.726-10.692-4.528-15.965-2.061-5.271 2.47-8.638 7.765-8.638 13.585v200c0 5.82 3.367 11.115 8.638 13.584 2.03.951 4.201 1.416 6.359 1.416 3.445 0 6.856-1.186 9.605-3.477l95.398-79.497v67.974c0 8.284 6.716 15 15 15h30c8.284 0 15-6.716 15-15v-200c0-8.284-6.716-15-15-15z" fill="#f9f9f9"/><path d="m166 256v100c0 5.82 3.367 11.115 8.638 13.584 2.03.951 4.201 1.416 6.359 1.416 3.445 0 6.856-1.186 9.605-3.477l95.398-79.497v67.974c0 8.284 6.716 15 15 15h30c8.284 0 15-6.716 15-15v-100z" fill="#e2dff4"/></g></svg>