<svg id="Capa_1" enable-background="new 0 0 512 512" height="512" viewBox="0 0 512 512" width="512" xmlns="http://www.w3.org/2000/svg"><g><path d="m226 15h60v117h-60z" fill="#0052be"/><path d="m256 15h30v117h-30z" fill="#00337a"/><path d="m301 30h-90c-8.284 0-15-6.716-15-15s6.716-15 15-15h90c8.284 0 15 6.716 15 15s-6.716 15-15 15z" fill="#2681ff"/><path d="m466 312h-420c-24.813 0-45-20.187-45-45v-120c0-24.813 20.187-45 45-45h420c24.813 0 45 20.187 45 45v120c0 24.813-20.187 45-45 45z" fill="#0052be"/><path d="m466 102h-210v210h210c24.813 0 45-20.187 45-45v-120c0-24.813-20.187-45-45-45z" fill="#00337a"/><circle cx="256" cy="207" fill="#f9f9f9" r="90"/><path d="m256 117v180c49.706 0 90-40.294 90-90s-40.294-90-90-90z" fill="#e2dff4"/><path d="m256 312c-57.897 0-105-47.103-105-105s47.103-105 105-105 105 47.103 105 105-47.103 105-105 105zm0-180c-41.355 0-75 33.645-75 75s33.645 75 75 75 75-33.645 75-75-33.645-75-75-75z" fill="#2681ff"/><path d="m256 102v30c41.355 0 75 33.645 75 75s-33.645 75-75 75v30c57.897 0 105-47.103 105-105s-47.103-105-105-105z" fill="#0052be"/><path d="m410.025 491.681-109.025-284.681h-90l-109.025 284.681c-1.749 4.608-1.121 9.783 1.68 13.84 2.8 4.058 7.416 6.479 12.345 6.479h280c4.93 0 9.545-2.422 12.345-6.479 2.801-4.057 3.428-9.232 1.68-13.84z" fill="#fff16b"/><g fill="#ffb454"><path d="m410.025 491.681-109.025-284.681h-45v305h140c4.93 0 9.545-2.422 12.345-6.479 2.801-4.057 3.428-9.232 1.68-13.84z"/><path d="m446 192h-30c-8.284 0-15-6.716-15-15s6.716-15 15-15h30c8.284 0 15 6.716 15 15s-6.716 15-15 15z"/><path d="m446 252h-30c-8.284 0-15-6.716-15-15s6.716-15 15-15h30c8.284 0 15 6.716 15 15s-6.716 15-15 15z"/></g><path d="m96 192h-30c-8.284 0-15-6.716-15-15s6.716-15 15-15h30c8.284 0 15 6.716 15 15s-6.716 15-15 15z" fill="#fff16b"/><path d="m96 252h-30c-8.284 0-15-6.716-15-15s6.716-15 15-15h30c8.284 0 15 6.716 15 15s-6.716 15-15 15z" fill="#fff16b"/><path d="m256 252c-24.813 0-45-20.187-45-45s20.187-45 45-45 45 20.187 45 45-20.187 45-45 45z" fill="#ffb454"/><path d="m301 0h-45v30h45c8.284 0 15-6.716 15-15s-6.716-15-15-15z" fill="#0052be"/><path d="m301 207c0-24.813-20.187-45-45-45v90c24.813 0 45-20.187 45-45z" fill="#ff7d47"/></g></svg>