<svg id="Capa_1" enable-background="new 0 0 512 512" height="512" viewBox="0 0 512 512" width="512" xmlns="http://www.w3.org/2000/svg"><g><g><path d="m457 71h-231.188l-16.582-49.743c-2.041-6.125-7.774-10.257-14.23-10.257h-180c-8.284 0-15 6.716-15 15v104.879 330.121c0 22.091 17.909 40 40 40 25.767 0 50.638-9.455 69.898-26.572l358.251-318.393c2.479-2.755 3.851-6.329 3.851-10.035v-60c0-8.284-6.716-15-15-15z" fill="#ffb454"/><g><path d="m457 71h-146v224.651l157.149-139.617c2.479-2.754 3.851-6.328 3.851-10.034v-60c0-8.284-6.716-15-15-15z" fill="#ff7d47"/></g><g><path d="m497 131h-402c-8.284 0-15 6.716-15 15v315c0 22.091-17.909 40-40 40h417c30.327 0 55-24.673 55-55v-300c0-8.284-6.716-15-15-15z" fill="#fff16b"/></g><g><path d="m497 130.879h-186v370h146c30.327 0 55-24.673 55-55v-300c0-8.284-6.716-15-15-15z" fill="#ffb454"/></g></g><g><g><path d="m296 431c-63.411 0-115-51.589-115-115s51.589-115 115-115 115 51.589 115 115-51.589 115-115 115z" fill="#ff6b6b"/><g><path d="m296 431c63.411 0 115-51.589 115-115h-230c0 63.411 51.589 115 115 115z" fill="#ff1f3d"/></g><path d="m275.998 376c-2.287 0-4.583-.522-6.706-1.583-5.082-2.542-8.292-7.735-8.292-13.417v-90c0-5.682 3.21-10.875 8.292-13.417 5.081-2.541 11.162-1.993 15.708 1.417l60 45c3.777 2.833 6 7.279 6 12s-2.223 9.167-6 12l-60 45c-2.646 1.985-5.814 3-9.002 3z" fill="#f9f9f9"/><g><path d="m261 361c0 5.682 3.21 10.875 8.292 13.417 2.123 1.062 4.419 1.583 6.706 1.583 3.188 0 6.355-1.015 9.002-3l60-45c3.777-2.833 6-7.279 6-12h-90z" fill="#e2dff4"/></g></g></g></g></svg>