<svg id="Capa_1" enable-background="new 0 0 512 512" height="512" viewBox="0 0 512 512" width="512" xmlns="http://www.w3.org/2000/svg"><g><path d="m496 435h-480v-390c0-16.569 13.431-30 30-30h420c16.569 0 30 13.431 30 30z" fill="#f9f9f9"/><g><path d="m496 45c0-16.569-13.431-30-30-30h-210v420h240z" fill="#e2dff4"/></g><path d="m496 450h-480c-8.284 0-15-21.716-15-30v-375c0-24.813 20.187-45 45-45h420c24.813 0 45 20.187 45 45v375c0 8.284-6.716 30-15 30zm-465-14h450v-391c0-8.271-6.729-15-15-15h-420c-8.271 0-15 6.729-15 15z" fill="#e2dff4"/><g><path d="m466 0h-210v30h210c8.271 0 15 6.729 15 15v375h-225v30h240c8.284 0 15-21.716 15-30v-375c0-24.813-20.187-45-45-45z" fill="#bebcdd"/></g><g><path d="m306 390c-8.284 0-15-6.716-15-15v-300c0-8.284 6.716-15 15-15s15 6.716 15 15v300c0 8.284-6.716 15-15 15z" fill="#00337a"/><path d="m406 390c-8.284 0-15-6.716-15-15v-300c0-8.284 6.716-15 15-15s15 6.716 15 15v300c0 8.284-6.716 15-15 15z" fill="#00337a"/><g fill="#0052be"><path d="m206 390c-8.284 0-15-6.716-15-15v-300c0-8.284 6.716-15 15-15s15 6.716 15 15v300c0 8.284-6.716 15-15 15z"/><path d="m106 390c-8.284 0-15-6.716-15-15v-300c0-8.284 6.716-15 15-15s15 6.716 15 15v300c0 8.284-6.716 15-15 15z"/></g></g><path d="m1 420v47c0 24.813 20.187 45 45 45h420c24.813 0 45-20.187 45-45v-47z" fill="#bceaf9"/><g><path d="m256 420v92h210c24.813 0 45-20.187 45-45v-47z" fill="#8bb9ff"/></g><circle cx="306" cy="285" fill="#8bb9ff" r="30"/><circle cx="406" cy="145" fill="#ff1f3d" r="30"/><circle cx="206" cy="145" fill="#ff6b6b" r="30"/><circle cx="106" cy="285" fill="#bceaf9" r="30"/></g></svg>