<svg id="Capa_1" enable-background="new 0 0 512 512" height="512" viewBox="0 0 512 512" width="512" xmlns="http://www.w3.org/2000/svg"><g><g><g><path d="m496 175h-60c-8.284 0-15-6.716-15-15v-80c0-8.284 6.716-15 15-15h60c8.284 0 15 6.716 15 15v80c0 8.284-6.716 15-15 15z" fill="#ff1f3d"/><path d="m421 120v40c0 8.284 6.716 15 15 15h60c8.284 0 15-6.716 15-15v-40z" fill="#93293b"/><path d="m406 240h-360c-24.813 0-45-20.187-45-45v-150c0-24.813 20.187-45 45-45h360c24.813 0 45 20.187 45 45v150c0 24.813-20.187 45-45 45z" fill="#ff6b6b"/><g><path d="m1 120v75c0 24.813 20.187 45 45 45h360c24.813 0 45-20.187 45-45v-75z" fill="#ff1f3d"/></g></g><g><path d="m225.999 180c-1.845 0-3.698-.34-5.465-1.031l-115-45c-7.715-3.019-11.521-11.72-8.503-19.435 3.019-7.716 11.719-11.521 19.435-8.503l94.534 36.991v-68.022c0-4.957 2.449-9.595 6.544-12.39 4.096-2.794 9.307-3.386 13.922-1.579l115 45c7.715 3.019 11.521 11.72 8.503 19.435-3.02 7.715-11.721 11.52-19.435 8.503l-94.534-36.991v68.022c0 4.957-2.449 9.595-6.544 12.39-2.528 1.724-5.481 2.61-8.457 2.61z" fill="#fff16b"/></g><g fill="#ffb454"><path d="m105.534 133.969 115 45c1.767.691 3.62 1.031 5.465 1.031 2.976 0 5.929-.886 8.457-2.61 4.095-2.795 6.544-7.433 6.544-12.39v-45h-30v23.022l-58.836-23.022h-56.154c.002 5.993 3.606 11.653 9.524 13.969z"/><path d="m299.836 120 35.698 13.969c7.713 3.017 16.415-.788 19.435-8.503.703-1.797 1.022-3.646 1.021-5.466z"/></g></g><g><path d="m496 447h-60c-8.284 0-15-6.716-15-15v-80c0-8.284 6.716-15 15-15h60c8.284 0 15 6.716 15 15v80c0 8.284-6.716 15-15 15z" fill="#ff1f3d"/><path d="m421 392v40c0 8.284 6.716 15 15 15h60c8.284 0 15-6.716 15-15v-40z" fill="#93293b"/><path d="m406 512h-360c-24.813 0-45-20.187-45-45v-150c0-24.813 20.187-45 45-45h360c24.813 0 45 20.187 45 45v150c0 24.813-20.187 45-45 45z" fill="#ff6b6b"/><g><path d="m1 392v75c0 24.813 20.187 45 45 45h360c24.813 0 45-20.187 45-45v-75z" fill="#ff1f3d"/></g><g><path d="m391 317h-57l-36 21.323-36-21.323h-72l-36 21.323-36-21.323h-57c-8.284 0-15 6.716-15 15v120c0 8.284 6.716 15 15 15h57l36-20.215 36 20.215h72l36-20.215 36 20.215h57c8.284 0 15-6.716 15-15v-120c0-8.284-6.716-15-15-15z" fill="#fff16b"/><g><path d="m46 452c0 8.284 6.716 15 15 15h57l36-20.215 36 20.215h72l36-20.215 36 20.215h57c8.284 0 15-6.716 15-15v-60h-360z" fill="#ffb454"/></g><g fill="#ffb454"><path d="m262 317h72v150h-72z"/><path d="m118 317h72v150h-72z"/></g></g><g><g fill="#ff7d47"><path d="m262 392h72v75h-72z"/><path d="m118 392h72v75h-72z"/></g></g></g></g></svg>