<svg id="Capa_1" enable-background="new 0 0 512 512" height="512" viewBox="0 0 512 512" width="512" xmlns="http://www.w3.org/2000/svg"><g><path d="m497 141h-482c-8.284 0-15 6.716-15 15v290c0 24.813 20.187 45 45 45h31l15-40 15 40h75l15-40 15 40h75l15-40 15 40h90l15-40 15 40h31c24.813 0 45-20.187 45-45v-290c0-8.284-6.716-15-15-15z" fill="#f9f9f9"/><g><g><path d="m497 141h-241v350h30l15-40 15 40h90l15-40 15 40h31c24.813 0 45-20.187 45-45v-290c0-8.284-6.716-15-15-15z" fill="#e2dff4"/></g></g><path d="m286 301h30v190h-30z" fill="#bebcdd"/><path d="m406 301h30v190h-30z" fill="#bebcdd"/><path d="m76 301h30v190h-30z" fill="#e2dff4"/><path d="m181 141h30v350h-30z" fill="#e2dff4"/><path d="m316 331h-30c-8.284 0-15-6.716-15-15v-175h60v175c0 8.284-6.716 15-15 15z" fill="#00337a"/><path d="m436 331h-30c-8.284 0-15-6.716-15-15v-175h60v175c0 8.284-6.716 15-15 15z" fill="#00337a"/><path d="m106 331h-30c-8.284 0-15-6.716-15-15v-175h60v175c0 8.284-6.716 15-15 15z" fill="#0052be"/><path d="m467 21h-422c-24.813 0-45 20.187-45 45v90h512v-90c0-24.813-20.187-45-45-45z" fill="#bceaf9"/><g><path d="m512 66c0-24.813-20.187-45-45-45h-211v135h256z" fill="#8bb9ff"/></g><g><path d="m156 103.5h-80c-8.284 0-15-6.716-15-15s6.716-15 15-15h80c8.284 0 15 6.716 15 15s-6.716 15-15 15z" fill="#f9f9f9"/><g fill="#ff1f3d"><circle cx="436" cy="88.5" r="15"/><circle cx="376" cy="88.5" r="15"/><circle cx="316" cy="88.5" r="15"/></g></g></g></svg>