<svg id="Capa_1" enable-background="new 0 0 512 512" height="512" viewBox="0 0 512 512" width="512" xmlns="http://www.w3.org/2000/svg"><g><path d="m506.617 3.489c-3.411-2.85-7.909-4.041-12.285-3.25l-332 60c-7.139 1.291-12.332 7.506-12.332 14.761v279.98c-15.935-14.28-36.969-22.98-60-22.98-49.626 0-90 40.374-90 90s40.374 90 90 90 90-40.374 90-90v-239.711l302-54.578v182.269c-15.935-14.28-36.969-22.98-60-22.98-49.626 0-90 40.374-90 90s40.374 90 90 90 90-40.374 90-90v-362c0-4.445-1.971-8.661-5.383-11.511z" fill="#bceaf9"/><path d="m506.617 3.489c-3.411-2.85-7.909-4.041-12.285-3.25l-163.332 29.519v125.242l151-27.289v182.269c-15.935-14.28-36.969-22.98-60-22.98-49.626 0-90 40.374-90 90s40.374 90 90 90 90-40.374 90-90v-362c0-4.445-1.971-8.661-5.383-11.511z" fill="#8bb9ff"/></g></svg>