<svg id="Capa_1" enable-background="new 0 0 512 512" height="512" viewBox="0 0 512 512" width="512" xmlns="http://www.w3.org/2000/svg"><g><circle cx="256" cy="256" fill="#0052be" r="256"/><path d="m256 0v512c141.385 0 256-114.615 256-256s-114.615-256-256-256z" fill="#00337a"/><path d="m286 451h-60c-7.15 0-13.307-5.047-14.709-12.058l-7.404-37.024c-4.884-1.732-9.645-3.69-14.255-5.863l-31.378 20.918c-5.951 3.967-13.873 3.182-18.927-1.875l-42.426-42.427c-5.056-5.056-5.841-12.978-1.874-18.927l20.918-31.378c-2.173-4.61-4.131-9.371-5.863-14.253l-37.023-7.405c-7.012-1.401-12.059-7.558-12.059-14.708v-60c0-7.15 5.047-13.307 12.059-14.708l37.023-7.405c1.732-4.883 3.69-9.644 5.863-14.253l-20.918-31.379c-3.967-5.949-3.182-13.871 1.874-18.927l42.426-42.426c5.056-5.056 12.979-5.839 18.927-1.875l31.378 20.918c4.61-2.173 9.371-4.131 14.255-5.863l7.404-37.024c1.402-7.011 7.559-12.058 14.709-12.058h60c7.15 0 13.307 5.047 14.709 12.058l7.405 37.024c4.883 1.732 9.644 3.69 14.254 5.863l31.378-20.918c5.951-3.967 13.871-3.182 18.927 1.875l42.426 42.426c5.056 5.056 5.841 12.978 1.874 18.927l-20.918 31.378c2.173 4.609 4.131 9.37 5.863 14.254l37.023 7.405c7.012 1.401 12.059 7.558 12.059 14.708v60c0 7.15-5.047 13.307-12.059 14.708l-37.023 7.405c-1.732 4.884-3.69 9.645-5.863 14.254l20.918 31.376c3.967 5.949 3.183 13.871-1.874 18.927l-42.426 42.427c-5.055 5.057-12.978 5.841-18.927 1.875l-31.378-20.918c-4.61 2.173-9.371 4.131-14.254 5.863l-7.405 37.024c-1.402 7.012-7.559 12.059-14.709 12.059zm150-165h.01zm-180-100c-38.598 0-70 31.402-70 70s31.402 70 70 70 70-31.402 70-70-31.402-70-70-70z" fill="#f9f9f9"/><g><path d="m438.941 211.292-37.023-7.405c-1.732-4.884-3.69-9.645-5.863-14.254l20.918-31.378c3.967-5.949 3.182-13.871-1.874-18.927l-42.426-42.426c-5.056-5.056-12.976-5.842-18.927-1.875l-31.378 20.918c-4.61-2.173-9.371-4.131-14.254-5.863l-7.405-37.024c-1.402-7.011-7.559-12.058-14.709-12.058h-30v125c38.598 0 70 31.402 70 70s-31.402 70-70 70v125h30c7.15 0 13.307-5.047 14.709-12.058l7.405-37.024c4.883-1.732 9.644-3.69 14.254-5.863l31.378 20.918c5.949 3.966 13.872 3.182 18.927-1.875l42.426-42.427c5.057-5.056 5.841-12.978 1.874-18.927l-20.918-31.376c2.173-4.61 4.131-9.37 5.863-14.254l37.023-7.405c7.012-1.402 12.059-7.559 12.059-14.709v-60c0-7.15-5.047-13.307-12.059-14.708zm-2.941 74.708h.01z" fill="#e2dff4"/></g><g><path d="m256 341c-46.869 0-85-38.131-85-85s38.131-85 85-85 85 38.131 85 85-38.131 85-85 85zm0-140c-30.327 0-55 24.673-55 55s24.673 55 55 55 55-24.673 55-55-24.673-55-55-55z" fill="#e2dff4"/></g><g><g><path d="m256 171v30c30.327 0 55 24.673 55 55s-24.673 55-55 55v30c46.869 0 85-38.131 85-85s-38.131-85-85-85z" fill="#bebcdd"/></g></g></g></svg>