<svg id="Capa_1" enable-background="new 0 0 512 512" height="512" viewBox="0 0 512 512" width="512" xmlns="http://www.w3.org/2000/svg"><g><circle cx="256" cy="256" fill="#f9f9f9" r="256"/><path d="m256 0v512c141.385 0 256-114.615 256-256s-114.615-256-256-256z" fill="#e2dff4"/><path d="m441.608 195.971-96.792-113.682c-46.266-23.614-100.054-27.589-148.845-11.897l-113.682 96.792c-23.614 46.266-27.589 100.054-11.897 148.845l96.792 113.682c46.266 23.614 100.054 27.589 148.846 11.897l113.682-96.792c23.613-46.266 27.588-100.054 11.896-148.845zm-125.579 59.02c.276 15.724-5.609 31.484-17.582 43.456l-21.552 21.553-19.886-3.971c-15.724.276-31.484-5.609-43.456-17.582l-43.012-43.012 25.43 1.573c-.276-15.724 5.609-31.484 17.582-43.456l42.425-42.425-.986 24.843c15.724-.276 31.484 5.609 43.456 17.582l47.707 47.707z" fill="#ff1f3d"/><g><path d="m441.608 195.971-96.792-113.682c-27.795-14.187-58.305-21.275-88.816-21.279v134.968c15.388-.012 30.731 5.859 42.447 17.575l47.707 47.707-30.125-6.268c.276 15.724-5.609 31.484-17.582 43.456l-21.552 21.552-19.886-3.971c-.336.006-.673-.007-1.009-.007v134.968c20.275.003 40.55-3.117 60.029-9.382l113.682-96.792c23.614-46.266 27.589-100.054 11.897-148.845z" fill="#93293b"/></g><g><path d="m256 316.03h-185.635c16.017 49.413 51.241 90.257 96.837 113.662l131.958-131.958c-10.923 11.313-26.228 18.296-43.16 18.296z" fill="#ff6b6b"/></g><g><path d="m316.03 256v185.635c49.413-16.017 90.257-51.241 113.662-96.837l-131.958-131.959c11.313 10.924 18.296 26.229 18.296 43.161z" fill="#ff6b6b"/></g><g><path d="m256 195.97h185.635c-16.017-49.413-51.241-90.257-96.837-113.662l-131.959 131.958c10.924-11.313 26.229-18.296 43.161-18.296z" fill="#ff6b6b"/></g><g><path d="m195.97 256v-185.635c-49.413 16.017-90.257 51.241-113.662 96.837l131.958 131.958c-11.313-10.923-18.296-26.228-18.296-43.16z" fill="#ff6b6b"/></g><g><g><path d="m316.03 256v185.635c49.413-16.017 90.257-51.241 113.662-96.837l-131.958-131.959c11.313 10.924 18.296 26.229 18.296 43.161z" fill="#ff1f3d"/></g><g><path d="m195.97 256v-185.635c-49.413 16.017-90.257 51.241-113.662 96.837l131.958 131.958c-11.313-10.923-18.296-26.228-18.296-43.16z" fill="#ff6b6b"/></g><g fill="#ff1f3d"><path d="m256 316.03v24.865l43.161-43.161c-10.924 11.313-26.229 18.296-43.161 18.296z"/><path d="m344.798 82.308-88.798 88.798v24.865h185.635c-16.018-49.414-51.241-90.258-96.837-113.663z"/></g></g></g></svg>