<svg id="Capa_1" enable-background="new 0 0 512 512" height="512" viewBox="0 0 512 512" width="512" xmlns="http://www.w3.org/2000/svg"><g><circle cx="256" cy="256" fill="#f9f9f9" r="256"/><path d="m256 0v512c141.385 0 256-114.615 256-256s-114.615-256-256-256z" fill="#e2dff4"/><path d="m301 226c0-24.813-20.187-45-45-45-21.456 0-40.025 15.265-44.156 36.295-1.597 8.129 3.699 16.013 11.828 17.609 8.133 1.597 16.013-3.699 17.609-11.828 1.375-6.997 7.565-12.076 14.719-12.076 8.271 0 15 6.729 15 15s-6.729 15-15 15c-8.284 0-15 6.716-15 15s6.716 15 15 15c8.271 0 15 6.729 15 15s-6.729 15-15 15c-7.443 0-13.829-5.541-14.854-12.89-.097-.691-.146-1.401-.146-2.11 0-8.284-6.716-15-15-15s-15 6.716-15 15c0 2.093.146 4.198.434 6.258 3.082 22.087 22.241 38.742 44.566 38.742 24.813 0 45-20.187 45-45 0-11.517-4.353-22.032-11.495-30 7.142-7.968 11.495-18.483 11.495-30z" fill="#ff6b6b"/><path d="m256 451c-107.523 0-195-87.477-195-195s87.477-195 195-195c8.284 0 15 6.716 15 15v30c0 8.284-6.716 15-15 15-74.439 0-135 60.561-135 135s60.561 135 135 135 135-60.561 135-135c0-8.284 6.716-15 15-15h30c8.284 0 15 6.716 15 15 0 107.523-87.477 195-195 195z" fill="#0052be"/><path d="m271 226c0 8.271-6.729 15-15 15v30c8.271 0 15 6.729 15 15s-6.729 15-15 15v30c24.813 0 45-20.187 45-45 0-11.517-4.353-22.032-11.495-30 7.141-7.968 11.495-18.483 11.495-30 0-24.813-20.187-45-45-45v30c8.271 0 15 6.729 15 15z" fill="#ff1f3d"/><g fill="#00337a"><path d="m436 241h-30c-8.284 0-15 6.716-15 15 0 74.439-60.561 135-135 135v60c107.523 0 195-87.477 195-195 0-8.284-6.716-15-15-15z"/><path d="m271 106v-30c0-8.284-6.716-15-15-15v60c8.284 0 15-6.716 15-15z"/></g></g></svg>