<svg id="Capa_1" enable-background="new 0 0 512 512" height="512" viewBox="0 0 512 512" width="512" xmlns="http://www.w3.org/2000/svg"><g><circle cx="256" cy="256" fill="#0052be" r="256"/><path d="m256 0v512c141.385 0 256-114.615 256-256s-114.615-256-256-256z" fill="#00337a"/><g fill="#f9f9f9"><path d="m371 251.002c0 2.158-.465 4.33-1.416 6.36-2.469 5.271-7.764 8.638-13.584 8.638h-200c-5.82 0-11.115-3.367-13.584-8.638-2.467-5.27-1.666-11.494 2.061-15.965l100-120c2.85-3.42 7.071-5.397 11.523-5.397s8.674 1.978 11.523 5.397l100 120c2.291 2.749 3.477 6.161 3.477 9.605z"/><path d="m371 311v29c0 8.284-6.716 15-15 15h-200c-8.284 0-15-6.716-15-15v-29c0-8.284 6.716-15 15-15h200c8.284 0 15 6.716 15 15z"/></g><g fill="#e2dff4"><path d="m356 266c5.82 0 11.115-3.367 13.584-8.638.951-2.03 1.416-4.202 1.416-6.36 0-3.445-1.186-6.856-3.477-9.605l-100-120c-2.85-3.42-7.071-5.397-11.523-5.397v150z"/><path d="m256 355h100c8.284 0 15-6.716 15-15v-29c0-8.284-6.716-15-15-15h-100z"/></g></g></svg>