<svg id="Capa_1" enable-background="new 0 0 512 512" height="512" viewBox="0 0 512 512" width="512" xmlns="http://www.w3.org/2000/svg"><g><circle cx="256" cy="256" fill="#0052be" r="256"/><path d="m512 256h-512c0 141.385 114.615 256 256 256s256-114.615 256-256z" fill="#00337a"/><g fill="#f9f9f9"><path d="m260.998 371c-2.158 0-4.33-.465-6.36-1.416-5.271-2.469-8.638-7.764-8.638-13.584v-200c0-5.82 3.367-11.115 8.638-13.584 5.27-2.467 11.494-1.666 15.965 2.061l120 100c3.42 2.85 5.397 7.071 5.397 11.523s-1.978 8.674-5.397 11.523l-120 100c-2.749 2.291-6.161 3.477-9.605 3.477z"/><path d="m201 371h-29c-8.284 0-15-6.716-15-15v-200c0-8.284 6.716-15 15-15h29c8.284 0 15 6.716 15 15v200c0 8.284-6.716 15-15 15z"/></g><g fill="#e2dff4"><path d="m246 356c0 5.82 3.367 11.115 8.638 13.584 2.03.951 4.202 1.416 6.36 1.416 3.445 0 6.856-1.186 9.605-3.477l120-100c3.42-2.85 5.397-7.071 5.397-11.523h-150z"/><path d="m157 256v100c0 8.284 6.716 15 15 15h29c8.284 0 15-6.716 15-15v-100z"/></g></g></svg>