<svg id="Capa_1" enable-background="new 0 0 512 512" height="512" viewBox="0 0 512 512" width="512" xmlns="http://www.w3.org/2000/svg"><g><circle cx="256" cy="256" fill="#ff6b6b" r="256"/><path d="m512 256h-512c0 141.385 114.615 256 256 256s256-114.615 256-256z" fill="#ff1f3d"/><path d="m411.25 358-59.628 44.721c-4.581 3.436-10.738 4.278-15.894 1.787-5.224-2.524-8.478-7.721-8.478-13.508v-15h-23.506c-35.537 0-67.822-20.977-82.246-53.447l-48.32-108.74c-4.815-10.821-15.576-17.813-27.422-17.813h-16.006c-8.284 0-15-6.716-15-15v-30c0-8.284 6.716-15 15-15h16.006c35.537 0 67.822 20.977 82.246 53.447l48.32 108.74c4.814 10.82 15.576 17.812 27.422 17.812h23.506v-14.528c0-5.775 3.072-11.248 8.225-13.855 2.159-1.093 4.482-1.631 6.789-1.631 3.176 0 6.325 1.019 8.985 3.014l60 45c3.813 2.859 6 7.233 6 12s-2.186 9.142-5.999 12.001z" fill="#e2dff4"/><path d="m221.498 322.553c14.424 32.471 46.709 53.447 82.246 53.447h23.506v15c0 5.787 3.254 10.984 8.478 13.508 5.156 2.491 11.313 1.649 15.894-1.787l59.628-44.721c3.813-2.859 6-7.233 6-12s-2.187-9.141-6-12l-60-45c-2.66-1.995-5.81-3.014-8.985-3.014-2.308 0-4.63.538-6.789 1.631-5.153 2.607-8.225 8.08-8.225 13.855v14.528h-23.506c-11.846 0-22.607-6.992-27.422-17.812l-18.747-42.188h-65.651z" fill="#bebcdd"/><path d="m411.25 154-59.628-44.721c-4.581-3.436-10.738-4.278-15.894-1.787-5.224 2.524-8.478 7.721-8.478 13.508v15h-23.506c-35.537 0-67.822 20.977-82.246 53.447l-48.32 108.74c-4.815 10.821-15.576 17.813-27.422 17.813h-16.006c-8.284 0-15 6.716-15 15v30c0 8.284 6.716 15 15 15h16.006c35.537 0 67.822-20.977 82.246-53.447l48.32-108.74c4.814-10.82 15.576-17.812 27.422-17.812h23.506v14.528c0 5.775 3.072 11.248 8.225 13.855 2.159 1.093 4.482 1.631 6.789 1.631 3.176 0 6.325-1.019 8.985-3.014l60-45c3.813-2.859 6-7.233 6-12s-2.186-9.142-5.999-12.001z" fill="#f9f9f9"/><path d="m191.924 256-18.747 42.188c-4.814 10.82-15.575 17.812-27.421 17.812h-16.006c-8.284 0-15 6.716-15 15v30c0 8.284 6.716 15 15 15h16.006c35.537 0 67.822-20.977 82.246-53.447l29.574-66.553z" fill="#e2dff4"/></g></svg>