<svg id="Capa_1" enable-background="new 0 0 512 512" height="512" viewBox="0 0 512 512" width="512" xmlns="http://www.w3.org/2000/svg"><g><g><path d="m336 0h-220c-30.327 0-55 24.673-55 55v402c0 30.327 24.673 55 55 55h280c30.327 0 55-24.673 55-55v-342z" fill="#fff16b"/><g><path d="m336 0h-80v512h140c30.327 0 55-24.673 55-55v-342z" fill="#ffb454"/></g><path d="m346.606 4.394c-2.813-2.814-6.628-4.394-10.606-4.394v100c0 8.284 6.716 15 15 15h100c0-3.979-1.581-7.794-4.394-10.606z" fill="#ff7d47"/></g><path d="m335.431 204.335c-3.523-2.848-8.145-3.953-12.573-3.002l-140 30c-6.917 1.482-11.858 7.594-11.858 14.667v120.755c-2.424-.494-4.932-.755-7.5-.755-20.678 0-37.5 16.823-37.5 37.5s16.822 37.5 37.5 37.5 37.5-16.823 37.5-37.5v-100.714l110-23.571v67.54c-2.424-.494-4.932-.755-7.5-.755-20.678 0-37.5 16.823-37.5 37.5s16.822 37.5 37.5 37.5 37.5-16.823 37.5-37.5v-167.5c0-4.529-2.047-8.817-5.569-11.665z" fill="#bceaf9"/><path d="m335.431 204.335c-3.523-2.848-8.145-3.953-12.573-3.002l-66.858 14.327v75.34l55-11.786v67.54c-2.424-.494-4.932-.755-7.5-.755-20.678 0-37.5 16.823-37.5 37.5s16.822 37.5 37.5 37.5 37.5-16.823 37.5-37.5v-167.499c0-4.529-2.047-8.817-5.569-11.665z" fill="#8bb9ff"/></g></svg>