<svg id="Capa_1" enable-background="new 0 0 512 512" height="512" viewBox="0 0 512 512" width="512" xmlns="http://www.w3.org/2000/svg"><g><g><path d="m406 350h-300c-57.897 0-105-47.103-105-105 0-53.166 39.718-97.229 91.04-104.076 6.823-45.731 46.359-80.924 93.96-80.924 11.586 0 23.07 2.153 33.87 6.298 24.107-40.718 68.182-66.298 116.13-66.298 74.439 0 135 60.561 135 135 0 8.523-.854 17.132-2.545 25.708 26.487 19.678 42.545 51.044 42.545 84.292 0 57.897-47.103 105-105 105z" fill="#f9f9f9"/></g><g><path d="m468.455 160.708c1.691-8.576 2.545-17.185 2.545-25.708 0-74.439-60.561-135-135-135-29.352 0-57.243 9.6-80 26.376v323.624h150c57.897 0 105-47.103 105-105 0-33.248-16.058-64.614-42.545-84.292z" fill="#e2dff4"/></g><path d="m324.199 409.443c-2.814-4.382-7.818-6.865-13.026-6.865h-25.173v-175.578c0-8.284-6.716-15-15-15h-30c-8.284 0-15 6.716-15 15v175.579h-25.173c-5.208 0-10.212 2.482-13.026 6.865-3.338 5.199-3.169 11.759.315 16.737l55.596 79.423c2.805 4.005 7.398 6.396 12.288 6.396s9.483-2.391 12.289-6.398l55.595-79.422c3.483-4.977 3.653-11.538.315-16.737z" fill="#bceaf9"/><path d="m268.289 505.602 55.595-79.422c3.484-4.978 3.653-11.538.315-16.737-2.814-4.382-7.818-6.865-13.026-6.865h-25.173v-175.578c0-8.284-6.716-15-15-15h-15v300c4.89 0 9.483-2.391 12.289-6.398z" fill="#8bb9ff"/></g></svg>