<svg id="Capa_1" enable-background="new 0 0 512 512" height="512" viewBox="0 0 512 512" width="512" xmlns="http://www.w3.org/2000/svg"><g><circle cx="256" cy="256" fill="#0052be" r="256"/><path d="m0 256h512c0 141.385-114.615 256-256 256s-256-114.615-256-256z" fill="#00337a"/><g fill="#f9f9f9"><path d="m241.397 367.523-120-100c-3.42-2.85-5.397-7.071-5.397-11.523s1.978-8.674 5.397-11.523l120-100c4.471-3.727 10.695-4.527 15.965-2.061 5.271 2.469 8.638 7.764 8.638 13.584v200c0 5.82-3.367 11.115-8.638 13.584-2.03.951-4.202 1.416-6.36 1.416-3.444 0-6.856-1.186-9.605-3.477z"/><path d="m311 371h29c8.284 0 15-6.716 15-15v-200c0-8.284-6.716-15-15-15h-29c-8.284 0-15 6.716-15 15v200c0 8.284 6.716 15 15 15z"/></g><g fill="#e2dff4"><path d="m266 356c0 5.82-3.367 11.115-8.638 13.584-2.03.951-4.202 1.416-6.36 1.416-3.445 0-6.856-1.186-9.605-3.477l-120-100c-3.42-2.85-5.397-7.071-5.397-11.523h150z"/><path d="m355 256v100c0 8.284-6.716 15-15 15h-29c-8.284 0-15-6.716-15-15v-100z"/></g></g></svg>