<svg id="Capa_1" enable-background="new 0 0 512 512" height="512" viewBox="0 0 512 512" width="512" xmlns="http://www.w3.org/2000/svg"><g><g><path d="m406 350h-300c-57.897 0-105-47.103-105-105 0-53.166 39.718-97.229 91.04-104.076 6.823-45.731 46.359-80.924 93.96-80.924 11.586 0 23.07 2.153 33.87 6.298 24.107-40.718 68.182-66.298 116.13-66.298 74.439 0 135 60.561 135 135 0 8.523-.854 17.132-2.545 25.708 26.487 19.678 42.545 51.044 42.545 84.292 0 57.897-47.103 105-105 105z" fill="#f9f9f9"/></g><g><path d="m468.455 160.708c1.691-8.576 2.545-17.185 2.545-25.708 0-74.439-60.561-135-135-135-29.352 0-57.243 9.6-80 26.376v323.624h150c57.897 0 105-47.103 105-105 0-33.248-16.058-64.614-42.545-84.292z" fill="#e2dff4"/></g><path d="m187.801 294.557c2.814 4.382 7.818 6.865 13.026 6.865h25.173v195.578c0 8.284 6.716 15 15 15h30c8.284 0 15-6.716 15-15v-195.579h25.173c5.208 0 10.212-2.482 13.026-6.865 3.338-5.199 3.169-11.759-.315-16.737l-55.596-79.423c-2.805-4.005-7.398-6.396-12.288-6.396s-9.483 2.391-12.289 6.398l-55.595 79.422c-3.483 4.977-3.653 11.538-.315 16.737z" fill="#bceaf9"/><g><g><path d="m323.884 277.82-55.596-79.423c-2.805-4.006-7.398-6.397-12.288-6.397v320h15c8.284 0 15-6.716 15-15v-195.579h25.173c5.208 0 10.212-2.482 13.026-6.865 3.338-5.198 3.168-11.759-.315-16.736z" fill="#8bb9ff"/></g></g></g></svg>