<svg id="Capa_1" enable-background="new 0 0 512 512" height="512" viewBox="0 0 512 512" width="512" xmlns="http://www.w3.org/2000/svg"><g><path d="m256.004 472c-8.284 0-15-6.716-15-15v-72c0-8.284 6.716-15 15-15s15 6.716 15 15v72c0 8.284-6.716 15-15 15z" fill="#0052be"/><g><path d="m256.004 370v102c8.284 0 15-6.716 15-15v-72c0-8.284-6.716-15-15-15z" fill="#00337a"/></g><path d="m256.004 390c-90.981 0-165-74.019-165-165 0-8.284 6.716-15 15-15h300c8.284 0 15 6.716 15 15 0 90.981-74.018 165-165 165zm-134.172-150c7.487 67.405 64.804 120 134.172 120 69.369 0 126.686-52.595 134.172-120z" fill="#2681ff"/><g><path d="m406.004 210h-150v30h134.172c-7.486 67.405-64.803 120-134.172 120v30c90.981 0 165-74.019 165-165 0-8.284-6.716-15-15-15z" fill="#0052be"/></g><g><path d="m361.004 120-15-15 13.924-15c-5.076-35.328-27.799-65.03-58.924-79.855l-15 13.855-15-22.924c-4.901-.704-9.907-1.076-15-1.076s-10.099.372-15 1.076l-15 22.924-15-13.855c-31.125 14.825-53.848 44.527-58.924 79.855l8.924 15-10 15v30l10 15-10 15v45h210v-45l-15-15 15-15z" fill="#bceaf9"/><g><g><path d="m361.004 120-15-15 13.924-15c-5.076-35.328-27.799-65.03-58.924-79.855l-15 13.855-15-22.924c-4.901-.704-9.907-1.076-15-1.076v225h105v-45l-15-15 15-15z" fill="#8bb9ff"/></g></g><path d="m306.004 165c0 8.284 6.716 15 15 15h40v-30h-40c-8.284 0-15 6.716-15 15z" fill="#4793ff"/><path d="m306.004 105c0 8.284 6.716 15 15 15h40v-15c0-5.093-.372-10.099-1.076-15h-38.924c-8.284 0-15 6.716-15 15z" fill="#4793ff"/><path d="m211.004 165c0-8.284-6.716-15-15-15h-45v30h45c8.284 0 15-6.716 15-15z" fill="#8bb9ff"/><path d="m211.004 105c0-8.284-6.716-15-15-15h-43.924c-.704 4.901-1.076 9.907-1.076 15v15h45c8.284 0 15-6.716 15-15z" fill="#8bb9ff"/><path d="m286.004 55c8.284 0 15-6.716 15-15v-29.855c-9.329-4.444-19.412-7.547-30-9.069v38.924c0 8.284 6.716 15 15 15z" fill="#4793ff"/><path d="m226.004 55c8.284 0 15-6.716 15-15v-38.924c-10.588 1.521-20.671 4.625-30 9.069v29.855c0 8.284 6.716 15 15 15z" fill="#8bb9ff"/></g><path d="m346.004 512h-180c-8.284 0-15-6.716-15-15 0-24.853 20.147-45 45-45h120c24.853 0 45 20.147 45 45 0 8.284-6.716 15-15 15z" fill="#bceaf9"/><path d="m151.004 225c0 57.897 47.103 105 105 105s105-47.103 105-105z" fill="#8bb9ff"/><g><path d="m256.004 225v105c57.897 0 105-47.103 105-105z" fill="#4793ff"/></g><path d="m449.685 183.64c-3.839 0-7.678-1.464-10.606-4.394-5.858-5.858-5.858-15.355 0-21.213 29.242-29.243 29.242-76.824 0-106.066-5.858-5.858-5.858-15.355 0-21.213 5.857-5.858 15.355-5.858 21.213 0 40.939 40.939 40.939 107.553 0 148.492-2.929 2.929-6.768 4.394-10.607 4.394z" fill="#e2dff4"/><path d="m407.258 141.213c-3.839 0-7.678-1.464-10.606-4.394-5.858-5.858-5.858-15.355 0-21.213 2.833-2.833 4.394-6.6 4.394-10.607s-1.561-7.773-4.394-10.607c-5.858-5.858-5.858-15.355 0-21.213 5.857-5.858 15.355-5.858 21.213 0 17.546 17.545 17.546 46.094 0 63.64-2.929 2.93-6.768 4.394-10.607 4.394z" fill="#e2dff4"/><path d="m62.324 183.64c-3.839 0-7.678-1.464-10.606-4.394-19.807-19.805-30.714-46.173-30.714-74.246s10.907-54.441 30.713-74.246c5.858-5.858 15.355-5.858 21.213 0s5.858 15.355 0 21.213c-14.139 14.139-21.926 32.973-21.926 53.033s7.787 38.894 21.926 53.033c5.858 5.858 5.858 15.355 0 21.213-2.928 2.929-6.767 4.394-10.606 4.394z" fill="#f9f9f9"/><path d="m104.75 141.213c-3.839 0-7.678-1.464-10.606-4.394-17.546-17.545-17.546-46.094 0-63.64 5.857-5.858 15.355-5.858 21.213 0s5.858 15.355 0 21.213c-2.833 2.833-4.394 6.6-4.394 10.607s1.561 7.773 4.394 10.607c5.858 5.858 5.858 15.355 0 21.213-2.929 2.93-6.768 4.394-10.607 4.394z" fill="#f9f9f9"/><g><path d="m449.685 183.64c-3.839 0-7.678-1.464-10.606-4.394-5.858-5.858-5.858-15.355 0-21.213 29.242-29.243 29.242-76.824 0-106.066-5.858-5.858-5.858-15.355 0-21.213 5.857-5.858 15.355-5.858 21.213 0 40.939 40.939 40.939 107.553 0 148.492-2.929 2.929-6.768 4.394-10.607 4.394z" fill="#e2dff4"/><path d="m407.258 141.213c-3.839 0-7.678-1.464-10.606-4.394-5.858-5.858-5.858-15.355 0-21.213 2.833-2.833 4.394-6.6 4.394-10.607s-1.561-7.773-4.394-10.607c-5.858-5.858-5.858-15.355 0-21.213 5.857-5.858 15.355-5.858 21.213 0 17.546 17.545 17.546 46.094 0 63.64-2.929 2.93-6.768 4.394-10.607 4.394z" fill="#e2dff4"/><path d="m62.324 183.64c-3.839 0-7.678-1.464-10.606-4.394-19.807-19.805-30.714-46.173-30.714-74.246s10.907-54.441 30.713-74.246c5.858-5.858 15.355-5.858 21.213 0s5.858 15.355 0 21.213c-14.139 14.139-21.926 32.973-21.926 53.033s7.787 38.894 21.926 53.033c5.858 5.858 5.858 15.355 0 21.213-2.928 2.929-6.767 4.394-10.606 4.394z" fill="#f9f9f9"/><path d="m104.75 141.213c-3.839 0-7.678-1.464-10.606-4.394-17.546-17.545-17.546-46.094 0-63.64 5.857-5.858 15.355-5.858 21.213 0s5.858 15.355 0 21.213c-2.833 2.833-4.394 6.6-4.394 10.607s1.561 7.773 4.394 10.607c5.858 5.858 5.858 15.355 0 21.213-2.929 2.93-6.768 4.394-10.607 4.394z" fill="#f9f9f9"/><g><path d="m316.004 452h-60v60h90c8.284 0 15-6.716 15-15 0-24.853-20.147-45-45-45z" fill="#8bb9ff"/></g></g></g></svg>