<svg id="Capa_1" enable-background="new 0 0 512 512" height="512" viewBox="0 0 512 512" width="512" xmlns="http://www.w3.org/2000/svg"><g><path d="m376 512h-80c-30.327 0-55-24.673-55-55v-30c0-8.284 6.716-15 15-15s15 6.716 15 15v30c0 13.785 11.215 25 25 25h80c13.785 0 25-11.215 25-25v-60c0-8.284 6.716-15 15-15s15 6.716 15 15v60c0 30.327-24.673 55-55 55z" fill="#0052be"/><g><path d="m416 382c-8.284 0-15 6.716-15 15v60c0 13.785-11.215 25-25 25h-80c-13.785 0-25-11.215-25-25v-30c0-8.284-6.716-15-15-15v82.69c10.036 10.645 24.25 17.31 40 17.31h80c30.327 0 55-24.673 55-55v-60c0-8.284-6.716-15-15-15z" fill="#00337a"/></g><g><path d="m511 275-30 20v-25c0-124.065-100.935-225-225-225s-225 100.935-225 225v25l-30-20v-5c0-68.113 26.524-132.149 74.688-180.312 48.163-48.164 112.199-74.688 180.312-74.688s132.149 26.524 180.312 74.688c48.164 48.163 74.688 112.199 74.688 180.312z" fill="#0052be"/></g><g><path d="m436.312 89.688c-48.163-48.164-112.199-74.688-180.312-74.688v30c124.065 0 225 100.935 225 225v25l30-20v-5c0-68.113-26.524-132.149-74.688-180.312z" fill="#00337a"/></g><g><path d="m256 0c-43.502 0-84.601 10.393-121.027 28.759-7.681 3.873-10.498 13.433-6.198 20.882l15.082 26.123c3.964 6.867 12.573 9.433 19.68 5.917 27.919-13.812 59.263-21.681 92.463-21.681s64.544 7.869 92.462 21.681c7.107 3.516 15.716.95 19.68-5.917l15.082-26.123c4.301-7.449 1.483-17.01-6.198-20.882-36.425-18.366-77.524-28.759-121.026-28.759z" fill="#bceaf9"/></g><g><path d="m377.027 28.759c-36.426-18.366-77.525-28.759-121.027-28.759v60c33.2 0 64.544 7.87 92.462 21.681 7.107 3.516 15.716.95 19.68-5.917l15.082-26.123c4.301-7.45 1.484-17.01-6.197-20.882z" fill="#8bb9ff"/></g><path d="m91 365h-75c-8.284 0-15-6.716-15-15v-75h90z" fill="#2681ff"/><path d="m121 435c-33.137 0-60-26.863-60-60v-110c0-33.137 26.863-60 60-60 8.284 0 15 6.716 15 15v200c0 8.284-6.716 15-15 15z" fill="#bceaf9"/><g><path d="m421 275h90v75c0 8.284-6.716 15-15 15h-75z" fill="#0052be"/><path d="m376 420v-200c0-8.284 6.716-15 15-15 33.137 0 60 26.863 60 60v110c0 33.137-26.863 60-60 60-8.284 0-15-6.716-15-15z" fill="#8bb9ff"/></g><path d="m256 457c-16.542 0-30-13.458-30-30s13.458-30 30-30 30 13.458 30 30-13.458 30-30 30z" fill="#bceaf9"/><g><g><path d="m256 397v60c16.542 0 30-13.458 30-30s-13.458-30-30-30z" fill="#8bb9ff"/></g></g></g></svg>