<svg id="Capa_1" enable-background="new 0 0 512 512" height="512" viewBox="0 0 512 512" width="512" xmlns="http://www.w3.org/2000/svg"><g><circle cx="256" cy="256" fill="#0052be" r="256"/><path d="m256 0v512c141.385 0 256-114.615 256-256s-114.615-256-256-256z" fill="#00337a"/><g><path d="m256 101c-52.383 0-95 42.617-95 95v45h30v-45c0-35.841 29.159-65 65-65s65 29.159 65 65v45h30v-45c0-52.383-42.617-95-95-95z" fill="#f9f9f9"/><path d="m256 101v30c35.841 0 65 29.159 65 65v45h30v-45c0-52.383-42.617-95-95-95z" fill="#e2dff4"/><path d="m356 391h-200c-8.284 0-15-6.716-15-15v-135c0-8.284 6.716-15 15-15h200c8.284 0 15 6.716 15 15v135c0 8.284-6.716 15-15 15z" fill="#fff16b"/><path d="m356 226h-100v165h100c8.284 0 15-6.716 15-15v-135c0-8.284-6.716-15-15-15z" fill="#ffb454"/><path d="m256 338.5c-8.284 0-15-6.716-15-15v-30c0-8.284 6.716-15 15-15s15 6.716 15 15v30c0 8.284-6.716 15-15 15z" fill="#ffb454"/><path d="m271 323.5v-30c0-8.284-6.716-15-15-15v60c8.284 0 15-6.716 15-15z" fill="#ff7d47"/></g></g></svg>