<svg id="Capa_1" enable-background="new 0 0 512 512" height="512" viewBox="0 0 512 512" width="512" xmlns="http://www.w3.org/2000/svg"><g><g><g><path d="m336 0h-220c-30.327 0-55 24.673-55 55v402c0 30.327 24.673 55 55 55h280c30.327 0 55-24.673 55-55v-342z" fill="#fff16b"/><g><path d="m336 0h-80v512h140c30.327 0 55-24.673 55-55v-342z" fill="#ffb454"/></g><path d="m346.606 4.394c-2.813-2.814-6.628-4.394-10.606-4.394v100c0 8.284 6.716 15 15 15h100c0-3.979-1.581-7.794-4.394-10.606z" fill="#ff7d47"/></g></g><g><path d="m375.999 371c-1.378 0-2.764-.189-4.12-.577l-70-20c-6.44-1.84-10.879-7.726-10.879-14.423v-60c0-6.697 4.439-12.583 10.879-14.423l70-20c4.525-1.296 9.396-.387 13.154 2.447 3.758 2.835 5.967 7.269 5.967 11.976v100c0 4.707-2.209 9.141-5.967 11.976-2.633 1.985-5.81 3.024-9.034 3.024z" fill="#0052be"/><g><path d="m291 306v30c0 6.697 4.439 12.583 10.879 14.423l70 20c1.356.388 2.742.577 4.12.577 3.224 0 6.401-1.039 9.034-3.024 3.758-2.835 5.967-7.269 5.967-11.976v-50z" fill="#00337a"/></g><path d="m286 391h-130c-19.299 0-35-15.701-35-35v-100c0-19.299 15.701-35 35-35h130c19.299 0 35 15.701 35 35v100c0 19.299-15.701 35-35 35z" fill="#2681ff"/><g><path d="m121 306v50c0 19.299 15.701 35 35 35h130c19.299 0 35-15.701 35-35v-50z" fill="#0052be"/></g><path d="m236 321h-30c-8.284 0-15-6.716-15-15s6.716-15 15-15h30c8.284 0 15 6.716 15 15s-6.716 15-15 15z" fill="#0052be"/></g><g><g><path d="m206 321h30c8.284 0 15-6.716 15-15h-60c0 8.284 6.716 15 15 15z" fill="#00337a"/></g></g></g></svg>