<svg id="Capa_1" enable-background="new 0 0 512 512" height="512" viewBox="0 0 512 512" width="512" xmlns="http://www.w3.org/2000/svg"><g><circle cx="256" cy="256" fill="#0052be" r="256"/><path d="m256 0v512c141.385 0 256-114.615 256-256s-114.615-256-256-256z" fill="#00337a"/><g><path d="m256 397.472c-3.839 0-7.678-1.464-10.606-4.394l-128.68-128.68c-16.582-16.581-25.714-38.627-25.714-62.078 0-23.45 9.132-45.497 25.714-62.078 16.582-16.582 38.628-25.714 62.078-25.714s45.497 9.132 62.079 25.714l15.129 15.129 15.129-15.129c16.582-16.582 38.628-25.714 62.079-25.714 23.45 0 45.497 9.132 62.078 25.714 16.582 16.582 25.714 38.629 25.714 62.078 0 23.45-9.132 45.497-25.714 62.078l-128.68 128.68c-2.928 2.929-6.767 4.394-10.606 4.394z" fill="#ff6b6b"/></g><g><path d="m395.286 140.242c-16.582-16.582-38.628-25.714-62.078-25.714s-45.497 9.132-62.079 25.714l-15.129 15.129v242.101c3.839 0 7.678-1.464 10.606-4.394l128.68-128.68c16.582-16.581 25.714-38.627 25.714-62.078 0-23.449-9.132-45.496-25.714-62.078z" fill="#ff1f3d"/></g></g></svg>