<svg id="Capa_1" enable-background="new 0 0 512 512" height="512" viewBox="0 0 512 512" width="512" xmlns="http://www.w3.org/2000/svg"><g><circle cx="256" cy="256" fill="#ff6b6b" r="256"/><path d="m512 256h-512c0 141.385 114.615 256 256 256s256-114.615 256-256z" fill="#ff1f3d"/><path d="m395.603 244.477-120-100c-4.471-3.726-10.691-4.529-15.965-2.061-5.271 2.469-8.638 7.764-8.638 13.584v67.975l-95.397-79.498c-4.47-3.726-10.692-4.529-15.965-2.061-5.271 2.469-8.638 7.764-8.638 13.584v200c0 5.82 3.367 11.115 8.638 13.584 2.03.951 4.201 1.416 6.359 1.416 3.445 0 6.856-1.186 9.605-3.477l95.398-79.497v67.974c0 5.82 3.367 11.115 8.638 13.584 2.03.951 4.201 1.416 6.359 1.416 3.445 0 6.856-1.186 9.605-3.477l120-100c3.42-2.85 5.397-7.072 5.397-11.523s-1.977-8.673-5.396-11.523z" fill="#f9f9f9"/><path d="m131 356c0 5.82 3.367 11.115 8.638 13.584 2.03.951 4.201 1.416 6.359 1.416 3.445 0 6.856-1.186 9.605-3.477l95.398-79.497v67.974c0 5.82 3.367 11.115 8.638 13.584 2.03.951 4.201 1.416 6.359 1.416 3.445 0 6.856-1.186 9.605-3.477l120-100c3.42-2.85 5.397-7.072 5.397-11.523h-269.999z" fill="#e2dff4"/></g></svg>