<svg id="Capa_1" enable-background="new 0 0 512 512" height="512" viewBox="0 0 512 512" width="512" xmlns="http://www.w3.org/2000/svg"><g><g fill="#bceaf9"><path d="m356 512h-60c-8.284 0-15-6.716-15-15v-302c0-8.284 6.716-15 15-15h60c8.284 0 15 6.716 15 15v302c0 8.284-6.716 15-15 15z"/><path d="m356 90h-60c-8.284 0-15-6.716-15-15s6.716-15 15-15h60c8.284 0 15 6.716 15 15s-6.716 15-15 15z"/><path d="m356 30h-60c-8.284 0-15-6.716-15-15s6.716-15 15-15h60c8.284 0 15 6.716 15 15s-6.716 15-15 15z"/></g><path d="m76 270h-60c-8.284 0-15-6.716-15-15s6.716-15 15-15h60c8.284 0 15 6.716 15 15s-6.716 15-15 15z" fill="#fff16b"/><g><g fill="#f9f9f9"><path d="m216 512h-60c-8.284 0-15-6.716-15-15v-62c0-8.284 6.716-15 15-15h60c8.284 0 15 6.716 15 15v62c0 8.284-6.716 15-15 15z"/><path d="m216 330h-60c-8.284 0-15-6.716-15-15s6.716-15 15-15h60c8.284 0 15 6.716 15 15s-6.716 15-15 15z"/><path d="m216 390h-60c-8.284 0-15-6.716-15-15s6.716-15 15-15h60c8.284 0 15 6.716 15 15s-6.716 15-15 15z"/><path d="m216 270h-60c-8.284 0-15-6.716-15-15s6.716-15 15-15h60c8.284 0 15 6.716 15 15s-6.716 15-15 15z"/><path d="m216 210h-60c-8.284 0-15-6.716-15-15s6.716-15 15-15h60c8.284 0 15 6.716 15 15s-6.716 15-15 15z"/></g><g fill="#e2dff4"><path d="m216 512c8.284 0 15-6.716 15-15v-62c0-8.284-6.716-15-15-15h-30v92z"/><path d="m216 330c8.284 0 15-6.716 15-15s-6.716-15-15-15h-30v30z"/><path d="m216 390c8.284 0 15-6.716 15-15s-6.716-15-15-15h-30v30z"/><path d="m231 255c0-8.284-6.716-15-15-15h-30v30h30c8.284 0 15-6.716 15-15z"/><path d="m231 195c0-8.284-6.716-15-15-15h-30v30h30c8.284 0 15-6.716 15-15z"/></g></g><path d="m76 210h-60c-8.284 0-15-6.716-15-15s6.716-15 15-15h60c8.284 0 15 6.716 15 15s-6.716 15-15 15z" fill="#fff16b"/><path d="m76 150h-60c-8.284 0-15-6.716-15-15s6.716-15 15-15h60c8.284 0 15 6.716 15 15s-6.716 15-15 15z" fill="#fff16b"/><path d="m496 210h-60c-8.284 0-15-6.716-15-15s6.716-15 15-15h60c8.284 0 15 6.716 15 15s-6.716 15-15 15z" fill="#ff6b6b"/><path d="m496 150h-60c-8.284 0-15-6.716-15-15s6.716-15 15-15h60c8.284 0 15 6.716 15 15s-6.716 15-15 15z" fill="#ff6b6b"/><path d="m356 150h-60c-8.284 0-15-6.716-15-15s6.716-15 15-15h60c8.284 0 15 6.716 15 15s-6.716 15-15 15z" fill="#bceaf9"/><g fill="#8bb9ff"><path d="m356 512c8.284 0 15-6.716 15-15v-302c0-8.284-6.716-15-15-15h-30v332z"/><path d="m371 75c0-8.284-6.716-15-15-15h-30v30h30c8.284 0 15-6.716 15-15z"/><path d="m371 15c0-8.284-6.716-15-15-15h-30v30h30c8.284 0 15-6.716 15-15z"/><path d="m356 150c8.284 0 15-6.716 15-15s-6.716-15-15-15h-30v30z"/></g><path d="m76 512h-60c-8.284 0-15-6.716-15-15v-182c0-8.284 6.716-15 15-15h60c8.284 0 15 6.716 15 15v182c0 8.284-6.716 15-15 15z" fill="#fff16b"/><g fill="#ffb454"><path d="m76 270c8.284 0 15-6.716 15-15s-6.716-15-15-15h-30v30z"/><path d="m91 195c0-8.284-6.716-15-15-15h-30v30h30c8.284 0 15-6.716 15-15z"/><path d="m91 135c0-8.284-6.716-15-15-15h-30v30h30c8.284 0 15-6.716 15-15z"/><path d="m76 512c8.284 0 15-6.716 15-15v-182c0-8.284-6.716-15-15-15h-30v212z"/></g><path d="m496 512h-60c-8.284 0-15-6.716-15-15v-242c0-8.284 6.716-15 15-15h60c8.284 0 15 6.716 15 15v242c0 8.284-6.716 15-15 15z" fill="#ff6b6b"/><g fill="#ff1f3d"><path d="m511 195c0-8.284-6.716-15-15-15h-30v30h30c8.284 0 15-6.716 15-15z"/><path d="m511 135c0-8.284-6.716-15-15-15h-30v30h30c8.284 0 15-6.716 15-15z"/><path d="m496 512c8.284 0 15-6.716 15-15v-242c0-8.284-6.716-15-15-15h-30v272z"/></g></g></svg>