<?xml version="1.0" ?><!DOCTYPE svg  PUBLIC '-//W3C//DTD SVG 1.1//EN'  'http://www.w3.org/Graphics/SVG/1.1/DTD/svg11.dtd'><svg height="512px" id="Untitled-P%E1gina%201" style="background-color:#ffffff00" version="1.1" viewBox="0 0 512 512" width="512px" xml:space="preserve" xmlns="http://www.w3.org/2000/svg" xmlns:xlink="http://www.w3.org/1999/xlink"><g id="Camada%201"><g><g><path d="M 256.0592 15.5189 L 255.955 15.5189 L 255.955 15.5 C 123.085 15.5 15 123.3901 15 255.9929 C 15 308.5873 32.014 357.3517 60.8975 396.9544 L 30.8639 486.2897 L 123.4873 456.7648 C 161.5853 481.9214 207.0523 496.4999 256.0592 496.4999 C 388.9341 496.4999 497 388.6145 497 255.9929 C 497 123.3901 388.9341 15.5189 256.0592 15.5189 ZM 396.3312 355.1038 C 390.4959 371.5002 367.4288 385.1009 348.9996 389.0254 C 336.4107 391.7219 319.9789 393.8706 264.5969 370.924 C 193.7677 341.673 148.1493 269.8533 144.595 265.197 C 141.178 260.5075 115.9907 227.1621 115.9907 192.6689 C 115.9907 158.1476 133.5679 141.3356 140.6338 134.1385 C 146.4361 128.1882 156.0765 125.5152 165.2957 125.5152 C 168.2726 125.5152 170.9182 125.6475 173.3697 125.7844 C 180.4452 126.0914 183.99 126.4975 188.6327 137.6756 C 194.4397 151.6684 208.6472 186.1614 210.3131 189.6749 C 212.0358 193.2309 213.7112 198.0337 211.3164 202.6995 C 209.0448 207.507 207.0523 209.6227 203.5454 213.7312 C 199.9817 217.8399 196.56 220.9426 193.0388 225.3392 C 189.7686 229.1314 186.1102 233.2541 190.2229 240.3142 C 194.3072 247.2327 208.4958 270.3067 229.3006 288.8094 C 256.2579 312.6864 278.0474 320.3368 285.842 323.5764 C 291.6443 326.0133 298.5587 325.4088 302.8371 320.8941 C 308.2229 315.109 314.8581 305.4892 321.6589 296.0254 C 326.5194 289.2108 332.5583 288.3843 338.9569 290.7551 C 345.469 293.0219 379.8758 310.0041 386.97 313.5459 C 394.0454 317.0594 398.7118 318.7406 400.4156 321.763 C 402.1099 324.7099 402.1099 338.7073 396.3312 355.1038 Z" fill="none" stroke="#39ce35" stroke-width="15"/></g><g><path d="M 256.0592 15.5189 L 255.955 15.5189 L 255.955 15.5 C 123.085 15.5 15 123.3901 15 255.9929 C 15 308.5873 32.014 357.3517 60.8975 396.9544 L 30.8639 486.2897 L 123.4873 456.7648 C 161.5853 481.9214 207.0523 496.5 256.0592 496.5 C 388.9341 496.5 497 388.6145 497 255.9929 C 497 123.3901 388.9341 15.5189 256.0592 15.5189 ZM 396.3312 355.1038 C 390.4959 371.5002 367.4288 385.1009 348.9996 389.0254 C 336.4107 391.7219 319.9789 393.8706 264.5969 370.924 C 193.7677 341.673 148.1493 269.8533 144.595 265.197 C 141.178 260.5075 115.9907 227.1621 115.9907 192.6689 C 115.9907 158.1476 133.5679 141.3356 140.6338 134.1385 C 146.4361 128.1882 156.0765 125.5152 165.2957 125.5152 C 168.2726 125.5152 170.9182 125.6475 173.3697 125.7844 C 180.4452 126.0914 183.99 126.4975 188.6327 137.6756 C 194.4397 151.6684 208.6472 186.1614 210.3131 189.6749 C 212.0358 193.2309 213.7112 198.0337 211.3164 202.6995 C 209.0448 207.507 207.0523 209.6227 203.5454 213.7312 C 199.9817 217.8399 196.56 220.9426 193.0388 225.3392 C 189.7686 229.1314 186.1102 233.2541 190.2229 240.3142 C 194.3072 247.2327 208.4958 270.3067 229.3006 288.8094 C 256.2579 312.6864 278.0474 320.3368 285.842 323.5764 C 291.6443 326.0133 298.5587 325.4088 302.8371 320.8941 C 308.2229 315.109 314.8581 305.4892 321.6589 296.0254 C 326.5194 289.2108 332.5583 288.3843 338.9569 290.7551 C 345.469 293.0219 379.8758 310.0041 386.97 313.5459 C 394.0454 317.0594 398.7118 318.7406 400.4156 321.763 C 402.1099 324.7099 402.1099 338.7073 396.3312 355.1038 Z" fill="none" stroke="#39ce35" stroke-width="15"/></g><g><path d="M 256.0592 15.5189 L 255.955 15.5189 L 255.955 15.5 C 123.085 15.5 15 123.3901 15 255.9929 C 15 308.5873 32.014 357.3517 60.8975 396.9544 L 30.8639 486.2897 L 123.4873 456.7648 C 161.5853 481.9214 207.0523 496.4999 256.0592 496.4999 C 388.9341 496.4999 497 388.6145 497 255.9929 C 497 123.3901 388.9341 15.5189 256.0592 15.5189 ZM 396.3312 355.1038 C 390.4959 371.5002 367.4288 385.1009 348.9996 389.0254 C 336.4107 391.7219 319.9789 393.8706 264.5969 370.924 C 193.7677 341.673 148.1493 269.8533 144.595 265.197 C 141.178 260.5075 115.9907 227.1621 115.9907 192.6689 C 115.9907 158.1476 133.5679 141.3356 140.6338 134.1385 C 146.4361 128.1882 156.0765 125.5152 165.2957 125.5152 C 168.2726 125.5152 170.9182 125.6475 173.3697 125.7844 C 180.4452 126.0914 183.99 126.4975 188.6327 137.6756 C 194.4397 151.6684 208.6472 186.1614 210.3131 189.6749 C 212.0358 193.2309 213.7112 198.0337 211.3164 202.6995 C 209.0448 207.507 207.0523 209.6227 203.5454 213.7312 C 199.9817 217.8399 196.56 220.9426 193.0388 225.3392 C 189.7686 229.1314 186.1102 233.2541 190.2229 240.3142 C 194.3072 247.2327 208.4958 270.3067 229.3006 288.8094 C 256.2579 312.6864 278.0474 320.3368 285.842 323.5764 C 291.6443 326.0133 298.5587 325.4088 302.8371 320.8941 C 308.2229 315.109 314.8581 305.4892 321.6589 296.0254 C 326.5194 289.2108 332.5583 288.3843 338.9569 290.7551 C 345.469 293.0219 379.8758 310.0041 386.97 313.5459 C 394.0454 317.0594 398.7118 318.7406 400.4156 321.763 C 402.1099 324.7099 402.1099 338.7073 396.3312 355.1038 Z" fill="none" stroke="#ffffff" stroke-width="4"/></g></g></g></svg>