<svg height="512pt" viewBox="0 0 512 512" width="512pt" xmlns="http://www.w3.org/2000/svg"><path d="m256 0-256 182.5v88.5h91v-42.300781l165-117.898438 165 117.898438v42.300781h91v-88.5zm0 0" fill="#ff637b"/><path d="m256 74.199219-195 138.902343v298.898438h390v-298.898438zm0 0" fill="#fde4e4"/><path d="m512 182.5v88.5h-91v-42.300781l-165-117.898438v-110.800781zm0 0" fill="#e63950"/><path d="m451 213.101562v298.898438h-195v-437.800781zm0 0" fill="#fcced3"/><path d="m241 316h30v196h-30zm0 0" fill="#76e2f8"/><path d="m365.5 347.800781-34.5 34.5v129.699219h-30v-142.300781l43.199219-43.199219zm0 0" fill="#28d0f7"/><path d="m181 512v-129.699219l-34.5-34.5 21.300781-21.300781 43.199219 43.199219v142.300781zm0 0" fill="#76e2f8"/><path d="m256 316h15v196h-15zm0 0" fill="#28d0f7"/><path d="m256 241c-24.902344 0-45 20.097656-45 45s20.097656 45 45 45 45-20.097656 45-45-20.097656-45-45-45zm0 0" fill="#9bfcff"/><path d="m136 361c-24.8125 0-45-20.1875-45-45s20.1875-45 45-45 45 20.1875 45 45-20.1875 45-45 45zm0 0" fill="#9bfcff"/><g fill="#76e2f8"><path d="m376 361c-24.8125 0-45-20.1875-45-45s20.1875-45 45-45 45 20.1875 45 45-20.1875 45-45 45zm0 0"/><path d="m301 286c0 24.902344-20.097656 45-45 45v-90c24.902344 0 45 20.097656 45 45zm0 0"/></g></svg>