<svg height="512pt" viewBox="0 -16 512 512" width="512pt" xmlns="http://www.w3.org/2000/svg"><path d="m271 420h-211v-90h121v-120h90zm0 0" fill="#bbdcff"/><path d="m391 64.199219v111.601562l121 39.898438v-191.398438zm0 0" fill="#47568c"/><path d="m512 120v95.699219l-121-39.898438v-55.800781zm0 0" fill="#2c3b73"/><path d="m421 0v150l-14.097656 16.800781 14.097656 13.199219v60h-391v-150l22.5-12.300781s-19.800781-15.898438-22.5-17.699219v-60zm0 0" fill="#61729b"/><path d="m166 101.398438-26.699219 13.503906-5.703125-11.101563-6.898437-13.800781h-96.699219v-30h115.300781zm0 0" fill="#76e2f8"/><path d="m421 150-14.097656 16.800781 14.097656 13.199219v60h-391v-120h391zm0 0" fill="#47568c"/><path d="m15 300v150h76c0-52.175781 0-94.816406 0-150zm0 0" fill="#2c3b73"/><path d="m286 60c-24.902344 0-45 20.097656-45 45 0 5.398438.902344 10.199219 2.699219 15 6 17.402344 22.800781 30 42.300781 30 1.800781 0 3.601562 0 5.398438-.601562 10.503906-.898438 20.101562-6 27.003906-13.199219 4.496094-4.5 7.796875-9.898438 9.898437-16.199219 1.800781-4.5 2.699219-9.601562 2.699219-15 0-24.902344-20.097656-45-45-45zm0 0" fill="#9bfcff"/><path d="m208.300781 120c-6-17.402344-22.800781-30-42.300781-30-1.800781 0-3.601562 0-5.398438.601562-10.503906.898438-20.101562 6-27.003906 13.199219-4.496094 4.5-7.796875 9.898438-9.898437 16.199219-1.800781 4.5-2.699219 9.601562-2.699219 15 0 24.902344 20.097656 45 45 45 24.898438 0 45-20.097656 45-45 0-5.398438-.902344-10.199219-2.699219-15zm0 0" fill="#9bfcff"/><path d="m421 150v30h-114.300781l-20.699219-41.398438 26.699219-13.503906 5.703125 11.101563 6.898437 13.800781zm0 0" fill="#28d0f7"/><path d="m0 270h30v210h-30zm0 0" fill="#47568c"/><g fill="#76e2f8"><path d="m208.300781 120c1.796875 4.800781 2.699219 9.601562 2.699219 15 0 24.902344-20.097656 45-45 45s-45-20.097656-45-45c0-5.398438.902344-10.5 2.699219-15zm0 0"/><path d="m243.699219 120h84.601562c-2.101562 6.300781-5.402343 11.699219-9.902343 16.199219-6.898438 7.203125-16.5 12.300781-27 13.199219-1.796876.601562-3.597657.601562-5.398438.601562-19.5 0-36.300781-12.597656-42.300781-30zm0 0"/></g></svg>