<svg height="512pt" viewBox="-16 0 512 512" width="512pt" xmlns="http://www.w3.org/2000/svg"><g fill="#28d0f7"><path d="m319.539062 210h-64.539062v-30h55.460938l61.257812-40.839844 16.640625 24.960938zm0 0"/><path d="m255 240h150v30h-150zm0 0"/><path d="m373.183594 364.394531-34.394532-34.394531h-83.789062v-30h96.210938l43.183593 43.183594zm0 0"/></g><path d="m15 45h240v390h-240zm0 0" fill="#e0f4ff"/><path d="m135 45h120v390h-120zm0 0" fill="#bbdcff"/><path d="m226.199219 30h-164.097657l-62.101562 30v360l29.398438 30h209.101562l31.5-30v-360zm13.800781 360h-210v-300h210zm0 0" fill="#47568c"/><path d="m270 60v360l-31.5 30h-103.5v-60h105v-300h-105v-60h91.199219zm0 0" fill="#2c3b73"/><path d="m0 0v60h270v-60zm0 0" fill="#9bfcff"/><path d="m135 0h135v60h-135zm0 0" fill="#76e2f8"/><path d="m0 420v92h270v-92zm0 0" fill="#9bfcff"/><path d="m135 420h135v92h-135zm0 0" fill="#76e2f8"/><path d="m120 405h30v45h-30zm0 0" fill="#47568c"/><path d="m135 405h15v45h-15zm0 0" fill="#2c3b73"/><path d="m135 173.699219-75 75v81.300781h150v-81.300781zm0 0" fill="#ff637b"/><path d="m210 330h-75v-156.300781l75 75zm0 0" fill="#e63950"/><path d="m405 180c-24.8125 0-45-20.1875-45-45s20.1875-45 45-45 45 20.1875 45 45-20.1875 45-45 45zm0 0" fill="#76e2f8"/><path d="m435 300c-24.8125 0-45-20.1875-45-45s20.1875-45 45-45 45 20.1875 45 45-20.1875 45-45 45zm0 0" fill="#76e2f8"/><path d="m405 420c-24.8125 0-45-20.1875-45-45s20.1875-45 45-45 45 20.1875 45 45-20.1875 45-45 45zm0 0" fill="#76e2f8"/><path d="m120 270h30v60h-30zm0 0" fill="#47568c"/><path d="m135 270h15v60h-15zm0 0" fill="#2c3b73"/></svg>