<svg height="512pt" viewBox="0 0 512 512" width="512pt" xmlns="http://www.w3.org/2000/svg"><g fill="#28d0f7"><path d="m351.425781 211h-39.542969v-30h30.460938l61.257812-40.839844 16.644532 24.960938zm0 0"/><path d="m284.898438 241h151.984374v30h-151.984374zm0 0"/><path d="m405.070312 365.394531-34.398437-34.394531h-130.65625v-30h143.078125l43.1875 43.183594zm0 0"/></g><path d="m119.882812 436h90v76h-90zm0 0" fill="#bbdcff"/><path d="m164.882812 436h45v76h-45zm0 0" fill="#8cbbe5"/><path d="m239.882812 361.300781v89.699219h-150v-90h.902344l29.699219-30h74.101563l44.398437 30zm0 0" fill="#e0f4ff"/><path d="m238.984375 361 .898437.300781v89.699219h-75v-120h29.703126zm0 0" fill="#bbdcff"/><path d="m268.984375 37.898438c-29.699219-24.300782-66.300781-37.898438-104.101563-37.898438-11.699218 0-23.699218 1.199219-35.398437 3.601562-65.097656 13.796876-116.097656 67.898438-126.898437 133.296876-10.5 60 11.398437 118.5 58.199218 156.902343 16.5 13.5 27 32.699219 28.800782 53.398438l1.199218 13.800781h148.199219l1.199219-13.800781c1.5-21 11.101562-39.601563 26.402344-51.300781 40.199218-31.5 63.296874-78.898438 63.296874-129.898438 0-49.800781-22.199218-96.300781-60.898437-128.101562zm0 0" fill="#ffda2d"/><path d="m329.882812 166c0 51-23.097656 98.398438-63.296874 129.898438-15.300782 11.699218-24.902344 30.300781-26.402344 51.300781l-1.199219 13.800781h-74.101563v-361c37.800782 0 74.402344 13.597656 104.101563 37.898438 38.699219 31.800781 60.898437 78.300781 60.898437 128.101562zm0 0" fill="#fdbf00"/><path d="m436.882812 181c-24.8125 0-45-20.1875-45-45s20.1875-45 45-45c24.816407 0 45 20.1875 45 45s-20.183593 45-45 45zm0 0" fill="#76e2f8"/><path d="m466.882812 301c-24.8125 0-45-20.1875-45-45s20.1875-45 45-45c24.816407 0 45 20.1875 45 45s-20.183593 45-45 45zm0 0" fill="#76e2f8"/><path d="m436.882812 421c-24.8125 0-45-20.1875-45-45s20.1875-45 45-45c24.816407 0 45 20.1875 45 45s-20.183593 45-45 45zm0 0" fill="#76e2f8"/><path d="m235.382812 176.5-55.5 55.800781v68.699219h-30v-68.699219l-55.496093-55.800781 20.996093-21 49.5 49.199219 49.503907-49.199219zm0 0" fill="#fdbf00"/><path d="m179.882812 301h-15v-96.300781l49.503907-49.199219 20.996093 21-55.5 55.800781zm0 0" fill="#ff9100"/></svg>