<svg height="512pt" viewBox="-46 0 512 512" width="512pt" xmlns="http://www.w3.org/2000/svg"><g fill="#28d0f7"><path d="m259.5625 211h-94.539062v-30h85.457031l61.257812-40.839844 16.640625 24.960938zm0 0"/><path d="m165.023438 241h180v30h-180zm0 0"/><path d="m313.203125 366.394531-34.390625-34.394531h-113.789062v-30h126.210937l43.179687 43.183594zm0 0"/></g><path d="m210.023438 407c0 31.199219-13.800782 60.300781-37.5 80.398438-18.902344 15.902343-42.902344 24.601562-67.800782 24.601562-6 0-12.300781-.601562-18.300781-1.5-42.601563-7.5-77.402344-42.300781-84.902344-84.898438-5.699219-33.601562 4.800781-67.5 28.5-91.5v-33.101562l19.800781-14.101562-19.796874-15.898438v-30l23.398437-15.902344-23.398437-14.097656v-30l19.796874-17.699219-19.796874-12.300781v-75c0-41.695312 33.789062-76 75-76 41.398437 0 75 34.601562 75 76v258.101562c19.199218 19.496094 30 45.898438 30 72.898438zm0 0" fill="#fde4e4"/><path d="m172.523438 487.398438c23.699218-20.097657 37.5-49.199219 37.5-80.398438 0-27-10.800782-53.402344-30-72.898438v-258.101562c0-41.398438-33.601563-76-75-76v511.992188c24.789062-.066407 48.675781-8.757813 67.5-24.59375zm0 0" fill="#fcced3"/><path d="m30.023438 151h75v30h-75zm0 0" fill="#faaaaa"/><path d="m30.023438 211h75v30h-75zm0 0" fill="#faaaaa"/><path d="m30.023438 271h75v30h-75zm0 0" fill="#faaaaa"/><path d="m345.023438 181c-24.816407 0-45-20.1875-45-45s20.183593-45 45-45c24.8125 0 45 20.1875 45 45s-20.1875 45-45 45zm0 0" fill="#76e2f8"/><path d="m375.023438 301c-24.816407 0-45-20.1875-45-45s20.183593-45 45-45c24.8125 0 45 20.1875 45 45s-20.1875 45-45 45zm0 0" fill="#76e2f8"/><path d="m345.023438 422c-24.816407 0-45-20.1875-45-45s20.183593-45 45-45c24.8125 0 45 20.1875 45 45s-20.1875 45-45 45zm0 0" fill="#76e2f8"/><path d="m120.023438 363.558594v-302.558594h-30v302.585938c-17.558594 6.15625-30 22.679687-30 42.414062 0 24.898438 19.796874 44.699219 44.699218 45h.300782c24.898437 0 45-20.101562 45-45 0-19.636719-12.503907-36.277344-30-42.441406zm0 0" fill="#ff637b"/><path d="m150.023438 406c0-19.636719-12.503907-36.277344-30-42.441406v-302.558594h-15v390c24.898437 0 45-20.101562 45-45zm0 0" fill="#e63950"/></svg>