<svg height="512pt" viewBox="0 0 512 512" width="512pt" xmlns="http://www.w3.org/2000/svg"><g fill="#28d0f7"><path d="m337.5 211h99.5v30h-99.5zm0 0"/><path d="m437 361h-51.539062l-48.78125-32.519531 16.640624-24.960938 41.21875 27.480469h42.460938zm0 0"/><path d="m358.152344 157.695312-20.855469-21.5625 46.640625-45.132812h53.0625v30h-40.9375zm0 0"/></g><path d="m467 271c-24.8125 0-45-20.1875-45-45s20.1875-45 45-45 45 20.1875 45 45-20.1875 45-45 45zm0 0" fill="#76e2f8"/><path d="m467 391c-24.8125 0-45-20.1875-45-45s20.1875-45 45-45 45 20.1875 45 45-20.1875 45-45 45zm0 0" fill="#76e2f8"/><path d="m467 151c-24.8125 0-45-20.1875-45-45s20.1875-45 45-45 45 20.1875 45 45-20.1875 45-45 45zm0 0" fill="#76e2f8"/><path d="m360 0v421h-180l-14.097656 22.597656-15.902344-22.597656h-150v-60l40.800781-40.800781v-206.699219l-40.800781-52.5v-61zm0 0" fill="#47568c"/><path d="m180 0h180v421h-180zm0 0" fill="#2c3b73"/><path d="m150 61v120h150v-120zm0 0" fill="#ffda2d"/><path d="m150 211h60v30h-60zm0 0" fill="#bbdcff"/><path d="m240 211h60v30h-60zm0 0" fill="#8cbbe5"/><path d="m150 271h60v30h-60zm0 0" fill="#bbdcff"/><path d="m240 271h60v30h-60zm0 0" fill="#8cbbe5"/><path d="m150 331h60v30h-60zm0 0" fill="#bbdcff"/><path d="m240 331h60v30h-60zm0 0" fill="#8cbbe5"/><path d="m180 421v31c0 33-27 60-60 60s-60-27-60-60v-106h30v106c0 16.5 13.5 30 30 30s30-13.5 30-30v-31zm0 0" fill="#2c3b73"/><path d="m180 211h30v30h-30zm0 0" fill="#8cbbe5"/><path d="m180 271h30v30h-30zm0 0" fill="#8cbbe5"/><path d="m180 331h30v30h-30zm0 0" fill="#8cbbe5"/><path d="m180 61h120v120h-120zm0 0" fill="#fdbf00"/><path d="m120 361h-120v-300h120zm0 0" fill="#61729b"/></svg>