<svg height="512pt" viewBox="-31 0 512 512" width="512pt" xmlns="http://www.w3.org/2000/svg"><g fill="#28d0f7"><path d="m289.539062 211h-37.542968v-30h28.464844l61.257812-40.839844 16.640625 24.960938zm0 0"/><path d="m195 241h180v30h-180zm0 0"/><path d="m343.183594 365.394531-34.394532-34.394531h-113.789062v-30h126.210938l43.183593 43.183594zm0 0"/></g><path d="m186.300781 406 30 30-81.300781 76-75-69.699219v-246.300781h150v126.300781l-23.699219 23.699219 30 30zm0 0" fill="#e0f4ff"/><path d="m186.300781 406 30 30-81.300781 76v-316h75v126.300781l-23.699219 23.699219 30 30zm0 0" fill="#bbdcff"/><path d="m375 181c-24.8125 0-45-20.1875-45-45s20.1875-45 45-45 45 20.1875 45 45-20.1875 45-45 45zm0 0" fill="#76e2f8"/><path d="m405 301c-24.8125 0-45-20.1875-45-45s20.1875-45 45-45 45 20.1875 45 45-20.1875 45-45 45zm0 0" fill="#76e2f8"/><path d="m375 421c-24.8125 0-45-20.1875-45-45s20.1875-45 45-45 45 20.1875 45 45-20.1875 45-45 45zm0 0" fill="#76e2f8"/><path d="m0 0v211h270v-211zm135 121c-33 0-60-27-60-60h120c0 33-27 60-60 60zm0 0" fill="#47568c"/><path d="m270 0v211h-135v-90c33 0 60-27 60-60h-60v-61zm0 0" fill="#2c3b73"/></svg>