<svg height="512pt" viewBox="0 0 512 512" width="512pt" xmlns="http://www.w3.org/2000/svg"><g fill="#28d0f7"><path d="m349.539062 211h-64.539062v-30h55.460938l63.257812-40.839844 16.640625 24.960938zm0 0"/><path d="m330 241-15 30h122v-30zm0 0"/><path d="m383.210938 301h-68.210938l15 30h38.789062l36.394532 34.394531 21.210937-21.210937zm0 0"/></g><path d="m300 301h-270v15c0 40.199219 18 78.300781 48.601562 103.800781l-22.800781 92.199219h218.398438l-22.800781-92.199219c30.601562-25.5 48.601562-63.601562 48.601562-103.800781zm0 0" fill="#e0f4ff"/><path d="m300 91v180h-270v-180l50.097656-30h174c21.300782 12.898438 45 27.597656 45.902344 30zm0 0" fill="#e0f4ff"/><path d="m300 91v180h-135v-210h89.097656c21.300782 12.898438 45 27.597656 45.902344 30zm0 0" fill="#bbdcff"/><path d="m165 301h135v15c0 40.199219-18 78.300781-48.601562 103.800781l22.800781 92.199219h-109.199219zm0 0" fill="#bbdcff"/><path d="m437 181c-24.8125 0-45-20.1875-45-45s20.1875-45 45-45 45 20.1875 45 45-20.1875 45-45 45zm0 0" fill="#76e2f8"/><path d="m467 301c-24.8125 0-45-20.1875-45-45s20.1875-45 45-45 45 20.1875 45 45-20.1875 45-45 45zm0 0" fill="#76e2f8"/><path d="m437 421c-24.8125 0-45-20.1875-45-45s20.1875-45 45-45 45 20.1875 45 45-20.1875 45-45 45zm0 0" fill="#76e2f8"/><path d="m0 241v90h330v-90zm0 0" fill="#bbdcff"/><path d="m90 121h60v30h-60zm0 0" fill="#61729b"/><path d="m165 241h165v90h-165zm0 0" fill="#8cbbe5"/><path d="m30 0v91h270v-91zm0 0" fill="#bbdcff"/><path d="m165 0h135v91h-135zm0 0" fill="#8cbbe5"/></svg>