<svg height="512pt" viewBox="0 0 512 512" width="512pt" xmlns="http://www.w3.org/2000/svg"><path d="m30 466h30v46h-30zm0 0" fill="#47568c"/><path d="m270 466h30v46h-30zm0 0" fill="#2c3b73"/><path d="m330 421v60h-330v-60l44.699219-30h261.898437c12.601563 16.199219 23.402344 30 23.402344 30zm0 0" fill="#47568c"/><path d="m306.597656 391c12.601563 16.199219 23.402344 30 23.402344 30v60h-165v-90zm0 0" fill="#2c3b73"/><path d="m330 0v181l-27.597656 15h-272.402344l-30-15v-181zm0 0" fill="#61729b"/><path d="m330 211v210h-330v-210l30-15h272.402344zm0 0" fill="#61729b"/><path d="m351.539062 211h-36.539062v-30h27.460938l61.257812-40.839844 16.640625 24.960938zm0 0" fill="#28d0f7"/><path d="m315 241h122v30h-122zm0 0" fill="#28d0f7"/><path d="m0 181h330v30h-330zm0 0" fill="#47568c"/><path d="m405.183594 365.394531-34.394532-34.394531h-55.789062v-30h68.210938l43.183593 43.183594zm0 0" fill="#28d0f7"/><path d="m60 61h30v90h-30zm0 0" fill="#bbdcff"/><path d="m60 241h30v90h-30zm0 0" fill="#bbdcff"/><path d="m330 0v181l-27.597656 15h-137.402344v-196zm0 0" fill="#47568c"/><path d="m330 211v210h-165v-225h137.402344zm0 0" fill="#47568c"/><path d="m165 181h165v30h-165zm0 0" fill="#2c3b73"/><g fill="#76e2f8"><path d="m437 181c-24.8125 0-45-20.1875-45-45s20.1875-45 45-45 45 20.1875 45 45-20.1875 45-45 45zm0 0"/><path d="m467 301c-24.8125 0-45-20.1875-45-45s20.1875-45 45-45 45 20.1875 45 45-20.1875 45-45 45zm0 0"/><path d="m437 421c-24.8125 0-45-20.1875-45-45s20.1875-45 45-45 45 20.1875 45 45-20.1875 45-45 45zm0 0"/></g></svg>