<svg height="512pt" viewBox="0 0 512 512" width="512pt" xmlns="http://www.w3.org/2000/svg"><g fill="#28d0f7"><path d="m369.5 211h67.5v30h-67.5zm0 0"/><path d="m437 361h-66.210938l-94.394531-94.394531 21.210938-21.210938 85.605469 85.605469h53.789062zm0 0"/><path d="m362.203125 155.234375-24.960937-16.640625 31.730468-47.59375h68.027344v30h-51.972656zm0 0"/></g><path d="m467 271c-24.8125 0-45-20.1875-45-45s20.1875-45 45-45 45 20.1875 45 45-20.1875 45-45 45zm0 0" fill="#76e2f8"/><path d="m467 391c-24.8125 0-45-20.1875-45-45s20.1875-45 45-45 45 20.1875 45 45-20.1875 45-45 45zm0 0" fill="#76e2f8"/><path d="m467 151c-24.8125 0-45-20.1875-45-45s20.1875-45 45-45 45 20.1875 45 45-20.1875 45-45 45zm0 0" fill="#76e2f8"/><path d="m152 256h90v64.5h-90zm0 0" fill="#47568c"/><path d="m32 256h30v120h-30zm0 0" fill="#47568c"/><path d="m197 256h45v64.5h-45zm0 0" fill="#2c3b73"/><path d="m328.699219 0h-263.398438l-65.300781 271h396.199219zm0 0" fill="#ffda2d"/><path d="m396.199219 271h-199.199219v-271h131.699219zm0 0" fill="#fdbf00"/><path d="m313.398438 421s-19.199219 19.800781-28.5 30h-185.097657l-18.902343-30c-.898438-29.402344 8.402343-57 27.003906-78.601562 22.199218-26.398438 54.597656-41.398438 89.097656-41.398438s66.898438 15 89.097656 41.398438c18.601563 21.902343 28.203125 50.101562 27.300782 78.601562zm0 0" fill="#e0f4ff"/><path d="m313.398438 421c0 5.097656-.597657 10.5-1.5 15.898438l-9.296876 56.5h-211.203124l-9-54.398438c-.898438-6-1.5-12-1.5-18zm0 0" fill="#bbdcff"/><path d="m284.898438 451h-87.898438v-150c34.5 0 66.898438 15 89.097656 41.398438 18.601563 21.902343 28.203125 50.101562 27.300782 78.601562 0 0-19.199219 19.800781-28.5 30zm0 0" fill="#bbdcff"/><path d="m313.398438 421c0 5.097656-.597657 10.5-1.5 15.898438l-9.296876 56.5h-105.601562v-72.398438zm0 0" fill="#8cbbe5"/><path d="m182 361h30v30h-30zm0 0" fill="#25d9f8"/><path d="m197 361h15v30h-15zm0 0" fill="#00c0f1"/><path d="m62 482h270v30h-270zm0 0" fill="#e0f4ff"/><path d="m197 482h135v30h-135zm0 0" fill="#bbdcff"/></svg>