<svg height="512pt" viewBox="0 0 512 512" width="512pt" xmlns="http://www.w3.org/2000/svg"><path d="m151 241 12.425781 31.070312h7.058594l10.515625-31.070312v-81.210938l-43.183594-43.183593-21.210937 21.210937 34.394531 34.394532zm0 0" fill="#76e2f8"/><path d="m271 75v166l-8.699219 15h-14.101562l-7.199219-15v-166zm0 0" fill="#76e2f8"/><path d="m353.40625 273.152344 7.59375-32.152344v-68.789062l34.394531-34.394532-21.210937-21.210937-43.183594 43.183593v81.210938l13.84375 32.152344zm0 0" fill="#28d0f7"/><path d="m262.300781 256h-6.300781v-181h15v166zm0 0" fill="#28d0f7"/><path d="m512 271v90l-26.5 30h-19.5c-11.398438 0-21.898438-4.5-30-11.398438-8.101562 6.898438-18.601562 11.398438-30 11.398438h-30c-11.398438 0-21.898438-4.5-30-11.398438-8.101562 6.898438-18.601562 11.398438-30 11.398438h-30c-11.398438 0-21.898438-4.5-30-11.398438-8.101562 6.898438-18.601562 11.398438-30 11.398438h-30c-11.398438 0-21.898438-4.5-30-11.398438-8.101562 6.898438-18.601562 11.398438-30 11.398438h-30c-11.398438 0-21.898438-4.5-30-11.398438-8.101562 6.898438-18.601562 11.398438-30 11.398438h-18.300781c-15-16.800781-27.699219-30-27.699219-30v-90h46c8.402344 0 15-6.597656 15-15v-15h30v15c0 8.402344 6.597656 15 15 15h30c8.402344 0 15-6.597656 15-15v-15h30v15c0 8.402344 6.597656 15 15 15h30c8.402344 0 15-6.597656 15-15v-15h30v15c0 8.402344 6.597656 15 15 15h30c8.402344 0 15-6.597656 15-15v-15h30v15c0 8.402344 6.597656 15 15 15h30c8.402344 0 15-6.597656 15-15v-15h30v15c0 8.402344 6.597656 15 15 15zm0 0" fill="#00c0f1"/><path d="m512 271v90l-26.5 30h-19.5c-11.398438 0-21.898438-4.5-30-11.398438-8.101562 6.898438-18.601562 11.398438-30 11.398438h-30c-11.398438 0-21.898438-4.5-30-11.398438-8.101562 6.898438-18.601562 11.398438-30 11.398438h-30c-11.398438 0-21.898438-4.5-30-11.398438v-138.601562h15v15c0 8.402344 6.597656 15 15 15h30c8.402344 0 15-6.597656 15-15v-15h30v15c0 8.402344 6.597656 15 15 15h30c8.402344 0 15-6.597656 15-15v-15h30v15c0 8.402344 6.597656 15 15 15zm0 0" fill="#009ae4"/><path d="m512 361v151h-512v-151h46c8.402344 0 15-6.597656 15-15v-15h30v15c0 8.402344 6.597656 15 15 15h30c8.402344 0 15-6.597656 15-15v-15h30v15c0 8.402344 6.597656 15 15 15h30c8.402344 0 15-6.597656 15-15v-15h30v15c0 8.402344 6.597656 15 15 15h30c8.402344 0 15-6.597656 15-15v-15h30v15c0 8.402344 6.597656 15 15 15h30c8.402344 0 15-6.597656 15-15v-15h30v15c0 8.402344 6.597656 15 15 15zm0 0" fill="#25d9f8"/><path d="m512 361v151h-256v-181h15v15c0 8.402344 6.597656 15 15 15h30c8.402344 0 15-6.597656 15-15v-15h30v15c0 8.402344 6.597656 15 15 15h30c8.402344 0 15-6.597656 15-15v-15h30v15c0 8.402344 6.597656 15 15 15zm0 0" fill="#00c0f1"/><path d="m256 0c-24.902344 0-45 20.097656-45 45s20.097656 45 45 45 45-20.097656 45-45-20.097656-45-45-45zm0 0" fill="#9bfcff"/><path d="m106 151c-24.8125 0-45-20.1875-45-45s20.1875-45 45-45 45 20.1875 45 45-20.1875 45-45 45zm0 0" fill="#9bfcff"/><g fill="#76e2f8"><path d="m406 151c-24.8125 0-45-20.1875-45-45s20.1875-45 45-45 45 20.1875 45 45-20.1875 45-45 45zm0 0"/><path d="m256 90v-90c24.902344 0 45 20.097656 45 45s-20.097656 45-45 45zm0 0"/></g></svg>