<svg height="512pt" viewBox="-16 0 512 512" width="512pt" xmlns="http://www.w3.org/2000/svg"><g fill="#28d0f7"><path d="m351.210938 301h-126.210938v-30h113.789062l34.394532-34.394531 21.210937 21.210937zm0 0"/><path d="m225 331h180v30h-180zm0 0"/><path d="m373.183594 455.394531-34.394532-34.394531h-113.789062v-30h126.210938l43.183593 43.183594zm0 0"/></g><path d="m0 0v512h240v-512zm0 0" fill="#ffda2d"/><path d="m120 0h120v512h-120zm0 0" fill="#ff9100"/><path d="m180 91c-14.097656-18.601562-36.300781-30-60-30-41.398438 0-75 33.601562-75 75s33.601562 75 75 75c23.699219 0 45.902344-11.398438 60-30h180v-90zm0 0" fill="#e0f4ff"/><path d="m120 271c-24.902344 0-45 20.097656-45 45s20.097656 45 45 45 45-20.097656 45-45-20.097656-45-45-45zm0 0" fill="#47568c"/><path d="m105 346h30v75h-30zm0 0" fill="#47568c"/><path d="m405 271c-24.8125 0-45-20.1875-45-45s20.1875-45 45-45 45 20.1875 45 45-20.1875 45-45 45zm0 0" fill="#76e2f8"/><path d="m435 391c-24.8125 0-45-20.1875-45-45s20.1875-45 45-45 45 20.1875 45 45-20.1875 45-45 45zm0 0" fill="#76e2f8"/><path d="m405 512c-24.8125 0-45-21.1875-45-46s20.1875-45 45-45 45 20.1875 45 45-20.1875 46-45 46zm0 0" fill="#76e2f8"/><path d="m120 346h15v75h-15zm0 0" fill="#2c3b73"/><path d="m360 91v90h-180c-14.097656 18.601562-36.300781 30-60 30v-150c23.699219 0 45.902344 11.398438 60 30zm0 0" fill="#bbdcff"/><path d="m165 316c0 24.902344-20.097656 45-45 45v-90c24.902344 0 45 20.097656 45 45zm0 0" fill="#2c3b73"/></svg>