<svg height="512pt" viewBox="0 0 512 512" width="512pt" xmlns="http://www.w3.org/2000/svg"><path d="m15 15h482v361h-482zm0 0" fill="#e0f4ff"/><path d="m256 15h241v361h-241zm0 0" fill="#bbdcff"/><path d="m241 136h30v210h-30zm0 0" fill="#76e2f8"/><path d="m256 136h15v210h-15zm0 0" fill="#28d0f7"/><path d="m331 346h-30v-126.210938l43.183594-43.183593 21.210937 21.210937-34.394531 34.394532zm0 0" fill="#28d0f7"/><path d="m211 346h-30v-113.789062l-34.394531-34.394532 21.210937-21.210937 43.183594 43.183593zm0 0" fill="#76e2f8"/><path d="m211 391h90v105.097656h-90zm0 0" fill="#76e2f8"/><path d="m0 0v361l45.300781 30h416.800781l49.898438-30v-361zm482 331h-452v-301h452zm0 0" fill="#47568c"/><path d="m256 391h45v105.097656h-45zm0 0" fill="#28d0f7"/><path d="m512 0v361l-49.898438 30h-206.101562v-60h226v-301h-226v-30zm0 0" fill="#2c3b73"/><path d="m0 361v60h512v-60zm0 0" fill="#9bfcff"/><path d="m256 361h256v60h-256zm0 0" fill="#76e2f8"/><path d="m256 61c-24.902344 0-45 20.097656-45 45 0 24.898438 20.097656 45 45 45s45-20.101562 45-45c0-24.902344-20.097656-45-45-45zm0 0" fill="#9bfcff"/><path d="m136 211c-24.8125 0-45-20.1875-45-45s20.1875-45 45-45 45 20.1875 45 45-20.1875 45-45 45zm0 0" fill="#9bfcff"/><path d="m376 211c-24.8125 0-45-20.1875-45-45s20.1875-45 45-45 45 20.1875 45 45-20.1875 45-45 45zm0 0" fill="#76e2f8"/><path d="m256 151v-90c24.902344 0 45 20.097656 45 45 0 24.898438-20.097656 45-45 45zm0 0" fill="#76e2f8"/><path d="m151 482h210v30h-210zm0 0" fill="#9bfcff"/><path d="m256 482h105v30h-105zm0 0" fill="#76e2f8"/></svg>