<svg height="512pt" viewBox="0 0 512 512" width="512pt" xmlns="http://www.w3.org/2000/svg"><path d="m241 316h30v121h-30zm0 0" fill="#76e2f8"/><path d="m406 452h-75v-136h30v106h45zm0 0" fill="#28d0f7"/><path d="m181 452h-75v-30h45v-106h30zm0 0" fill="#76e2f8"/><path d="m256 316h15v121h-15zm0 0" fill="#28d0f7"/><path d="m256 422c-24.902344 0-45 20.097656-45 45 0 24.898438 20.097656 45 45 45s45-20.101562 45-45c0-24.902344-20.097656-45-45-45zm0 0" fill="#9bfcff"/><path d="m76 482c-24.8125 0-45-20.1875-45-45s20.1875-45 45-45 45 20.1875 45 45-20.1875 45-45 45zm0 0" fill="#9bfcff"/><path d="m436 482c-24.8125 0-45-20.1875-45-45s20.1875-45 45-45 45 20.1875 45 45-20.1875 45-45 45zm0 0" fill="#76e2f8"/><path d="m376 61c-4.800781 0-9.601562.300781-14.398438.898438-25.203124-34.199219-63.300781-57.097657-105.601562-61-4.800781-.597657-9.902344-.898438-15-.898438-60.300781 0-114.601562 37.300781-138 92.5-57.902344 8.699219-103 59.097656-103 118.5 0 66.300781 54.699219 120 121 120h255c74.398438 0 136-60.601562 136-135 0-74.402344-61.601562-135-136-135zm0 0" fill="#e0f4ff"/><path d="m301 467c0 24.898438-20.097656 45-45 45v-90c24.902344 0 45 20.097656 45 45zm0 0" fill="#76e2f8"/><path d="m512 196c0 74.398438-61.601562 135-136 135h-120v-330.101562c42.300781 3.902343 80.398438 26.800781 105.601562 61 4.796876-.597657 9.597657-.898438 14.398438-.898438 74.398438 0 136 60.597656 136 135zm0 0" fill="#bbdcff"/></svg>