<svg height="512pt" viewBox="0 0 512 512" width="512pt" xmlns="http://www.w3.org/2000/svg"><g fill="#fdbf00"><path d="m241 0h30v46h-30zm0 0"/><path d="m121 121h45v30h-45zm0 0"/><path d="m171.140625 29.929688 31.847656 31.847656-21.210937 21.210937-31.847656-31.847656zm0 0"/></g><path d="m106 196h300v180h-300zm0 0" fill="#00c0f1"/><path d="m256 196h150v180h-150zm0 0" fill="#009ae4"/><path d="m99.289062 269.417969-68.289062-34.144531v-99.273438h30v80.726562l51.710938 25.855469zm0 0" fill="#76e2f8"/><path d="m412.710938 269.417969-13.421876-26.835938 51.710938-25.855469v-80.726562h30v99.273438zm0 0" fill="#28d0f7"/><path d="m61 437h-30v-100.273438l68.289062-34.144531 13.421876 26.835938-51.710938 25.855469zm0 0" fill="#76e2f8"/><path d="m481 437h-30v-81.726562l-51.710938-25.855469 13.421876-26.835938 68.289062 34.144531zm0 0" fill="#28d0f7"/><path d="m346 121h45v30h-45zm0 0" fill="#ff9100"/><path d="m330.210938 82.988281-21.214844-21.210937 31.863281-31.847656 21.210937 21.210937zm0 0" fill="#ff9100"/><path d="m361 136c0 25.800781-9.601562 50.699219-26.699219 69.898438h-156.601562c-17.097657-19.199219-26.699219-44.097657-26.699219-69.898438 0-57.898438 47.101562-105 105-105s105 47.101562 105 105zm0 0" fill="#ffda2d"/><path d="m91 181v210h330v-210zm90 180h-60v-60h60zm0-90h-60v-60h60zm120 90h-90v-60h90zm0-90h-90v-60h90zm90 90h-60v-60h60zm0-90h-60v-60h60zm0 0" fill="#e0f4ff"/><path d="m256 0h15v46h-15zm0 0" fill="#ff9100"/><path d="m361 136c0 25.800781-9.601562 50.699219-26.699219 69.898438h-78.300781v-174.898438c57.898438 0 105 47.101562 105 105zm0 0" fill="#fdbf00"/><path d="m256 181v30h45v60h-45v30h45v60h-45v30h165v-210zm135 180h-60v-60h60zm0-90h-60v-60h60zm0 0" fill="#bbdcff"/><path d="m467 151c-24.8125 0-45-20.1875-45-45s20.1875-45 45-45 45 20.1875 45 45-20.1875 45-45 45zm0 0" fill="#76e2f8"/><path d="m467 512c-24.8125 0-45-20.1875-45-45s20.1875-45 45-45 45 20.1875 45 45-20.1875 45-45 45zm0 0" fill="#76e2f8"/><path d="m45 151c-24.8125 0-45-20.1875-45-45s20.1875-45 45-45 45 20.1875 45 45-20.1875 45-45 45zm0 0" fill="#9bfcff"/><path d="m45 512c-24.8125 0-45-20.1875-45-45s20.1875-45 45-45 45 20.1875 45 45-20.1875 45-45 45zm0 0" fill="#9bfcff"/></svg>