<svg height="512pt" viewBox="-91 0 512 512" width="512pt" xmlns="http://www.w3.org/2000/svg"><path d="m0 0v512h330v-512zm0 0" fill="#ff637b"/><path d="m165 0h165v512h-165zm0 0" fill="#e63950"/><path d="m90 301h150v30h-150zm0 0" fill="#e0f4ff"/><path d="m90 361h150v30h-150zm0 0" fill="#e0f4ff"/><path d="m60 61h30v30h-30zm0 0" fill="#47568c"/><path d="m60 421h30v30h-30zm0 0" fill="#47568c"/><path d="m240 61h30v30h-30zm0 0" fill="#2c3b73"/><path d="m240 421h30v30h-30zm0 0" fill="#2c3b73"/><path d="m150 91h30v90h-30zm0 0" fill="#e0f4ff"/><path d="m255 181c0 49.5-40.5 90-90 90s-90-40.5-90-90c0-26.699219 11.699219-51.902344 32.101562-69l19.496094 23.097656c-13.796875 11.402344-21.597656 28.203125-21.597656 45.902344 0 33 27 60 60 60s60-27 60-60c0-17.699219-7.800781-34.5-21.597656-45.902344l19.496094-23.097656c20.402343 17.097656 32.101562 42.300781 32.101562 69zm0 0" fill="#e0f4ff"/><g fill="#bbdcff"><path d="m165 91h15v90h-15zm0 0"/><path d="m165 271v-30c33 0 60-27 60-60 0-17.699219-7.800781-34.5-21.597656-45.902344l19.496094-23.097656c20.402343 17.097656 32.101562 42.300781 32.101562 69 0 49.5-40.5 90-90 90zm0 0"/><path d="m165 301h75v30h-75zm0 0"/><path d="m165 361h75v30h-75zm0 0"/></g></svg>