<svg height="512pt" viewBox="-16 0 512 512" width="512pt" xmlns="http://www.w3.org/2000/svg"><path d="m60 0v91h150v-91zm0 0" fill="#bbdcff"/><path d="m135 0h75v91h-75zm0 0" fill="#8cbbe5"/><g fill="#28d0f7"><path d="m319.539062 241h-64.539062v-30h55.460938l61.257812-40.839844 16.640625 24.960938zm0 0"/><path d="m255 271h150v30h-150zm0 0"/><path d="m373.183594 395.394531-34.394532-34.394531h-83.789062v-30h96.210938l43.183593 43.183594zm0 0"/></g><path d="m270 451v61h-270v-61l27.300781-30h213.898438c13.199219 13.5 28.199219 28.5 28.800781 30zm0 0" fill="#e0f4ff"/><path d="m270 61v60l-17.402344 30h-221.695312l-30.902344-30v-60zm0 0" fill="#e0f4ff"/><path d="m270 61v60l-17.402344 30h-117.597656v-90zm0 0" fill="#bbdcff"/><path d="m241.199219 421c13.199219 13.5 28.199219 28.5 28.800781 30v61h-135v-91zm0 0" fill="#bbdcff"/><path d="m405 211c-24.8125 0-45-20.1875-45-45s20.1875-45 45-45 45 20.1875 45 45-20.1875 45-45 45zm0 0" fill="#76e2f8"/><path d="m435 331c-24.8125 0-45-20.1875-45-45s20.1875-45 45-45 45 20.1875 45 45-20.1875 45-45 45zm0 0" fill="#76e2f8"/><path d="m405 451c-24.8125 0-45-20.1875-45-45s20.1875-45 45-45 45 20.1875 45 45-20.1875 45-45 45zm0 0" fill="#76e2f8"/><path d="m0 121v330h270v-330zm0 0" fill="#fdbf00"/><path d="m135 121h135v330h-135zm0 0" fill="#ff9100"/><path d="m192.898438 271-57.898438 87.300781-17.402344 26.097657-25.195312-16.800782 42.597656-63.597656 2.101562-3h-60l57.898438-87.300781 17.402344-26.101563 25.195312 16.800782-42.597656 63.601562-2.101562 3zm0 0" fill="#47568c"/><path d="m177.597656 204.398438-42.597656 63.601562v-54.300781l17.402344-26.101563zm0 0" fill="#2c3b73"/><path d="m192.898438 271-57.898438 87.300781v-54.300781l2.101562-3h-2.101562v-30zm0 0" fill="#2c3b73"/></svg>