<svg height="512pt" viewBox="0 0 512 512" width="512pt" xmlns="http://www.w3.org/2000/svg"><path d="m332 45-1 31h-30l1-31c0-8.402344-6.597656-15-15-15h-60c-8.402344 0-15 6.597656-15 15l-1 31h-30l1-31c0-24.902344 20.097656-45 45-45h60c24.902344 0 45 20.097656 45 45zm0 0" fill="#47568c"/><path d="m287 30h-30v-30h30c24.902344 0 45 20.097656 45 45l-1 31h-30l1-31c0-8.402344-6.597656-15-15-15zm0 0" fill="#2c3b73"/><path d="m481 136v30h-450v-30c0-41.398438 33.601562-75 75-75h300c41.398438 0 75 33.601562 75 75zm0 0" fill="#e0f4ff"/><path d="m31 166h450v346h-450zm0 0" fill="#61729b"/><path d="m481 136v30h-225v-105h150c41.398438 0 75 33.601562 75 75zm0 0" fill="#bbdcff"/><path d="m256 166h225v346h-225zm0 0" fill="#47568c"/><path d="m0 151h512v30h-512zm0 0" fill="#47568c"/><path d="m256 151h256v30h-256zm0 0" fill="#2c3b73"/><path d="m241 316h30v196h-30zm0 0" fill="#76e2f8"/><path d="m365.5 347.800781-34.5 34.5v129.699219h-30v-142.300781l43.199219-43.199219zm0 0" fill="#28d0f7"/><path d="m211 369.699219v142.300781h-30v-129.699219l-34.5-34.5 21.300781-21.300781zm0 0" fill="#76e2f8"/><path d="m256 316h15v196h-15zm0 0" fill="#28d0f7"/><path d="m256 241c-24.902344 0-45 20.097656-45 45 0 24.898438 20.097656 45 45 45s45-20.101562 45-45c0-24.902344-20.097656-45-45-45zm0 0" fill="#9bfcff"/><path d="m136 361c-24.8125 0-45-20.1875-45-45s20.1875-45 45-45 45 20.1875 45 45-20.1875 45-45 45zm0 0" fill="#9bfcff"/><g fill="#76e2f8"><path d="m376 361c-24.8125 0-45-20.1875-45-45s20.1875-45 45-45 45 20.1875 45 45-20.1875 45-45 45zm0 0"/><path d="m301 286c0 24.898438-20.097656 45-45 45v-90c24.902344 0 45 20.097656 45 45zm0 0"/></g></svg>