<svg height="512pt" viewBox="0 0 512 512" width="512pt" xmlns="http://www.w3.org/2000/svg"><path d="m331 376h-15v-30h15c16.539062 0 30-13.460938 30-30s-13.460938-30-30-30h-15v-30h15c33.089844 0 60 26.910156 60 60s-26.910156 60-60 60zm0 0" fill="#dc9e00"/><path d="m241 166h30v45h-30zm0 0" fill="#2c3b73"/><path d="m35.089844 90-35.089844 31v270l38.453125 31h112.546875v-332zm0 0" fill="#e63950"/><path d="m346 30h91v30h-91zm0 0" fill="#28d0f7"/><path d="m376 452h61v30h-61zm0 0" fill="#28d0f7"/><path d="m316 0h-316v121h391v-46c0-41.398438-33.601562-75-75-75zm0 0" fill="#ff637b"/><g fill="#e0f4ff"><path d="m61 181h30v30h-30zm0 0"/><path d="m61 241h30v30h-30zm0 0"/><path d="m61 301h30v30h-30zm0 0"/></g><path d="m301 181h-90v-91h90zm0 0" fill="#bbdcff"/><path d="m331 422h-150v-181h150zm0 0" fill="#eebf00"/><path d="m391 75v46h-195v-121h120c41.398438 0 75 33.601562 75 75zm0 0" fill="#e63950"/><path d="m316 391h-316v121h391v-45c0-41.398438-33.601562-76-75-76zm0 0" fill="#61729b"/><path d="m391 467v45h-195v-121h120c41.398438 0 75 34.601562 75 76zm0 0" fill="#47568c"/><path d="m467 90c-24.8125 0-45-20.1875-45-45s20.1875-45 45-45 45 20.1875 45 45-20.1875 45-45 45zm0 0" fill="#76e2f8"/><path d="m467 512c-24.8125 0-45-20.1875-45-45s20.1875-45 45-45 45 20.1875 45 45-20.1875 45-45 45zm0 0" fill="#76e2f8"/></svg>