<svg height="512pt" viewBox="0 0 512 512" width="512pt" xmlns="http://www.w3.org/2000/svg"><g fill="#28d0f7"><path d="m351.539062 211h-36.539062v-30h27.460938l61.257812-40.839844 16.640625 24.960938zm0 0"/><path d="m315 241h122v30h-122zm0 0"/><path d="m405.183594 365.394531-34.394532-34.394531h-55.789062v-30h68.210938l43.183593 43.183594zm0 0"/></g><path d="m0 0v512h330v-512zm0 0" fill="#ff637b"/><path d="m165 0h165v512h-165zm0 0" fill="#e63950"/><path d="m437 181c-24.8125 0-45-20.1875-45-45s20.1875-45 45-45 45 20.1875 45 45-20.1875 45-45 45zm0 0" fill="#76e2f8"/><path d="m467 301c-24.8125 0-45-20.1875-45-45s20.1875-45 45-45 45 20.1875 45 45-20.1875 45-45 45zm0 0" fill="#76e2f8"/><path d="m437 421c-24.8125 0-45-20.1875-45-45s20.1875-45 45-45 45 20.1875 45 45-20.1875 45-45 45zm0 0" fill="#76e2f8"/><path d="m165 241c-57.898438 0-105 47.101562-105 105s47.101562 105 105 105 105-47.101562 105-105-47.101562-105-105-105zm0 0" fill="#47568c"/><path d="m165 61c-41.398438 0-75 33.601562-75 75s33.601562 75 75 75 75-33.601562 75-75-33.601562-75-75-75zm0 0" fill="#47568c"/><path d="m45 46h30v30h-30zm0 0" fill="#47568c"/><path d="m255 46h30v30h-30zm0 0" fill="#2c3b73"/><path d="m45 436h30v30h-30zm0 0" fill="#47568c"/><path d="m255 436h30v30h-30zm0 0" fill="#2c3b73"/><path d="m165 211v-150c41.398438 0 75 33.601562 75 75s-33.601562 75-75 75zm0 0" fill="#2c3b73"/><path d="m270 346c0 57.898438-47.101562 105-105 105v-210c57.898438 0 105 47.101562 105 105zm0 0" fill="#2c3b73"/><path d="m165 301c-24.902344 0-45 20.097656-45 45 0 24.898438 20.097656 45 45 45s45-20.101562 45-45c0-24.902344-20.097656-45-45-45zm0 0" fill="#61729b"/><path d="m150 121h30v30h-30zm0 0" fill="#61729b"/><path d="m210 346c0 24.898438-20.097656 45-45 45v-90c24.902344 0 45 20.097656 45 45zm0 0" fill="#47568c"/><path d="m165 121h15v30h-15zm0 0" fill="#47568c"/></svg>