<svg height="512pt" viewBox="0 0 512 512" width="512pt" xmlns="http://www.w3.org/2000/svg"><path d="m151 91h-90v-91h90zm0 0" fill="#8cbbe5"/><path d="m241 316h30v121h-30zm0 0" fill="#76e2f8"/><path d="m406 451h-75v-135h30v105h45zm0 0" fill="#28d0f7"/><path d="m181 451h-75v-30h45v-105h30zm0 0" fill="#76e2f8"/><path d="m256 316h15v121h-15zm0 0" fill="#28d0f7"/><path d="m0 61v270h512v-270zm0 0" fill="#e0f4ff"/><path d="m256 61h256v270h-256zm0 0" fill="#bbdcff"/><path d="m436 481c-24.8125 0-45-20.1875-45-45s20.1875-45 45-45 45 20.1875 45 45-20.1875 45-45 45zm0 0" fill="#76e2f8"/><path d="m256 422c-24.902344 0-45 20.097656-45 45s20.097656 45 45 45 45-20.097656 45-45-20.097656-45-45-45zm0 0" fill="#9bfcff"/><path d="m76 481c-24.8125 0-45-20.1875-45-45s20.1875-45 45-45 45 20.1875 45 45-20.1875 45-45 45zm0 0" fill="#9bfcff"/><path d="m301 467c0 24.902344-20.097656 45-45 45v-90c24.902344 0 45 20.097656 45 45zm0 0" fill="#76e2f8"/><path d="m30 91h452v210h-452zm0 0" fill="#47568c"/><g fill="#ff637b"><path d="m181 151h30v30h-30zm0 0"/><path d="m181 211h30v30h-30zm0 0"/><path d="m151 151v-30h-90v150h90v-90h-60v-30zm-30 60v30h-30v-30zm0 0"/></g><path d="m256 91h226v210h-226zm0 0" fill="#2c3b73"/><path d="m331 271h-90v-150h90zm-60-30h30v-90h-30zm0 0" fill="#e63950"/><path d="m451 271h-90v-150h90zm-60-30h30v-90h-30zm0 0" fill="#e63950"/></svg>