<svg height="512pt" viewBox="0 -31 512 512" width="512pt" xmlns="http://www.w3.org/2000/svg"><path d="m241 255h30v120h-30zm0 0" fill="#76e2f8"/><path d="m406 390h-75v-152.433594h30v122.433594h45zm0 0" fill="#28d0f7"/><path d="m181 390h-75v-30h45v-122.433594h30zm0 0" fill="#76e2f8"/><path d="m256 255h15v120h-15zm0 0" fill="#28d0f7"/><path d="m503 125.097656c-4.5-5.097656-109.300781-125.097656-247-125.097656s-242.5 120-247 125.097656l-9 9.902344 7.898438 9.902344c4.503906 5.097656 110.402343 125.097656 248.101562 125.097656s242.5-120 247-125.097656l9-9.902344zm0 0" fill="#e0f4ff"/><path d="m512 135-9 9.902344c-4.5 5.097656-109.300781 125.097656-247 125.097656v-270c137.699219 0 242.5 120 247 125.097656zm0 0" fill="#bbdcff"/><path d="m256 60c-41.398438 0-75 33.601562-75 75s33.601562 75 75 75 75-33.601562 75-75-33.601562-75-75-75zm0 0" fill="#00c0f1"/><path d="m331 135c0 41.398438-33.601562 75-75 75v-150c41.398438 0 75 33.601562 75 75zm0 0" fill="#009ae4"/><path d="m241 120h30v30h-30zm0 0" fill="#47568c"/><path d="m256 120h15v30h-15zm0 0" fill="#2c3b73"/><path d="m256 360c-24.902344 0-45 20.097656-45 45s20.097656 45 45 45 45-20.097656 45-45-20.097656-45-45-45zm0 0" fill="#9bfcff"/><path d="m76 420c-24.8125 0-45-20.1875-45-45s20.1875-45 45-45 45 20.1875 45 45-20.1875 45-45 45zm0 0" fill="#9bfcff"/><g fill="#76e2f8"><path d="m436 420c-24.8125 0-45-20.1875-45-45s20.1875-45 45-45 45 20.1875 45 45-20.1875 45-45 45zm0 0"/><path d="m301 405c0 24.902344-20.097656 45-45 45v-90c24.902344 0 45 20.097656 45 45zm0 0"/></g></svg>