<svg height="512pt" viewBox="0 0 512 512" width="512pt" xmlns="http://www.w3.org/2000/svg"><path d="m241 76h30v60h-30zm0 0" fill="#47568c"/><path d="m256 76h15v60h-15zm0 0" fill="#2c3b73"/><path d="m373 292-42-42.300781v78.601562c-17.402344-6-30-22.800781-30-42.300781 0-35.398438-17.699219-66.902344-45-85.800781-16.800781-12.300781-37.800781-19.199219-60-19.199219h-39.300781l29.398437 26.101562c0 .296876 24.902344 23.097657 24.902344 48.898438 0 8.699219-3 18-8.402344 27.898438-8.097656 13.800781-14.097656 28.203124-17.699218 42.300781-2.398438-2.699219-3.898438-6.300781-3.898438-10.199219v-66.300781l-42 42.300781c-30.898438 30.898438-48 72.699219-48 116.5.601562 57 49.199219 103.5 108.601562 103.5h112.796876c59.101562 0 108-46.199219 108.601562-104.402344-.300781-43.199218-17.101562-85-48-115.597656zm0 0" fill="#fdbf00"/><path d="m373 292c30.898438 30.597656 47.699219 72.398438 48 115.597656-.601562 58.203125-49.5 104.402344-108.601562 104.402344h-56.398438v-311.800781c27.300781 18.898437 45 50.402343 45 85.800781 0 19.5 12.597656 36.300781 30 42.300781v-78.601562zm0 0" fill="#ff9100"/><path d="m151 15h210v76h-210zm0 0" fill="#ff637b"/><path d="m304 416-48-63.902344-48 63.902344c-7.800781 10.5-12 22.800781-12 36 0 33 27 60 60 60s60-27 60-60c0-13.199219-4.199219-25.5-12-36zm0 0" fill="#ffda2d"/><path d="m389.417969 129.277344 30 60-26.835938 13.417968-30-60zm0 0" fill="#76e2f8"/><path d="m442.699219 62.574219 59.996093 30-13.417968 26.832031-59.996094-29.996094zm0 0" fill="#76e2f8"/><path d="m122.582031 129.285156 26.832031 13.417969-29.996093 60-26.835938-13.417969zm0 0" fill="#9bfcff"/><path d="m69.292969 62.582031 13.417969 26.832031-60 30-13.417969-26.835937zm0 0" fill="#9bfcff"/><path d="m304 416c7.800781 10.5 12 22.800781 12 36 0 33-27 60-60 60v-159.902344zm0 0" fill="#fdbf00"/><path d="m256 15h105v76h-105zm0 0" fill="#e63950"/><path d="m0 0h512v30h-512zm0 0" fill="#47568c"/><path d="m256 0h256v30h-256zm0 0" fill="#2c3b73"/><path d="m211 121h90v30h-90zm0 0" fill="#bbdcff"/><path d="m256 121h45v30h-45zm0 0" fill="#8cbbe5"/></svg>