<svg height="512pt" viewBox="0 -16 512 512" width="512pt" xmlns="http://www.w3.org/2000/svg"><g fill="#28d0f7"><path d="m351.539062 270h-81.539062v-30h71.460938l62.257812-40.839844 16.640625 24.960938zm0 0"/><path d="m315 300h122v30h-122zm0 0"/><path d="m405.183594 424.394531-34.394532-34.394531h-100.789062v-30h113.210938l43.183593 43.183594zm0 0"/></g><path d="m260.398438 39.300781c-25.796876-25.203125-59.699219-39.300781-95.398438-39.300781-74.398438 0-135 60.597656-135 135v75h90v-75c0-24.902344 20.097656-45 45-45 12 0 23.402344 4.800781 31.800781 13.5 8.398438 8.097656 13.199219 19.5 13.199219 31.5v75h90v-75c0-35.699219-14.097656-69.601562-39.601562-95.699219zm0 0" fill="#bbdcff"/><path d="m330 240-21.597656 14.097656 21.597656 15.902344v90l-30.902344 12.300781 30.902344 17.699219v60h-330v-60l18.601562-12.300781-18.601562-17.699219v-90l20.699219-14.101562-20.699219-15.898438v-60h330zm0 0" fill="#ff637b"/><path d="m300 135v75h-90v-75c0-12-4.800781-23.402344-13.199219-31.5-8.398437-8.699219-19.800781-13.5-31.800781-13.5v-90c35.699219 0 69.601562 14.097656 95.398438 39.300781 25.503906 26.097657 39.601562 60 39.601562 95.699219zm0 0" fill="#8cbbe5"/><path d="m330 240-21.597656 14.097656 21.597656 15.902344v90l-30.902344 12.300781 30.902344 17.699219v60h-165v-270h165zm0 0" fill="#e63950"/><path d="m437 240c-24.8125 0-45-20.1875-45-45s20.1875-45 45-45 45 20.1875 45 45-20.1875 45-45 45zm0 0" fill="#76e2f8"/><path d="m467 360c-24.8125 0-45-20.1875-45-45s20.1875-45 45-45 45 20.1875 45 45-20.1875 45-45 45zm0 0" fill="#76e2f8"/><path d="m437 480c-24.8125 0-45-20.1875-45-45s20.1875-45 45-45 45 20.1875 45 45-20.1875 45-45 45zm0 0" fill="#76e2f8"/><path d="m165 270c-16.5 0-30 13.5-30 30s13.5 30 30 30 30-13.5 30-30-13.5-30-30-30zm0 0" fill="#47568c"/><path d="m150 315h30v45h-30zm0 0" fill="#47568c"/><path d="m0 240h60v30h-60zm0 0" fill="#e63950"/><path d="m0 360h60v30h-60zm0 0" fill="#e63950"/><path d="m270 240h60v30h-60zm0 0" fill="#ae2538"/><path d="m270 360h60v30h-60zm0 0" fill="#ae2538"/><path d="m195 300c0 16.5-13.5 30-30 30v-60c16.5 0 30 13.5 30 30zm0 0" fill="#2c3b73"/><path d="m165 315h15v45h-15zm0 0" fill="#2c3b73"/></svg>