<svg height="512pt" viewBox="0 0 512 512" width="512pt" xmlns="http://www.w3.org/2000/svg"><g fill="#28d0f7"><path d="m351.539062 302h-80.539062v-30h71.460938l61.257812-40.839844 16.640625 24.960938zm0 0"/><path d="m268.859375 332h168.140625v30h-168.140625zm0 0"/><path d="m405.183594 456.394531-34.394532-34.394531h-110.496093v-30h122.917969l43.183593 43.183594zm0 0"/></g><path d="m437 272c-24.8125 0-45-20.1875-45-45s20.1875-45 45-45 45 20.1875 45 45-20.1875 45-45 45zm0 0" fill="#76e2f8"/><path d="m467 392c-24.8125 0-45-20.1875-45-45s20.1875-45 45-45 45 20.1875 45 45-20.1875 45-45 45zm0 0" fill="#76e2f8"/><path d="m437 512c-24.8125 0-45-20.1875-45-45s20.1875-45 45-45 45 20.1875 45 45-20.1875 45-45 45zm0 0" fill="#76e2f8"/><path d="m151 135h30v92h-30zm0 0" fill="#61d7a8"/><path d="m166 135h15v92h-15zm0 0" fill="#00ab94"/><path d="m301 0v15c0 69.300781-52.800781 126-120 133.5v1.5h-30v-1.5c-67.199219-7.5-120-64.199219-120-133.5v-15h15c52.5 0 97.800781 30.597656 120 74.398438 22.199219-43.800782 67.5-74.398438 120-74.398438zm0 0" fill="#61d7a8"/><path d="m181 150h-15v-75.601562c22.199219-43.800782 67.5-74.398438 120-74.398438h15v15c0 69.300781-52.800781 126-120 133.5zm0 0" fill="#00ab94"/><path d="m290.199219 302-21.300781 150h-205.796876l-21.300781-150 60.597657-30h95.703124zm0 0" fill="#ff637b"/><path d="m198.101562 272 92.097657 30-21.300781 150h-102.898438v-180zm0 0" fill="#e63950"/><path d="m301.601562 223.398438-11.402343 78.601562h-248.398438l-11.402343-78.601562zm0 0" fill="#e63950"/><path d="m301.601562 223.398438-11.402343 78.601562h-124.199219v-78.601562zm0 0" fill="#ae2538"/><path d="m0 212h331v30h-331zm0 0" fill="#47568c"/><path d="m166 212h165v30h-165zm0 0" fill="#2c3b73"/></svg>