<svg height="512pt" viewBox="0 0 512 512" width="512pt" xmlns="http://www.w3.org/2000/svg"><path d="m30 436h91v76h-91zm0 0" fill="#61729b"/><path d="m391 436h91v76h-91zm0 0" fill="#47568c"/><path d="m0 0v451h512v-451zm0 0" fill="#e0f4ff"/><path d="m256 0h256v451h-256zm0 0" fill="#bbdcff"/><path d="m60 61v330h392v-330zm0 0" fill="#47568c"/><path d="m256 61h196v330h-196zm0 0" fill="#2c3b73"/><g fill="#28d0f7"><path d="m170.539062 181h-110.539062v-30h101.460938l61.257812-40.839844 16.640625 24.960938zm0 0"/><path d="m60 211h166v30h-166zm0 0"/><path d="m224.183594 335.394531-34.394532-34.394531h-129.789062v-30h142.210938l43.183593 43.183594zm0 0"/></g><path d="m361 151h30v150h-30zm0 0" fill="#bbdcff"/><path d="m256 61c-24.902344 0-45 20.097656-45 45 0 24.898438 20.097656 45 45 45s45-20.101562 45-45c0-24.902344-20.097656-45-45-45zm0 0" fill="#76e2f8"/><path d="m256 181c-24.902344 0-45 20.097656-45 45 0 24.898438 20.097656 45 45 45s45-20.101562 45-45c0-24.902344-20.097656-45-45-45zm0 0" fill="#76e2f8"/><path d="m256 301c-24.902344 0-45 20.097656-45 45 0 24.898438 20.097656 45 45 45s45-20.101562 45-45c0-24.902344-20.097656-45-45-45zm0 0" fill="#76e2f8"/><path d="m301 346c0 24.898438-20.097656 45-45 45v-90c24.902344 0 45 20.097656 45 45zm0 0" fill="#28d0f7"/><path d="m301 226c0 24.898438-20.097656 45-45 45v-90c24.902344 0 45 20.097656 45 45zm0 0" fill="#28d0f7"/><path d="m256 151v-90c24.902344 0 45 20.097656 45 45 0 24.898438-20.097656 45-45 45zm0 0" fill="#28d0f7"/></svg>