<svg height="512pt" viewBox="0 0 512 512" width="512pt" xmlns="http://www.w3.org/2000/svg"><path d="m512 256c0 114.601562-76.601562 212.5-181 244.898438l-15-22.5-15 29.703124c-9.902344 1.796876-19.800781 2.996094-30 3.597657l-15-24.300781-1.199219-1.796876-13.800781 26.097657c-10.199219-.601563-20.097656-1.800781-30-3.597657l-17.402344-32.402343-12.597656 25.199219c-104.398438-32.398438-181-130.296876-181-244.898438 0-140.699219 115.300781-256 256-256s256 115.300781 256 256zm0 0" fill="#47568c"/><path d="m512 256c0 114.601562-76.601562 212.5-181 244.898438l-15-22.5-15 29.703124c-9.902344 1.796876-19.800781 2.996094-30 3.597657l-15-24.300781v-487.398438c140.699219 0 256 115.300781 256 256zm0 0" fill="#2c3b73"/><path d="m451 256h-30c0-90.902344-74.097656-165-165-165s-165 74.097656-165 165h-30c0-107.402344 87.597656-195 195-195s195 87.597656 195 195zm0 0" fill="#61729b"/><path d="m151 151v90h210v-90zm0 0" fill="#e0f4ff"/><path d="m271 346v165.699219c-5.097656.300781-9.902344.300781-15 .300781s-9.902344 0-15-.300781v-165.699219zm0 0" fill="#76e2f8"/><path d="m301 508.101562v-108.402343l43.199219-43.199219 21.300781 21.300781-34.5 34.5v88.597657zm0 0" fill="#28d0f7"/><path d="m211 399.699219v108.402343c-10.199219-1.800781-20.398438-4.503906-30-7.203124v-88.597657l-34.5-34.5 21.300781-21.300781zm0 0" fill="#76e2f8"/><path d="m256 151h105v90h-105zm0 0" fill="#bbdcff"/><path d="m451 256h-30c0-90.902344-74.097656-165-165-165v-30c107.402344 0 195 87.597656 195 195zm0 0" fill="#47568c"/><path d="m271 346v165.699219c-5.097656.300781-9.902344.300781-15 .300781v-166zm0 0" fill="#28d0f7"/><path d="m256 271c-24.902344 0-45 20.097656-45 45 0 24.898438 20.097656 45 45 45s45-20.101562 45-45c0-24.902344-20.097656-45-45-45zm0 0" fill="#9bfcff"/><path d="m136 391c-24.8125 0-45-20.1875-45-45s20.1875-45 45-45 45 20.1875 45 45-20.1875 45-45 45zm0 0" fill="#9bfcff"/><g fill="#76e2f8"><path d="m376 391c-24.8125 0-45-20.1875-45-45s20.1875-45 45-45 45 20.1875 45 45-20.1875 45-45 45zm0 0"/><path d="m301 316c0 24.898438-20.097656 45-45 45v-90c24.902344 0 45 20.097656 45 45zm0 0"/></g></svg>