<svg height="512pt" viewBox="0 0 512 512" width="512pt" xmlns="http://www.w3.org/2000/svg"><path d="m151 0h30v76h-30zm0 0" fill="#47568c"/><path d="m446.273438 211h-70.273438v-30h51.726562l12.4375-24.871094 26.835938 13.417969zm0 0" fill="#76e2f8"/><path d="m71.835938 265.871094-26.835938-13.417969 20.726562-41.453125h70.273438v30h-51.726562zm0 0" fill="#9bfcff"/><path d="m486.097656 396.199219c-4.796875-20.101563-22.796875-34.199219-43.5-34.199219h-373.195312c-20.703125 0-38.703125 14.097656-43.5 34.199219l-25.902344 115.800781h512zm0 0" fill="#ff637b"/><path d="m512 512h-256v-150h186.597656c20.703125 0 38.703125 14.097656 43.5 34.199219zm0 0" fill="#e63950"/><path d="m121 61h270v376h-270zm0 0" fill="#e0f4ff"/><path d="m256 61h135v376h-135zm0 0" fill="#bbdcff"/><path d="m91 422h330v30h-330zm0 0" fill="#e63950"/><path d="m181 121v90h150v-90zm0 0" fill="#25d9f8"/><path d="m181 241h30v30h-30zm0 0" fill="#61729b"/><path d="m241 241h30v30h-30zm0 0" fill="#61729b"/><path d="m301 241h30v30h-30zm0 0" fill="#47568c"/><path d="m181 301h30v30h-30zm0 0" fill="#61729b"/><path d="m241 301h30v30h-30zm0 0" fill="#61729b"/><path d="m301 301h30v30h-30zm0 0" fill="#47568c"/><path d="m181 362h30v30h-30zm0 0" fill="#61729b"/><path d="m241 362h30v30h-30zm0 0" fill="#61729b"/><path d="m301 362h30v30h-30zm0 0" fill="#47568c"/><path d="m467 181c-24.8125 0-45-20.1875-45-45s20.1875-45 45-45 45 20.1875 45 45-20.1875 45-45 45zm0 0" fill="#76e2f8"/><path d="m45 331c-24.8125 0-45-20.1875-45-45s20.1875-45 45-45 45 20.1875 45 45-20.1875 45-45 45zm0 0" fill="#9bfcff"/><g fill="#47568c"><path d="m256 241h15v30h-15zm0 0"/><path d="m256 301h15v30h-15zm0 0"/><path d="m256 362h15v30h-15zm0 0"/></g><path d="m256 121h75v90h-75zm0 0" fill="#00c0f1"/><path d="m256 422h165v30h-165zm0 0" fill="#ae2538"/></svg>