<svg height="512pt" viewBox="0 -16 512 512" width="512pt" xmlns="http://www.w3.org/2000/svg"><path d="m75 420h121v30h-121zm0 0" fill="#76e2f8"/><path d="m316 420h121v30h-121zm0 0" fill="#28d0f7"/><path d="m181 370.199219h150v79.800781h-150zm0 0" fill="#ff637b"/><path d="m256 370.199219h75v79.800781h-75zm0 0" fill="#e63950"/><path d="m211 315h90v60h-90zm0 0" fill="#47568c"/><path d="m256 315h45v60h-45zm0 0" fill="#2c3b73"/><path d="m151 270h45v30h-45zm0 0" fill="#e63950"/><path d="m467 480c-24.8125 0-45-20.1875-45-45s20.1875-45 45-45 45 20.1875 45 45-20.1875 45-45 45zm0 0" fill="#76e2f8"/><path d="m45 480c-24.8125 0-45-20.1875-45-45s20.1875-45 45-45 45 20.1875 45 45-20.1875 45-45 45zm0 0" fill="#9bfcff"/><path d="m256 210c-41.398438 0-75 33.601562-75 75v45h150v-45c0-41.398438-33.601562-75-75-75zm0 0" fill="#ff637b"/><g fill="#e0f4ff"><path d="m241 0h30v30h-30zm0 0"/><path d="m241 60h30v30h-30zm0 0"/><path d="m241 120h30v30h-30zm0 0"/><path d="m133.988281 28.667969 15 25.988281-25.988281 15-14.996094-25.988281zm0 0"/><path d="m153.007812 121.609375-15-25.96875 25.984376-15 15 25.96875zm0 0"/><path d="m193.984375 132.601562 15 25.984376-25.984375 15-15-25.988282zm0 0"/></g><path d="m378.019531 28.660156 25.984375 15-14.996094 25.988282-25.988281-15zm0 0" fill="#bbdcff"/><path d="m358.992188 121.609375-25.984376-15 15-25.96875 25.984376 15zm0 0" fill="#bbdcff"/><path d="m318.019531 132.597656 25.988281 14.996094-15 25.988281-25.988281-15zm0 0" fill="#bbdcff"/><path d="m29.671875 122.011719 25.984375 15-14.996094 25.984375-25.988281-14.996094zm0 0" fill="#e0f4ff"/><path d="m92.609375 192.992188-25.96875-15 15-25.984376 25.96875 15zm0 0" fill="#e0f4ff"/><path d="m133.605469 182.011719 25.988281 15-15 25.984375-25.988281-15zm0 0" fill="#e0f4ff"/><path d="m482.320312 122.015625 15 25.988281-25.988281 15-15-25.988281zm0 0" fill="#bbdcff"/><path d="m419.390625 192.992188-15-25.984376 25.96875-15 15 25.984376zm0 0" fill="#bbdcff"/><path d="m378.390625 182.011719 15 25.988281-25.988281 15-15-25.988281zm0 0" fill="#bbdcff"/><path d="m316 270h45v30h-45zm0 0" fill="#ae2538"/><path d="m151 360h210v30h-210zm0 0" fill="#61729b"/><path d="m256 0h15v30h-15zm0 0" fill="#bbdcff"/><path d="m256 60h15v30h-15zm0 0" fill="#bbdcff"/><path d="m256 120h15v30h-15zm0 0" fill="#bbdcff"/><path d="m331 330h-75v-120c41.398438 0 75 33.601562 75 75zm0 0" fill="#e63950"/><path d="m256 360h105v30h-105zm0 0" fill="#47568c"/></svg>