<svg height="512pt" viewBox="-31 0 512 512" width="512pt" xmlns="http://www.w3.org/2000/svg"><path d="m30 75h30v61h-30zm0 0" fill="#76e2f8"/><path d="m390 75h30v61h-30zm0 0" fill="#28d0f7"/><path d="m30 421v91h390v-91zm0 0" fill="#47568c"/><path d="m0 121v330h450v-330zm0 0" fill="#ff637b"/><path d="m225 421h195v91h-195zm0 0" fill="#2c3b73"/><path d="m225 121h225v330h-225zm0 0" fill="#e63950"/><path d="m60 241v210h330v-210zm0 0" fill="#fdbf00"/><g fill="#47568c"><path d="m60 181h30v30h-30zm0 0"/><path d="m120 181h30v30h-30zm0 0"/><path d="m180 181h30v30h-30zm0 0"/></g><path d="m330 181h60v30h-60zm0 0" fill="#2c3b73"/><path d="m240 181h60v30h-60zm0 0" fill="#2c3b73"/><path d="m225 241h165v210h-165zm0 0" fill="#ff9100"/><path d="m45 90c-24.8125 0-45-20.1875-45-45s20.1875-45 45-45 45 20.1875 45 45-20.1875 45-45 45zm0 0" fill="#9bfcff"/><path d="m405 90c-24.8125 0-45-20.1875-45-45s20.1875-45 45-45 45 20.1875 45 45-20.1875 45-45 45zm0 0" fill="#76e2f8"/><path d="m255 241-30 39.898438-78 104.101562-24-18 94.5-126zm0 0" fill="#ffda2d"/><path d="m225 241v39.898438l30-39.898438zm0 0" fill="#fdbf00"/><path d="m327 325-94.5 126h-37.5l108-144zm0 0" fill="#ffda2d"/><path d="m225 451h7.5l94.5-126-24-18-78 104zm0 0" fill="#fdbf00"/></svg>