<svg height="512pt" viewBox="0 0 512 512" width="512pt" xmlns="http://www.w3.org/2000/svg"><path d="m241 75h30v121h-30zm0 0" fill="#76e2f8"/><path d="m361 196h-30v-135h75v30h-45zm0 0" fill="#28d0f7"/><path d="m181 196h-30v-105h-45v-30h75zm0 0" fill="#76e2f8"/><path d="m256 75h15v121h-15zm0 0" fill="#28d0f7"/><path d="m481 196v90c0 124.199219-100.800781 226-225 226s-225-101.800781-225-226v-90zm0 0" fill="#e0f4ff"/><path d="m481 196v90c0 124.199219-100.800781 226-225 226v-316zm0 0" fill="#bbdcff"/><path d="m0 181h512v30h-512zm0 0" fill="#47568c"/><path d="m391 241h30v30h-30zm0 0" fill="#bbdcff"/><path d="m256 241c-57.898438 0-105 47.101562-105 105s47.101562 105 105 105 105-47.101562 105-105-47.101562-105-105-105zm0 0" fill="#47568c"/><path d="m256 181h256v30h-256zm0 0" fill="#2c3b73"/><path d="m361 346c0 57.898438-47.101562 105-105 105v-210c57.898438 0 105 47.101562 105 105zm0 0" fill="#2c3b73"/><path d="m256 301c-24.902344 0-45 20.097656-45 45s20.097656 45 45 45 45-20.097656 45-45-20.097656-45-45-45zm0 0" fill="#25d9f8"/><path d="m301 346c0 24.902344-20.097656 45-45 45v-90c24.902344 0 45 20.097656 45 45zm0 0" fill="#00c0f1"/><path d="m256 0c-24.902344 0-45 20.097656-45 45s20.097656 45 45 45 45-20.097656 45-45-20.097656-45-45-45zm0 0" fill="#9bfcff"/><path d="m76 121c-24.8125 0-45-20.1875-45-45s20.1875-45 45-45 45 20.1875 45 45-20.1875 45-45 45zm0 0" fill="#9bfcff"/><g fill="#76e2f8"><path d="m436 121c-24.8125 0-45-20.1875-45-45s20.1875-45 45-45 45 20.1875 45 45-20.1875 45-45 45zm0 0"/><path d="m256 90v-90c24.902344 0 45 20.097656 45 45s-20.097656 45-45 45zm0 0"/></g></svg>