<svg height="512pt" viewBox="-120 0 512 512" width="512pt" xmlns="http://www.w3.org/2000/svg"><path d="m252.300781 331-6 77.199219c-3.601562 58.199219-51.898437 103.800781-110.398437 103.800781s-106.800782-45.601562-110.402344-103.800781l-6-77.199219 30-30h170.101562zm0 0" fill="#47568c"/><path d="m252.300781 331-6 77.199219c-3.601562 58.199219-51.898437 103.800781-110.398437 103.800781v-211h83.699218zm0 0" fill="#2c3b73"/><path d="m0 0 19.5 331h232.800781l19.5-331zm0 0" fill="#61729b"/><path d="m271.800781 0-19.5 331h-116.398437v-331zm0 0" fill="#47568c"/><path d="m180.902344 392v30h-30v30h-30v-30h-30v-30h30v-30h30v30zm0 0" fill="#76e2f8"/><path d="m60.902344 61h30v30h-30zm0 0" fill="#76e2f8"/><path d="m180.902344 61h30v30h-30zm0 0" fill="#28d0f7"/><path d="m60.902344 121h30v30h-30zm0 0" fill="#e0f4ff"/><path d="m120.902344 121h30v30h-30zm0 0" fill="#e0f4ff"/><path d="m180.902344 121h30v30h-30zm0 0" fill="#bbdcff"/><path d="m60.902344 181h30v30h-30zm0 0" fill="#e0f4ff"/><path d="m120.902344 181h30v30h-30zm0 0" fill="#e0f4ff"/><path d="m180.902344 181h30v30h-30zm0 0" fill="#bbdcff"/><path d="m60.902344 241h30v30h-30zm0 0" fill="#e0f4ff"/><path d="m120.902344 241h30v30h-30zm0 0" fill="#e0f4ff"/><g fill="#bbdcff"><path d="m180.902344 241h30v30h-30zm0 0"/><path d="m135.902344 121h15v30h-15zm0 0"/><path d="m135.902344 181h15v30h-15zm0 0"/><path d="m135.902344 241h15v30h-15zm0 0"/></g><path d="m180.902344 392v30h-30v30h-15v-90h15v30zm0 0" fill="#28d0f7"/></svg>