<svg height="512pt" viewBox="0 0 512 512" width="512pt" xmlns="http://www.w3.org/2000/svg"><path d="m482 331v181h-452v-181l55.800781-55.800781h350.296875zm0 0" fill="#47568c"/><path d="m482 331v181h-226v-236.800781h180.097656zm0 0" fill="#2c3b73"/><path d="m90 316h332v136h-332zm0 0" fill="#9bfcff"/><path d="m256 316h166v136h-166zm0 0" fill="#76e2f8"/><path d="m241 316h30v181h-30zm0 0" fill="#47568c"/><path d="m256 316h15v181h-15zm0 0" fill="#2c3b73"/><path d="m60 136v-61h-30v46l21.289062 15zm0 0" fill="#76e2f8"/><path d="m482 121v-46h-30v61h14.769531c7.550781-6.300781 14.792969-12.804688 15.230469-15zm0 0" fill="#28d0f7"/><path d="m45 90c-24.8125 0-45-20.1875-45-45s20.1875-45 45-45 45 20.1875 45 45-20.1875 45-45 45zm0 0" fill="#9bfcff"/><path d="m467 90c-24.8125 0-45-20.1875-45-45s20.1875-45 45-45 45 20.1875 45 45-20.1875 45-45 45zm0 0" fill="#76e2f8"/><path d="m482 190.898438v70.199218l-25.199219 32.402344h-393.199219l-33.601562-32.402344v-70.199218l33.601562-23.097657h389.300782zm0 0" fill="#bbdcff"/><path d="m482 190.898438v70.199218l-25.199219 32.402344h-200.800781v-125.699219h196.902344zm0 0" fill="#8cbbe5"/><path d="m30 261.097656h452v69.902344h-452zm0 0" fill="#e0f4ff"/><path d="m256 261.097656h226v69.902344h-226zm0 0" fill="#bbdcff"/><path d="m30 121h452v69.898438h-452zm0 0" fill="#e0f4ff"/><path d="m256 121h226v69.898438h-226zm0 0" fill="#bbdcff"/><path d="m331 121h30v270h-30zm0 0" fill="#47568c"/></svg>