<svg height="512pt" viewBox="0 -31 512 512" width="512pt" xmlns="http://www.w3.org/2000/svg"><path d="m241 309.898438h30v125.101562h-30zm0 0" fill="#bbdcff"/><path d="m256 309.898438h15v125.101562h-15zm0 0" fill="#8cbbe5"/><path d="m181 420h150v30h-150zm0 0" fill="#61729b"/><path d="m391 210v45c0 74.398438-60.601562 135-135 135s-135-60.601562-135-135v-45h120v30h-90v15c0 57.898438 47.101562 105 105 105s105-47.101562 105-105v-15h-90v-30zm0 0" fill="#bbdcff"/><path d="m256 420h75v30h-75zm0 0" fill="#47568c"/><path d="m391 210v45c0 74.398438-60.601562 135-135 135v-30c57.898438 0 105-47.101562 105-105v-15h-90v-30zm0 0" fill="#8cbbe5"/><path d="m256 0c-41.398438 0-75 33.601562-75 75v15l15 11-15 19v30l15 17-15 13v30l15 15-15 15v15c0 41.398438 33.601562 75 75 75s75-33.601562 75-75v-15l-15-15 15-15v-30l-15-19 15-11v-30l-15-13 15-17v-15c0-41.398438-33.601562-75-75-75zm0 0" fill="#e0f4ff"/><path d="m331 255v-15l-15-15 15-15v-30l-15-19 15-11v-30l-15-13 15-17v-15c0-41.398438-33.601562-75-75-75v330c41.398438 0 75-33.601562 75-75zm0 0" fill="#bbdcff"/><g fill="#76e2f8"><path d="m361 60h30v90h-30zm0 0"/><path d="m421 30h30v150h-30zm0 0"/><path d="m482 60h30v90h-30zm0 0"/></g><path d="m0 60h30v90h-30zm0 0" fill="#9bfcff"/><path d="m61 30h30v150h-30zm0 0" fill="#9bfcff"/><path d="m121 60h30v90h-30zm0 0" fill="#9bfcff"/><path d="m181 90h60v30h-60zm0 0" fill="#61729b"/><path d="m181 150h60v30h-60zm0 0" fill="#61729b"/><path d="m271 90h60v30h-60zm0 0" fill="#47568c"/><path d="m271 150h60v30h-60zm0 0" fill="#47568c"/><path d="m181 210h60v30h-60zm0 0" fill="#61729b"/><path d="m271 210h60v30h-60zm0 0" fill="#47568c"/></svg>