<svg height="512pt" viewBox="0 -16 512 512" width="512pt" xmlns="http://www.w3.org/2000/svg"><path d="m241 255h30v150h-30zm0 0" fill="#76e2f8"/><path d="m344.183594 394.394531-43.183594-43.183593v-96.210938h30v83.789062l34.394531 34.394532zm0 0" fill="#28d0f7"/><path d="m167.816406 394.394531-21.210937-21.210937 34.394531-34.394532v-83.789062h30v96.210938zm0 0" fill="#76e2f8"/><path d="m256 255h15v150h-15zm0 0" fill="#28d0f7"/><path d="m512 0v270h-56.800781l-36.898438-23.699219-24-96.300781h-276.601562l-26.699219 107.398438-34.199219 12.601562h-56.800781v-270zm0 0" fill="#e0f4ff"/><path d="m512 0v270h-56.800781l-36.898438-23.699219-24-96.300781h-138.300781v-150zm0 0" fill="#bbdcff"/><path d="m361 60h60v30h-60zm0 0" fill="#47568c"/><path d="m271 60h60v30h-60zm0 0" fill="#47568c"/><path d="m91 60h30v30h-30zm0 0" fill="#00c0f1"/><path d="m151 60h30v30h-30zm0 0" fill="#00c0f1"/><path d="m455.199219 270h-398.398438l15-60 73.199219-30h238.800781l56.398438 30zm0 0" fill="#bbdcff"/><path d="m455.199219 270h-199.199219v-90h127.800781l56.398438 30zm0 0" fill="#8cbbe5"/><path d="m417.699219 120h-323.398438l-22.5 90h368.398438zm0 0" fill="#61729b"/><path d="m440.199219 210h-184.199219v-90h161.699219zm0 0" fill="#47568c"/><path d="m256 390c-24.902344 0-45 20.097656-45 45 0 24.898438 20.097656 45 45 45s45-20.101562 45-45c0-24.902344-20.097656-45-45-45zm0 0" fill="#9bfcff"/><path d="m136 450c-24.8125 0-45-20.1875-45-45s20.1875-45 45-45 45 20.1875 45 45-20.1875 45-45 45zm0 0" fill="#9bfcff"/><g fill="#76e2f8"><path d="m376 450c-24.8125 0-45-20.1875-45-45s20.1875-45 45-45 45 20.1875 45 45-20.1875 45-45 45zm0 0"/><path d="m301 435c0 24.898438-20.097656 45-45 45v-90c24.902344 0 45 20.097656 45 45zm0 0"/></g></svg>