<svg height="512pt" viewBox="-31 0 512 512" width="512pt" xmlns="http://www.w3.org/2000/svg"><path d="m210 345h30v92h-30zm0 0" fill="#76e2f8"/><path d="m150 452h-75v-30h45v-77h30zm0 0" fill="#76e2f8"/><path d="m375 452h-75v-107h30v77h45zm0 0" fill="#28d0f7"/><path d="m225 345h15v92h-15zm0 0" fill="#28d0f7"/><path d="m30 0v360h390v-360zm0 0" fill="#ff637b"/><path d="m225 0h195v360h-195zm0 0" fill="#e63950"/><path d="m225 422c-24.902344 0-45 20.097656-45 45 0 24.898438 20.097656 45 45 45s45-20.101562 45-45c0-24.902344-20.097656-45-45-45zm0 0" fill="#9bfcff"/><path d="m45 482c-24.8125 0-45-20.1875-45-45s20.1875-45 45-45 45 20.1875 45 45-20.1875 45-45 45zm0 0" fill="#9bfcff"/><path d="m405 482c-24.8125 0-45-20.1875-45-45s20.1875-45 45-45 45 20.1875 45 45-20.1875 45-45 45zm0 0" fill="#76e2f8"/><path d="m257.101562 61.800781-17.101562-2.703125v30.902344h-30v-30.902344l-17.101562 2.703125c-58.800782 8.398438-102.898438 59.097657-102.898438 118.199219 0 59.097656 44.097656 109.800781 102.898438 118.199219l17.101562 2.699219v-30.898438h30v30.898438l17.101562-2.699219c58.800782-8.398438 102.898438-59.101563 102.898438-118.199219 0-59.101562-44.097656-109.800781-102.898438-118.199219zm0 0" fill="#e0f4ff"/><path d="m270 467c0 24.898438-20.097656 45-45 45v-90c24.902344 0 45 20.097656 45 45zm0 0" fill="#76e2f8"/><path d="m360 180c0 59.097656-44.097656 109.800781-102.898438 118.199219l-17.101562 2.699219v-30.898438h-15v-180h15v-30.902344l17.101562 2.703125c58.800782 8.398438 102.898438 59.097657 102.898438 118.199219zm0 0" fill="#bbdcff"/><path d="m180 150h30v60h-30zm0 0" fill="#61729b"/><path d="m240 150h30v60h-30zm0 0" fill="#47568c"/></svg>