<svg height="512pt" viewBox="0 0 512 512" width="512pt" xmlns="http://www.w3.org/2000/svg"><path d="m449.800781 150c-7.203125-50.699219-51-90-103.800781-90h-180c-27.898438 0-54.300781 10.800781-74.097656 30.898438-16.503906 16.203124-26.703125 36.902343-29.703125 59.101562h-32.199219v362h91v-272h270v272h91v-362zm0 0" fill="#fde4e4"/><path d="m482 150v362h-91v-272h-135v-180h90c52.800781 0 96.597656 39.300781 103.800781 90zm0 0" fill="#fcced3"/><path d="m421 361v151h-330v-151l43.800781-30h240.597657zm0 0" fill="#47568c"/><path d="m375.398438 331 45.601562 30v151h-165v-181zm0 0" fill="#2c3b73"/><path d="m326.5 401.5-70.5 70.800781-70.5-70.800781 21-21 34.5 34.199219v-68.699219h30v68.699219l34.5-34.199219zm0 0" fill="#9bfcff"/><path d="m305.5 380.5 21 21-70.5 70.800781v-126.300781h15v68.699219zm0 0" fill="#76e2f8"/><path d="m121 150h60v30h-60zm0 0" fill="#47568c"/><path d="m211 150h90v30h-90zm0 0" fill="#47568c"/><path d="m331 150h60v30h-60zm0 0" fill="#2c3b73"/><path d="m421 210v76l-27 26.398438h-266.699219l-36.300781-26.398438v-76zm0 0" fill="#61d7a8"/><path d="m256 150h45v30h-45zm0 0" fill="#2c3b73"/><path d="m421 210v76l-27 26.398438h-138v-102.398438zm0 0" fill="#00ab94"/><path d="m462.699219 48c-31.199219-30.898438-72.898438-48-116.699219-48h-180c-90.902344 0-166 74.097656-166 165v15h91v-15c0-20.101562 7.800781-38.699219 21.898438-53.101562 14.402343-14.097657 33.003906-21.898438 53.101562-21.898438h180c41.398438 0 75 33.601562 75 75v15h91v-15c0-43.800781-18.101562-85.5-49.300781-117zm0 0" fill="#ff637b"/><path d="m512 165v15h-91v-15c0-41.398438-33.601562-75-75-75h-90v-90h90c43.800781 0 85.5 17.101562 116.699219 48 31.199219 31.5 49.300781 73.199219 49.300781 117zm0 0" fill="#e63950"/><path d="m91 286h330v75h-330zm0 0" fill="#00ab94"/><path d="m256 286h165v75h-165zm0 0" fill="#009184"/></svg>