<svg height="512pt" viewBox="0 0 512 512" width="512pt" xmlns="http://www.w3.org/2000/svg"><path d="m241 347h30v90h-30zm0 0" fill="#76e2f8"/><path d="m406 452h-75v-105h30v75h45zm0 0" fill="#28d0f7"/><path d="m181 452h-75v-30h45v-75h30zm0 0" fill="#76e2f8"/><path d="m256 347h15v90h-15zm0 0" fill="#28d0f7"/><path d="m391 135v150h-270v-150c0-74.402344 60.601562-135 135-135s135 60.597656 135 135zm0 0" fill="#ff637b"/><path d="m391 135v150h-135v-285c74.398438 0 135 60.597656 135 135zm0 0" fill="#e63950"/><path d="m331 120v90h-45c-11.699219 0-21.898438-4.5-30-11.699219-8.101562 7.199219-18.300781 11.699219-30 11.699219h-45v-90h45c11.699219 0 21.898438 4.5 30 11.699219 8.101562-7.203125 18.300781-11.699219 30-11.699219zm0 0" fill="#fdbf00"/><path d="m241 165h30v120h-30zm0 0" fill="#fdbf00"/><path d="m286 210c-11.699219 0-21.898438-4.5-30-11.699219v-66.601562c8.101562-7.203125 18.300781-11.699219 30-11.699219h45v90zm0 0" fill="#ff9100"/><path d="m256 165h15v120h-15zm0 0" fill="#ff9100"/><path d="m256 422c-24.902344 0-45 20.097656-45 45 0 24.898438 20.097656 45 45 45s45-20.101562 45-45c0-24.902344-20.097656-45-45-45zm0 0" fill="#9bfcff"/><path d="m76 482c-24.8125 0-45-20.1875-45-45s20.1875-45 45-45 45 20.1875 45 45-20.1875 45-45 45zm0 0" fill="#9bfcff"/><path d="m436 482c-24.8125 0-45-20.1875-45-45s20.1875-45 45-45 45 20.1875 45 45-20.1875 45-45 45zm0 0" fill="#76e2f8"/><path d="m91 270v92h330v-92zm0 0" fill="#47568c"/><path d="m452 120h60v30h-60zm0 0" fill="#ff9100"/><path d="m0 120h60v30h-60zm0 0" fill="#fdbf00"/><path d="m31.234375 256.363281-12.683594-27.1875 54.375-25.359375 12.683594 27.191406zm0 0" fill="#fdbf00"/><path d="m439.074219 66.183594-12.683594-27.191406 54.375-25.355469 12.683594 27.1875zm0 0" fill="#ff9100"/><path d="m72.925781 66.183594-54.375-25.359375 12.683594-27.1875 54.375 25.355469zm0 0" fill="#fdbf00"/><path d="m480.765625 256.363281-54.375-25.355469 12.683594-27.191406 54.375 25.359375zm0 0" fill="#ff9100"/><path d="m301 467c0 24.898438-20.097656 45-45 45v-90c24.902344 0 45 20.097656 45 45zm0 0" fill="#76e2f8"/><path d="m256 270h165v92h-165zm0 0" fill="#2c3b73"/></svg>