<svg height="512pt" viewBox="0 0 512 512" width="512pt" xmlns="http://www.w3.org/2000/svg"><g fill="#fdd0d0"><path d="m391 211v135c0 74.398438-60.601562 136-135 136s-135-61.601562-135-136h30c0 57.898438 47.101562 106 105 106s105-48.101562 105-106v-135zm0 0"/><path d="m391 166h-30c0-57.898438-47.101562-106-105-106s-105 48.101562-105 106v135h-30v-135c0-74.402344 60.601562-136 135-136s135 61.597656 135 136zm0 0"/><path d="m331 346c0 41.398438-33.601562 75-75 75s-75-33.601562-75-75v-135h30v135c0 24.898438 20.097656 45 45 45s45-20.101562 45-45zm0 0"/><path d="m331 166v135h-30v-135c0-24.902344-20.097656-45-45-45s-45 20.097656-45 45h-30c0-41.398438 33.601562-75 75-75s75 33.601562 75 75zm0 0"/><path d="m241 151h30v210h-30zm0 0"/></g><path d="m256 121v-30c41.398438 0 75 33.601562 75 75v135h-30v-135c0-24.902344-20.097656-45-45-45zm0 0" fill="#faaaaa"/><path d="m256 60v-30c74.398438 0 135 61.597656 135 136h-30c0-57.898438-47.101562-106-105-106zm0 0" fill="#faaaaa"/><path d="m361 211h30v135c0 74.398438-60.601562 136-135 136v-30c57.898438 0 105-48.101562 105-106zm0 0" fill="#faaaaa"/><path d="m256 151h15v210h-15zm0 0" fill="#faaaaa"/><path d="m75 241h362v30h-362zm0 0" fill="#76e2f8"/><path d="m30 121h-30v-121h121v30h-91zm0 0" fill="#ff637b"/><path d="m512 121h-30v-91h-91v-30h121zm0 0" fill="#e63950"/><path d="m121 512h-121v-121h30v91h91zm0 0" fill="#ff637b"/><path d="m512 512h-121v-30h91v-91h30zm0 0" fill="#e63950"/><path d="m256 421v-30c24.902344 0 45-20.101562 45-45h30c0 41.398438-33.601562 75-75 75zm0 0" fill="#faaaaa"/><path d="m256 241h181v30h-181zm0 0" fill="#28d0f7"/><path d="m467 301c-24.8125 0-45-20.1875-45-45s20.1875-45 45-45 45 20.1875 45 45-20.1875 45-45 45zm0 0" fill="#76e2f8"/><path d="m45 301c-24.8125 0-45-20.1875-45-45s20.1875-45 45-45 45 20.1875 45 45-20.1875 45-45 45zm0 0" fill="#9bfcff"/></svg>