<svg height="512pt" viewBox="0 0 512 512" width="512pt" xmlns="http://www.w3.org/2000/svg"><path d="m482 241-22.5 15.898438 22.5 14.101562v30l-17.699219 14.097656 17.699219 15.902344v30l-22.5 16.800781 22.5 13.199219v30l-19.800781 19.800781 19.800781 10.199219v46h-452v-46l20.699219-6.601562-20.699219-23.398438v-30l16.800781-13.199219-16.800781-16.800781v-30l22.5-9.300781-22.5-20.699219v-30l25.199219-13.199219-25.199219-16.800781v-60h452zm0 0" fill="#ff637b"/><path d="m482 241-22.5 15.898438 22.5 14.101562v30l-17.699219 14.097656 17.699219 15.902344v30l-22.5 16.800781 22.5 13.199219v30l-19.800781 19.800781 19.800781 10.199219v46h-226v-316h226zm0 0" fill="#e63950"/><path d="m391 376v121h-270v-121c0-74.402344 60.601562-135 135-135s135 60.597656 135 135zm0 0" fill="#e63950"/><path d="m391 376v121h-135v-256c74.398438 0 135 60.597656 135 135zm0 0" fill="#ae2538"/><path d="m30 75h30v61h-30zm0 0" fill="#76e2f8"/><path d="m452 75h30v61h-30zm0 0" fill="#28d0f7"/><path d="m0 121v90h512v-90zm0 0" fill="#fdd0d0"/><g fill="#e63950"><path d="m30 421h60v30h-60zm0 0"/><path d="m30 361h60v30h-60zm0 0"/><path d="m30 301h60v30h-60zm0 0"/><path d="m30 241h60v30h-60zm0 0"/></g><path d="m422 421h60v30h-60zm0 0" fill="#ae2538"/><path d="m422 361h60v30h-60zm0 0" fill="#ae2538"/><path d="m422 301h60v30h-60zm0 0" fill="#ae2538"/><path d="m422 241h60v30h-60zm0 0" fill="#ae2538"/><path d="m331 436c0 22.5-9.902344 44.800781-27.597656 58.898438-3.300782 3-7.203125 5.402343-11.101563 7.800781h-72.601562c-18.597657-10.5-32.699219-29.5-36.898438-50.5-5.097656-24 1.199219-48.300781 17.402344-66.300781l55.796875-62.398438 55.800781 62.398438c12.300781 13.800781 19.199219 31.5 19.199219 50.101562zm0 0" fill="#ffda2d"/><path d="m311.800781 385.898438c12.300781 13.800781 19.199219 31.5 19.199219 50.101562 0 22.5-9.902344 44.800781-27.597656 58.898438-3.300782 3-7.203125 5.402343-11.101563 7.800781h-36.300781v-179.199219zm0 0" fill="#fdbf00"/><path d="m256 121h256v90h-256zm0 0" fill="#faaaaa"/><path d="m0 482h512v30h-512zm0 0" fill="#fdd0d0"/><path d="m256 482h256v30h-256zm0 0" fill="#faaaaa"/><path d="m45 90c-24.8125 0-45-20.1875-45-45s20.1875-45 45-45 45 20.1875 45 45-20.1875 45-45 45zm0 0" fill="#9bfcff"/><path d="m467 90c-24.8125 0-45-20.1875-45-45s20.1875-45 45-45 45 20.1875 45 45-20.1875 45-45 45zm0 0" fill="#76e2f8"/></svg>