<svg height="512pt" viewBox="0 -46 512 512" width="512pt" xmlns="http://www.w3.org/2000/svg"><path d="m211 15h90v105h-90zm0 0" fill="#47568c"/><path d="m241 225h30v120h-30zm0 0" fill="#76e2f8"/><path d="m406 360h-75v-135h30v105h45zm0 0" fill="#28d0f7"/><path d="m181 360h-75v-30h45v-105h30zm0 0" fill="#76e2f8"/><path d="m256 15h45v105h-45zm0 0" fill="#2c3b73"/><path d="m256 225h15v120h-15zm0 0" fill="#28d0f7"/><path d="m437 90h-362c-41.398438 0-75 33.601562-75 75s33.601562 75 75 75h362c41.398438 0 75-33.601562 75-75s-33.601562-75-75-75zm0 0" fill="#61729b"/><path d="m151 0h210v30h-210zm0 0" fill="#61729b"/><path d="m256 0h105v30h-105zm0 0" fill="#47568c"/><path d="m512 165c0 41.398438-33.601562 75-75 75h-181v-150h181c41.398438 0 75 33.601562 75 75zm0 0" fill="#47568c"/><g fill="#9bfcff"><path d="m60 150h30v30h-30zm0 0"/><path d="m121 150h30v30h-30zm0 0"/><path d="m181 150h30v30h-30zm0 0"/></g><path d="m331 150h121v30h-121zm0 0" fill="#76e2f8"/><path d="m256 330c-24.902344 0-45 20.097656-45 45s20.097656 45 45 45 45-20.097656 45-45-20.097656-45-45-45zm0 0" fill="#9bfcff"/><path d="m76 390c-24.8125 0-45-20.1875-45-45s20.1875-45 45-45 45 20.1875 45 45-20.1875 45-45 45zm0 0" fill="#9bfcff"/><path d="m436 390c-24.8125 0-45-20.1875-45-45s20.1875-45 45-45 45 20.1875 45 45-20.1875 45-45 45zm0 0" fill="#76e2f8"/><path d="m301 375c0 24.902344-20.097656 45-45 45v-90c24.902344 0 45 20.097656 45 45zm0 0" fill="#76e2f8"/></svg>