<svg height="512pt" viewBox="-31 0 512 512" width="512pt" xmlns="http://www.w3.org/2000/svg"><path d="m318.632812 420.546875-7.265624-29.09375 56.191406-14.046875c30.878906-7.71875 52.441406-35.347656 52.441406-67.175781 0-38.175781-31.054688-69.230469-69.230469-69.230469h-35.769531v-30h35.769531c54.714844 0 99.230469 44.515625 99.230469 99.230469 0 45.613281-30.90625 85.207031-75.175781 96.269531zm0 0" fill="#ae2538"/><path d="m0 181v170.097656c0 58.800782 22.800781 115 64.5 156.402344l4.199219 4.5h192.601562l4.199219-4.5c41.699219-41.402344 64.5-97.601562 64.5-156.402344v-170.097656zm0 0" fill="#ff637b"/><path d="m330 181v170.097656c0 58.800782-22.800781 115-64.5 156.402344l-4.199219 4.5h-96.300781v-331zm0 0" fill="#e63950"/><path d="m270 0v15c0 24.902344-20.097656 45-45 45h-60c-8.402344 0-15 6.597656-15 15v15h-30v-15c0-24.902344 20.097656-45 45-45h60c8.402344 0 15-6.597656 15-15v-15zm0 0" fill="#fde4e4"/><path d="m210 150h-30v-15c0-24.8125 20.1875-45 45-45h60c8.277344 0 15-6.722656 15-15v-15h30v15c0 24.8125-20.1875 45-45 45h-60c-8.277344 0-15 6.722656-15 15zm0 0" fill="#fcced3"/><path d="m214.5 314.199219-21.300781 21.300781-43.199219-43.199219v-111.300781h30v98.699219zm0 0" fill="#76e2f8"/><path d="m180 399.699219v112.300781h-30v-99.699219l-34.5-34.5 21.300781-21.300781zm0 0" fill="#76e2f8"/><path d="m165 384.699219 15 15v112.300781h-15zm0 0" fill="#28d0f7"/><path d="m180 279.699219 34.5 34.5-21.300781 21.300781-28.199219-28.199219v-126.300781h15zm0 0" fill="#28d0f7"/><path d="m270 0v15c0 24.902344-20.097656 45-45 45h-60v-30h60c8.402344 0 15-6.597656 15-15v-15zm0 0" fill="#fcced3"/><path d="m225 391c-24.8125 0-45-20.1875-45-45s20.1875-45 45-45 45 20.1875 45 45-20.1875 45-45 45zm0 0" fill="#76e2f8"/><path d="m105 391c-24.8125 0-45-20.1875-45-45s20.1875-45 45-45 45 20.1875 45 45-20.1875 45-45 45zm0 0" fill="#9bfcff"/></svg>