<svg height="512pt" viewBox="0 -31 512 512" width="512pt" xmlns="http://www.w3.org/2000/svg"><path d="m241 255h30v120h-30zm0 0" fill="#76e2f8"/><path d="m406 390h-75v-135h30v105h45zm0 0" fill="#28d0f7"/><path d="m181 390h-75v-30h45v-105h30zm0 0" fill="#76e2f8"/><path d="m256 255h15v120h-15zm0 0" fill="#28d0f7"/><path d="m0 0v270h512v-270zm0 0" fill="#e0f4ff"/><path d="m211 210h-150v-81.210938l75-75 75 75zm0 0" fill="#ff637b"/><path d="m256 0h256v270h-256zm0 0" fill="#bbdcff"/><path d="m121 150h30v60h-30zm0 0" fill="#47568c"/><path d="m256 360c-24.902344 0-45 20.097656-45 45 0 24.898438 20.097656 45 45 45s45-20.101562 45-45c0-24.902344-20.097656-45-45-45zm0 0" fill="#9bfcff"/><path d="m76 420c-24.8125 0-45-20.1875-45-45s20.1875-45 45-45 45 20.1875 45 45-20.1875 45-45 45zm0 0" fill="#9bfcff"/><path d="m436 420c-24.8125 0-45-20.1875-45-45s20.1875-45 45-45 45 20.1875 45 45-20.1875 45-45 45zm0 0" fill="#76e2f8"/><g fill="#47568c"><path d="m301 60h30v30h-30zm0 0"/><path d="m361 60h30v30h-30zm0 0"/><path d="m421 60h30v30h-30zm0 0"/><path d="m301 120h30v30h-30zm0 0"/><path d="m361 120h30v30h-30zm0 0"/><path d="m421 120h30v30h-30zm0 0"/><path d="m301 180h30v30h-30zm0 0"/><path d="m361 180h30v30h-30zm0 0"/><path d="m421 180h30v30h-30zm0 0"/></g><path d="m301 405c0 24.898438-20.097656 45-45 45v-90c24.902344 0 45 20.097656 45 45zm0 0" fill="#76e2f8"/></svg>