<svg height="512pt" viewBox="0 0 512 512" width="512pt" xmlns="http://www.w3.org/2000/svg"><path d="m391 123.8125h-30v-92.8125h75v30h-45zm0 0" fill="#28d0f7"/><path d="m451 139.601562v232.796876c0 26.699218-21.898438 48.601562-48.601562 48.601562-27 0-48.898438-21.902344-48.898438-48.601562-3.300781 0-16.800781-74.699219-24.300781-116.398438-3-16.199219-4.796875-27.300781-4.796875-27.300781l29.097656-89.097657c0-26.703124 21.898438-48.601562 48.898438-48.601562 26.703124 0 48.601562 21.898438 48.601562 48.601562zm0 0" fill="#bbdcff"/><path d="m151 136h-30v-75h-45v-30h75zm0 0" fill="#76e2f8"/><path d="m436 482h-75v-106h30v76h45zm0 0" fill="#28d0f7"/><path d="m151 482h-75v-30h45v-71.3125h30zm0 0" fill="#76e2f8"/><path d="m313.300781 295.300781-57.300781 77.097657c0 26.699218-21.898438 48.601562-48.601562 48.601562-27 0-48.898438-21.902344-48.898438-48.601562l-44.398438-116.398438-14.699218-38.402344 59.097656-77.996094c0-26.703124 21.898438-48.601562 48.898438-48.601562 26.703124 0 48.601562 21.898438 48.601562 48.601562l42.898438 116.398438zm0 0" fill="#bbdcff"/><path d="m298.898438 256 14.402343 39.300781-57.300781 77.097657c0 26.699218-21.898438 48.601562-48.601562 48.601562-27 0-48.898438-21.902344-48.898438-48.601562l-44.398438-116.398438zm0 0" fill="#8cbbe5"/><path d="m451 256v116.398438c0 26.699218-21.898438 48.601562-48.601562 48.601562-27 0-48.898438-21.902344-48.898438-48.601562-3.300781 0-16.800781-74.699219-24.300781-116.398438zm0 0" fill="#8cbbe5"/><path d="m158.5 139.601562v232.796876c0 26.699218-21.898438 48.601562-48.601562 48.601562h-.296876c-26.703124 0-48.601562-21.902344-48.601562-48.601562v-232.796876c0-26.703124 21.898438-48.601562 48.601562-48.601562h.296876c26.703124 0 48.601562 21.898438 48.601562 48.601562zm0 0" fill="#e0f4ff"/><path d="m353.5 139.601562v232.796876c0 26.699218-21.898438 48.601562-48.601562 48.601562h-.296876c-26.703124 0-48.601562-21.902344-48.601562-48.601562v-232.796876c0-26.703124 21.898438-48.601562 48.601562-48.601562h.296876c26.703124 0 48.601562 21.898438 48.601562 48.601562zm0 0" fill="#e0f4ff"/><path d="m61 256h97.5v116.398438c0 26.699218-21.898438 48.601562-48.601562 48.601562h-.296876c-26.703124 0-48.601562-21.902344-48.601562-48.601562zm0 0" fill="#bbdcff"/><path d="m353.5 256v116.398438c0 26.699218-21.898438 48.601562-48.601562 48.601562h-.296876c-26.703124 0-48.601562-21.902344-48.601562-48.601562v-116.398438zm0 0" fill="#bbdcff"/><path d="m45 512c-24.8125 0-45-20.1875-45-45s20.1875-45 45-45 45 20.1875 45 45-20.1875 45-45 45zm0 0" fill="#9bfcff"/><path d="m467 512c-24.8125 0-45-20.1875-45-45s20.1875-45 45-45 45 20.1875 45 45-20.1875 45-45 45zm0 0" fill="#76e2f8"/><path d="m467 90c-24.8125 0-45-20.1875-45-45s20.1875-45 45-45 45 20.1875 45 45-20.1875 45-45 45zm0 0" fill="#76e2f8"/><path d="m45 90c-24.8125 0-45-20.1875-45-45s20.1875-45 45-45 45 20.1875 45 45-20.1875 45-45 45zm0 0" fill="#9bfcff"/></svg>