<svg height="512pt" viewBox="0 0 512 512" width="512pt" xmlns="http://www.w3.org/2000/svg"><path d="m256 0-256 182.5v88.5h91v-42.300781l165-117.898438 165 117.898438v42.300781h91v-88.5zm0 0" fill="#ff637b"/><path d="m512 182.5v88.5h-91v-42.300781l-165-117.898438v-110.800781zm0 0" fill="#e63950"/><path d="m256 74.199219-195 138.902343v298.898438h390v-298.898438zm0 0" fill="#fde4e4"/><path d="m451 213.101562v298.898438h-195v-437.800781zm0 0" fill="#fcced3"/><path d="m181 196h30v60h-30zm0 0" fill="#61729b"/><path d="m241 196h30v60h-30zm0 0" fill="#61729b"/><path d="m301 196h30v60h-30zm0 0" fill="#47568c"/><path d="m181 376h30v60h-30zm0 0" fill="#61729b"/><path d="m241 376h30v60h-30zm0 0" fill="#61729b"/><path d="m301 376h30v60h-30zm0 0" fill="#47568c"/><path d="m136 361h60v30h-60zm0 0" fill="#61729b"/><path d="m136 301h60v30h-60zm0 0" fill="#61729b"/><path d="m136 241h60v30h-60zm0 0" fill="#61729b"/><g fill="#47568c"><path d="m316 361h60v30h-60zm0 0"/><path d="m316 301h60v30h-60zm0 0"/><path d="m316 241h60v30h-60zm0 0"/><path d="m256 196h15v60h-15zm0 0"/><path d="m256 376h15v60h-15zm0 0"/></g><path d="m181 241v150h150v-150zm0 0" fill="#00c0f1"/><path d="m256 241h75v150h-75zm0 0" fill="#009ae4"/></svg>