<svg height="512pt" viewBox="-31 0 512 512" width="512pt" xmlns="http://www.w3.org/2000/svg"><path d="m210 377h30v60h-30zm0 0" fill="#76e2f8"/><path d="m120 392v30h-45v30h75v-75h-5.9375zm0 0" fill="#76e2f8"/><path d="m330 422v-30l-30-15v75h75v-30zm0 0" fill="#28d0f7"/><path d="m225 377h15v60h-15zm0 0" fill="#28d0f7"/><path d="m420 360h-105v-30h75v-135h30zm0 0" fill="#47568c"/><path d="m225 422c-24.902344 0-45 20.097656-45 45 0 24.898438 20.097656 45 45 45s45-20.101562 45-45c0-24.902344-20.097656-45-45-45zm0 0" fill="#9bfcff"/><path d="m45 482c-24.8125 0-45-20.1875-45-45s20.1875-45 45-45 45 20.1875 45 45-20.1875 45-45 45zm0 0" fill="#9bfcff"/><path d="m405 482c-24.8125 0-45-20.1875-45-45s20.1875-45 45-45 45 20.1875 45 45-20.1875 45-45 45zm0 0" fill="#76e2f8"/><path d="m120 270v122h210v-122zm0 0" fill="#e63950"/><path d="m225 270h105v122h-105zm0 0" fill="#ae2538"/><path d="m225 0c-90.902344 0-165 74.097656-165 165 0 90.898438 74.097656 165 165 165s165-74.101562 165-165c0-90.902344-74.097656-165-165-165zm0 0" fill="#ff637b"/><path d="m405 210c-24.8125 0-45-20.1875-45-45s20.1875-45 45-45 45 20.1875 45 45-20.1875 45-45 45zm0 0" fill="#ae2538"/><path d="m390 165c0 90.898438-74.097656 165-165 165v-330c90.902344 0 165 74.097656 165 165zm0 0" fill="#e63950"/><path d="m225 90c-41.398438 0-75 33.601562-75 75s33.601562 75 75 75 75-33.601562 75-75-33.601562-75-75-75zm0 0" fill="#fdd0d0"/><path d="m300 165c0 41.398438-33.601562 75-75 75v-150c41.398438 0 75 33.601562 75 75zm0 0" fill="#faaaaa"/><path d="m270 467c0 24.898438-20.097656 45-45 45v-90c24.902344 0 45 20.097656 45 45zm0 0" fill="#76e2f8"/></svg>