<svg height="512pt" viewBox="0 0 512 512" width="512pt" xmlns="http://www.w3.org/2000/svg"><path d="m136 136h240v240h-240zm0 0" fill="#e0f4ff"/><g fill="#bbdcff"><path d="m256 136h120v240h-120zm0 0"/><path d="m327.699219 0h-143.398438l-37.5 151h218.398438zm0 0"/><path d="m146.800781 361 37.5 151h143.398438l37.5-151zm0 0"/></g><path d="m121 121v270h270v-270zm240 240h-210v-210h210zm0 0" fill="#47568c"/><path d="m256 361h109.199219l-37.5 151h-71.699219zm0 0" fill="#8cbbe5"/><path d="m365.199219 151h-109.199219v-151h71.699219zm0 0" fill="#8cbbe5"/><path d="m391 121v270h-135v-30h105v-210h-105v-30zm0 0" fill="#2c3b73"/><path d="m181 331h-105v-30h120v15c0 8.285156-6.714844 15-15 15zm0 0" fill="#76e2f8"/><path d="m256 181h180v30h-180zm0 0" fill="#28d0f7"/><path d="m256 174.699219-75 75v81.300781h150v-81.300781zm0 0" fill="#ff637b"/><path d="m331 249.699219v81.300781h-75v-156.300781zm0 0" fill="#e63950"/><path d="m241 271h30v60h-30zm0 0" fill="#47568c"/><path d="m256 271h15v60h-15zm0 0" fill="#2c3b73"/><path d="m45 361c-24.8125 0-45-20.1875-45-45s20.1875-45 45-45 45 20.1875 45 45-20.1875 45-45 45zm0 0" fill="#9bfcff"/><path d="m467 241c-24.8125 0-45-20.1875-45-45s20.1875-45 45-45 45 20.1875 45 45-20.1875 45-45 45zm0 0" fill="#76e2f8"/></svg>