<svg height="512pt" viewBox="0 0 512 512" width="512pt" xmlns="http://www.w3.org/2000/svg"><path d="m211 436h30v61h-30zm0 0" fill="#bbdcff"/><path d="m271 286h-30v-165h-105v-30h135zm0 0" fill="#76e2f8"/><path d="m211 286h-30v-45h-105v-30h135zm0 0" fill="#76e2f8"/><path d="m147.757812 331h-66.078124l-81.679688 122.519531 74.882812 49.921875 54.960938-82.441406h29.914062zm0 0" fill="#e63950"/><path d="m404.199219 287.5c-8.699219-10.5-21.300781-16.5-34.796875-16.5h-196.804688c-13.496094 0-26.097656 6-34.796875 16.5s-12 24-9.300781 37.199219l18 90c4.199219 21 22.800781 36.300781 44.101562 36.300781h160.796876c21.300781 0 39.902343-15.300781 44.101562-36.300781l18-90c2.699219-13.199219-.601562-26.699219-9.300781-37.199219zm0 0" fill="#e0f4ff"/><path d="m301 436h30v61h-30zm0 0" fill="#8cbbe5"/><path d="m106 151c-24.8125 0-45-20.1875-45-45s20.1875-45 45-45 45 20.1875 45 45-20.1875 45-45 45zm0 0" fill="#9bfcff"/><path d="m45 271c-24.8125 0-45-20.1875-45-45s20.1875-45 45-45 45 20.1875 45 45-20.1875 45-45 45zm0 0" fill="#9bfcff"/><path d="m365.90625 167.773438c-5.199219 0-10.398438-.910157-15.425781-2.742188-23.320313-8.480469-35.390625-34.363281-26.894531-57.667969l20.523437-56.382812c4.117187-11.292969 12.378906-20.316407 23.261719-25.402344 10.914062-5.082031 23.117187-5.609375 34.410156-1.492187 23.320312 8.480468 35.390625 34.363281 26.894531 57.671874l-20.523437 56.382813c-4.113282 11.292969-12.375 20.316406-23.261719 25.398437-6.046875 2.8125-12.507813 4.234376-18.984375 4.234376zm0 0" fill="#ae2538"/><path d="m427.433594 0-103.144532 280.871094 86.019532 26.777344 101.691406-276.859376zm0 0" fill="#e63950"/><g fill="#bbdcff"><path d="m181 482h180v30h-180zm0 0"/><path d="m413.5 324.699219-18 90c-4.199219 21-22.800781 36.300781-44.101562 36.300781h-80.398438v-180h98.402344c13.496094 0 26.097656 6 34.796875 16.5s12 24 9.300781 37.199219zm0 0"/><path d="m211 331h120v30h-120zm0 0"/></g><path d="m271 331h60v30h-60zm0 0" fill="#8cbbe5"/><path d="m271 482h90v30h-90zm0 0" fill="#8cbbe5"/></svg>