<svg height="512pt" viewBox="0 0 512 512" width="512pt" xmlns="http://www.w3.org/2000/svg"><path d="m392 196v75h120v-60l-18.066406-15zm0 0" fill="#bbdcff"/><path d="m151 286h30v151h-30zm0 0" fill="#76e2f8"/><path d="m241 301-30-15v97.210938l43.183594 43.183593 21.210937-21.210937-34.394531-34.394532zm0 0" fill="#28d0f7"/><path d="m91 370.789062-34.394531 34.394532 21.210937 21.210937 43.183594-43.183593v-97.210938l-30 15zm0 0" fill="#76e2f8"/><path d="m166 286h15v151h-15zm0 0" fill="#28d0f7"/><path d="m357.699219 0-191.699219 46.300781-75 17.699219v237h150v-241.5l123.300781-30.101562zm0 0" fill="#e0f4ff"/><path d="m226 121h286v90h-286zm0 0" fill="#8cbbe5"/><path d="m364.300781 29.398438-123.300781 30.101562v241.5h-75v-254.699219l191.699219-46.300781zm0 0" fill="#bbdcff"/><path d="m166 422c-24.902344 0-45 20.097656-45 45 0 24.898438 20.097656 45 45 45s45-20.101562 45-45c0-24.902344-20.097656-45-45-45zm0 0" fill="#9bfcff"/><path d="m45 482c-24.8125 0-45-20.1875-45-45s20.1875-45 45-45 45 20.1875 45 45-20.1875 45-45 45zm0 0" fill="#9bfcff"/><g fill="#76e2f8"><path d="m286 482c-24.8125 0-45-20.1875-45-45s20.1875-45 45-45 45 20.1875 45 45-20.1875 45-45 45zm0 0"/><path d="m211 467c0 24.898438-20.097656 45-45 45v-90c24.902344 0 45 20.097656 45 45zm0 0"/></g></svg>