<svg height="512pt" viewBox="0 -46 512 512" width="512pt" xmlns="http://www.w3.org/2000/svg"><path d="m300 0v120l-36.898438 30h-234.601562l-28.5-30v-120zm0 0" fill="#47568c"/><path d="m300 0v120l-36.898438 30h-113.101562v-150zm0 0" fill="#2c3b73"/><g fill="#28d0f7"><path d="m351.539062 210h-66.539062v-30h57.460938l61.257812-40.839844 16.640625 24.960938zm0 0"/><path d="m285 240h152v30h-152zm0 0"/><path d="m405.183594 364.394531-34.394532-34.394531h-85.789062v-30h98.210938l43.183593 43.183594zm0 0"/></g><path d="m0 120v300h300v-300zm0 0" fill="#e0f4ff"/><path d="m150 120h150v300h-150zm0 0" fill="#bbdcff"/><path d="m437 180c-24.8125 0-45-20.1875-45-45s20.1875-45 45-45 45 20.1875 45 45-20.1875 45-45 45zm0 0" fill="#76e2f8"/><path d="m467 300c-24.8125 0-45-20.1875-45-45s20.1875-45 45-45 45 20.1875 45 45-20.1875 45-45 45zm0 0" fill="#76e2f8"/><path d="m437 420c-24.8125 0-45-20.1875-45-45s20.1875-45 45-45 45 20.1875 45 45-20.1875 45-45 45zm0 0" fill="#76e2f8"/><path d="m200.699219 261.597656-5.699219 68.101563c-12.597656 9.601562-27.898438 15.300781-45 15.300781-41.398438 0-75-33.601562-75-75s33.601562-75 75-75c17.101562 0 32.402344 5.699219 45 15.300781zm0 0" fill="#25d9f8"/><path d="m195 210.300781 5.699219 51.296875-5.699219 68.101563c-12.597656 9.601562-27.898438 15.300781-45 15.300781v-150c17.101562 0 32.402344 5.699219 45 15.300781zm0 0" fill="#00c0f1"/><path d="m225 270c0-24.46875-11.890625-45.984375-30.019531-59.675781-18.117188 13.691406-29.980469 35.214843-29.980469 59.675781s11.863281 45.984375 29.984375 59.675781c18.125-13.691406 30.015625-35.210937 30.015625-59.675781zm0 0" fill="#009ae4"/><path d="m150 180c-49.5 0-90 40.5-90 90s40.5 90 90 90 90-40.5 90-90-40.5-90-90-90zm0 150c-33 0-60-27-60-60s27-60 60-60 60 27 60 60-27 60-60 60zm0 0" fill="#47568c"/><path d="m240 270c0 49.5-40.5 90-90 90v-30c33 0 60-27 60-60s-27-60-60-60v-30c49.5 0 90 40.5 90 90zm0 0" fill="#2c3b73"/><path d="m60 60h30v30h-30zm0 0" fill="#e0f4ff"/><path d="m120 60h30v30h-30zm0 0" fill="#e0f4ff"/><path d="m180 60h60v30h-60zm0 0" fill="#bbdcff"/></svg>