<svg height="512" viewBox="0 0 512 512" width="512" xmlns="http://www.w3.org/2000/svg"><g id="Bin"><path d="m96 64h320v80h-320z" fill="#57a4ff"/><path d="m192 64h128v2h-128z" fill="#57a4ff"/><g fill="#004fac"><path d="m416 56h-88v-24a24.027 24.027 0 0 0 -24-24h-96a24.027 24.027 0 0 0 -24 24v24h-88a8 8 0 0 0 -8 8v80a8 8 0 0 0 8 8h16v328a24.028 24.028 0 0 0 24 24h240a24.028 24.028 0 0 0 24-24v-328h16a8 8 0 0 0 8-8v-80a8 8 0 0 0 -8-8zm-216-24a8.009 8.009 0 0 1 8-8h96a8.009 8.009 0 0 1 8 8v24h-112zm184 448a8.009 8.009 0 0 1 -8 8h-240a8.009 8.009 0 0 1 -8-8v-328h256zm24-344h-304v-64h304z"/><path d="m256 464a8 8 0 0 0 8-8v-272a8 8 0 0 0 -16 0v272a8 8 0 0 0 8 8z"/><path d="m192 464a8 8 0 0 0 8-8v-272a8 8 0 0 0 -16 0v272a8 8 0 0 0 8 8z"/><path d="m320 464a8 8 0 0 0 8-8v-272a8 8 0 0 0 -16 0v272a8 8 0 0 0 8 8z"/><path d="m184 80h-64a8 8 0 0 0 0 16h64a8 8 0 0 0 0-16z"/><path d="m216 80h-8a8 8 0 0 0 0 16h8a8 8 0 0 0 0-16z"/></g></g></svg>