<svg height="512" viewBox="0 0 512 512" width="512" xmlns="http://www.w3.org/2000/svg"><g id="Bookmark"><path d="m384 498-128-112-128 112v-480h256z" fill="#57a4ff"/><g fill="#004fac"><path d="m384 8h-256a8 8 0 0 0 -8 8v480a8 8 0 0 0 13.268 6.021l122.732-107.391 122.732 107.391a8 8 0 0 0 13.268-6.021v-480a8 8 0 0 0 -8-8zm-8 470.37-114.732-100.391a8 8 0 0 0 -10.536 0l-114.732 100.391v-454.37h240z"/><path d="m160 56h56a8 8 0 0 0 0-16h-56a8 8 0 0 0 0 16z"/><path d="m240 56h8a8 8 0 0 0 0-16h-8a8 8 0 0 0 0 16z"/></g></g></svg>