<svg height="512" viewBox="0 0 512 512" width="512" xmlns="http://www.w3.org/2000/svg"><g id="Brightness"><circle cx="256" cy="258" fill="#57a4ff" r="136"/><g fill="#004fac"><path d="m256 112c-79.4 0-144 64.6-144 144s64.6 144 144 144 144-64.6 144-144-64.6-144-144-144zm0 272a128 128 0 1 1 128-128 128.145 128.145 0 0 1 -128 128z"/><path d="m256 72a8 8 0 0 0 8-8v-48a8 8 0 0 0 -16 0v48a8 8 0 0 0 8 8z"/><path d="m256 440a8 8 0 0 0 -8 8v48a8 8 0 0 0 16 0v-48a8 8 0 0 0 -8-8z"/><path d="m496 248h-48a8 8 0 0 0 0 16h48a8 8 0 0 0 0-16z"/><path d="m64 248h-48a8 8 0 0 0 0 16h48a8 8 0 0 0 0-16z"/><path d="m420.049 80.638-33.942 33.941a8 8 0 0 0 11.315 11.313l33.941-33.941a8 8 0 1 0 -11.314-11.313z"/><path d="m114.578 386.108-33.941 33.941a8 8 0 1 0 11.314 11.313l33.942-33.941a8 8 0 0 0 -11.315-11.313z"/><path d="m397.422 386.108a8 8 0 1 0 -11.315 11.313l33.942 33.941a8 8 0 1 0 11.314-11.313z"/><path d="m114.578 125.892a8 8 0 1 0 11.315-11.313l-33.942-33.941a8 8 0 0 0 -11.314 11.313z"/><path d="m256 104a8 8 0 0 0 8-8v-8a8 8 0 0 0 -16 0v8a8 8 0 0 0 8 8z"/></g></g></svg>