<svg height="512" viewBox="0 0 512 512" width="512" xmlns="http://www.w3.org/2000/svg"><g id="Calendar-2" data-name="Calendar"><g fill="#57a4ff"><path d="m496 138v24h-480v-24a32 32 0 0 1 32-32h416a32 32 0 0 1 32 32z"/><path d="m496 322-104 103.01v-71.01a32 32 0 0 1 32-32z"/><path d="m496 322-104 103.01v-71.01a32 32 0 0 1 32-32z"/><path d="m496 322-104 104v-.99z"/></g><path d="m128 384h-72a8 8 0 0 0 0 16h72a8 8 0 0 0 0-16z" fill="#004fac"/><path d="m159 384h-8a8 8 0 0 0 0 16h8a8 8 0 0 0 0-16z" fill="#004fac"/><path d="m503.843 321.579c0-.026.007-.054.012-.081.043-.229.081-.461.1-.7a7.9 7.9 0 0 0 .045-.798v-184a40.045 40.045 0 0 0 -40-40h-88v-16a8 8 0 0 0 -16 0v16h-96v-16a8 8 0 0 0 -16 0v16h-96v-16a8 8 0 0 0 -16 0v16h-88a40.045 40.045 0 0 0 -40 40v256a40.045 40.045 0 0 0 40 40h343c.17 0 .338-.014.507-.025.164.01.326.025.493.025a8 8 0 0 0 7.455-5.115l102.175-101.2.013-.015c.151-.15.292-.309.431-.471.03-.036.065-.069.1-.1a7.981 7.981 0 0 0 1.669-3.52zm-479.843-185.579a24.027 24.027 0 0 1 24-24h88v16a8 8 0 0 0 16 0v-16h96v16a8 8 0 0 0 16 0v-16h96v16a8 8 0 0 0 16 0v-16h88a24.027 24.027 0 0 1 24 24v16h-464zm0 256v-224h464v144h-64a40.045 40.045 0 0 0 -40 40v64h-336a24.027 24.027 0 0 1 -24-24zm452.555-64-76.555 75.826v-51.826a24.028 24.028 0 0 1 24-24z" fill="#004fac"/></g></svg>