<svg height="512" viewBox="0 0 512 512" width="512" xmlns="http://www.w3.org/2000/svg"><g id="Calendar"><path d="m496 130v24h-480v-24a32 32 0 0 1 32-32h416a32 32 0 0 1 32 32z" fill="#57a4ff"/><g fill="#004fac"><path d="m464 88h-88v-16a8 8 0 0 0 -16 0v16h-96v-16a8 8 0 0 0 -16 0v16h-96v-16a8 8 0 0 0 -16 0v16h-88a40.045 40.045 0 0 0 -40 40v256a40.045 40.045 0 0 0 40 40h416a40.045 40.045 0 0 0 40-40v-256a40.045 40.045 0 0 0 -40-40zm-440 40a24.027 24.027 0 0 1 24-24h88v16a8 8 0 0 0 16 0v-16h96v16a8 8 0 0 0 16 0v-16h96v16a8 8 0 0 0 16 0v-16h88a24.027 24.027 0 0 1 24 24v16h-464zm464 256a24.027 24.027 0 0 1 -24 24h-416a24.027 24.027 0 0 1 -24-24v-224h464z"/><path d="m56 392h72a8 8 0 0 0 0-16h-72a8 8 0 0 0 0 16z"/><path d="m151 392h8a8 8 0 0 0 0-16h-8a8 8 0 0 0 0 16z"/></g></g></svg>