<svg height="512" viewBox="0 0 512 512" width="512" xmlns="http://www.w3.org/2000/svg"><g id="Computer"><path d="m496 306v24a32 32 0 0 1 -32 32h-416a32 32 0 0 1 -32-32v-24z" fill="#57a4ff"/><path d="m152 410h208v24h-208z" fill="#57a4ff"/><g fill="#004fac"><path d="m464 80h-416a40.045 40.045 0 0 0 -40 40v208a40.045 40.045 0 0 0 40 40h150.161l-6.661 32h-39.5a8 8 0 0 0 -8 8v24a8 8 0 0 0 8 8h208a8 8 0 0 0 8-8v-24a8 8 0 0 0 -8-8h-41.222l-5.334-32h150.556a40.045 40.045 0 0 0 40-40v-208a40.045 40.045 0 0 0 -40-40zm-440 40a24.027 24.027 0 0 1 24-24h416a24.028 24.028 0 0 1 24 24v176h-464zm328 304h-192v-8h192zm-49.443-24h-94.718l6.666-32h82.718zm185.443-72a24.028 24.028 0 0 1 -24 24h-416a24.027 24.027 0 0 1 -24-24v-16h464z"/><path d="m48 336h56a8 8 0 0 0 0-16h-56a8 8 0 0 0 0 16z"/><path d="m128 336h8a8 8 0 0 0 0-16h-8a8 8 0 0 0 0 16z"/></g></g></svg>