<svg height="512" viewBox="0 0 512 512" width="512" xmlns="http://www.w3.org/2000/svg"><g id="Diagram"><g fill="#57a4ff"><path d="m336 210h96v96h-96z"/><path d="m400 18h96v96h-96z"/><path d="m400 402h96v96h-96z"/></g><path d="m112 200h-96a8 8 0 0 0 -8 8v96a8 8 0 0 0 8 8h96a8 8 0 0 0 8-8v-96a8 8 0 0 0 -8-8zm-8 96h-80v-80h80z" fill="#004fac"/><path d="m400 120h96a8 8 0 0 0 8-8v-96a8 8 0 0 0 -8-8h-96a8 8 0 0 0 -8 8v40h-136a8 8 0 0 0 -8 8v184h-80a8 8 0 0 0 0 16h80v184a8 8 0 0 0 8 8h136v40a8 8 0 0 0 8 8h96a8 8 0 0 0 8-8v-96a8 8 0 0 0 -8-8h-96a8 8 0 0 0 -8 8v40h-128v-176h64v40a8 8 0 0 0 8 8h96a8 8 0 0 0 8-8v-96a8 8 0 0 0 -8-8h-96a8 8 0 0 0 -8 8v40h-64v-176h128v40a8 8 0 0 0 8 8zm8-96h80v80h-80zm0 384h80v80h-80zm-64-192h80v80h-80z" fill="#004fac"/><path d="m144 248h-8a8 8 0 0 0 0 16h8a8 8 0 0 0 0-16z" fill="#004fac"/></g></svg>