<svg height="512" viewBox="0 0 512 512" width="512" xmlns="http://www.w3.org/2000/svg"><g id="Download"><rect fill="#57a4ff" height="320" rx="32" width="384" x="64" y="178"/><g fill="#004fac"><path d="m416 168h-121a8 8 0 0 0 0 16h121a24.027 24.027 0 0 1 24 24v256a24.027 24.027 0 0 1 -24 24h-320a24.027 24.027 0 0 1 -24-24v-256a24.027 24.027 0 0 1 24-24h128a8 8 0 0 0 0-16h-128a40.045 40.045 0 0 0 -40 40v256a40.045 40.045 0 0 0 40 40h320a40.045 40.045 0 0 0 40-40v-256a40.045 40.045 0 0 0 -40-40z"/><path d="m256 32a8 8 0 0 0 8-8v-8a8 8 0 0 0 -16 0v8a8 8 0 0 0 8 8z"/><path d="m133.657 250.343a8 8 0 0 0 -11.314 11.314l128 128a8 8 0 0 0 11.314 0l128-128a8 8 0 0 0 -11.314-11.314l-114.343 114.344v-308.687a8 8 0 0 0 -16 0v308.687z"/></g></g></svg>