<svg height="512" viewBox="0 0 512 512" width="512" xmlns="http://www.w3.org/2000/svg"><g id="Dumbbell"><path d="m48 170h80v176h-80z" fill="#57a4ff"/><path d="m384 170h80v176h-80z" fill="#57a4ff"/><g fill="#004fac"><path d="m496 200h-24v-32a8 8 0 0 0 -8-8h-80a8 8 0 0 0 -8 8v40h-240v-40a8 8 0 0 0 -8-8h-80a8 8 0 0 0 -8 8v32h-24a8 8 0 0 0 -8 8v96a8 8 0 0 0 8 8h24v32a8 8 0 0 0 8 8h80a8 8 0 0 0 8-8v-40h240v40a8 8 0 0 0 8 8h80a8 8 0 0 0 8-8v-32h24a8 8 0 0 0 8-8v-96a8 8 0 0 0 -8-8zm-472 96v-80h16v80zm96 40h-64v-160h64zm16-48v-64h240v64zm320 48h-64v-160h64zm32-40h-16v-80h16z"/><path d="m208 264h-56a8 8 0 0 0 0 16h56a8 8 0 0 0 0-16z"/><path d="m240 264h-8a8 8 0 0 0 0 16h8a8 8 0 0 0 0-16z"/></g></g></svg>