<svg height="512" viewBox="0 0 512 512" width="512" xmlns="http://www.w3.org/2000/svg"><g id="Edit-2" data-name="Edit"><path d="m210.07 337.91-46.78 10.8 10.8-46.78z" fill="#57a4ff"/><path d="m210.07 337.91-46.78 10.8 10.8-46.78z" fill="#57a4ff"/><path d="m476.58 91.99-16.91 16.91-55.28-57.86 16.05-16.05z" fill="#57a4ff"/><path d="m459.67 108.9-147.67 147.67-63.85 63.85-56.57-56.57 212.81-212.81z" fill="#57a4ff"/><path d="m212.55 340.39-2.48-2.48" fill="none"/><path d="m174.09 301.93-2.48-2.48" fill="none"/><g fill="#004fac"><path d="m504.735 58.579a39.746 39.746 0 0 0 -11.715-28.285l-11.314-11.313a40.044 40.044 0 0 0 -56.569 0l-105.137 105.136v-36.117a40.045 40.045 0 0 0 -40-40h-232a40.045 40.045 0 0 0 -40 40v376a40.045 40.045 0 0 0 40 40h232a40.045 40.045 0 0 0 40-40v-204.118l173.02-173.019a39.742 39.742 0 0 0 11.715-28.284zm-45.657 39.6-45.254-45.257 5.656-5.657 45.254 45.255zm-226.278 226.277-21.021 4.851-29.085-29.085 4.851-21.021 4.034-4.034 45.255 45.254zm-54.349-5.849 14.943 14.942-19.425 4.483zm69.7-9.5-45.254-45.254 199.613-199.617 45.254 45.254zm55.849 154.893a24.028 24.028 0 0 1 -24 24h-232a24.028 24.028 0 0 1 -24-24v-376a24.028 24.028 0 0 1 24-24h232a24.028 24.028 0 0 1 24 24v52.117l-129.393 129.393a8.005 8.005 0 0 0 -2.137 3.858l-16.97 73.539a8 8 0 0 0 9.594 9.593l73.539-16.97a8 8 0 0 0 3.858-2.138l61.509-61.51zm177.705-388.451-5.656 5.657-45.255-45.255 5.657-5.657a24.028 24.028 0 0 1 33.941 0l11.313 11.314a24 24 0 0 1 0 33.941z"/><path d="m402.51 98.177-128.167 128.166a8 8 0 0 0 11.314 11.314l128.167-128.167a8 8 0 1 0 -11.314-11.313z"/><path d="m253.805 246.882-5.658 5.657a8 8 0 1 0 11.313 11.314l5.657-5.657a8 8 0 1 0 -11.312-11.314z"/><path d="m96 456h-48a8 8 0 0 0 0 16h48a8 8 0 0 0 0-16z"/><path d="m128 456h-8a8 8 0 0 0 0 16h8a8 8 0 0 0 0-16z"/></g></g></svg>