<svg id="Edit" height="512" viewBox="0 0 512 512" width="512" xmlns="http://www.w3.org/2000/svg"><g fill="#57a4ff"><path d="m114.09 363.93-10.8 46.78 46.78-10.8z"/><path d="m150.07 399.91-46.78 10.8 10.8-46.78z"/><path d="m476.58 93.99-16.91 16.91-55.28-57.86 16.05-16.05z"/><path d="m459.67 110.9-51.67 51.67-219.85 219.85-56.57-56.57 272.81-272.81z"/></g><path d="m152.55 402.39-2.48-2.48" fill="none"/><path d="m114.09 363.93-2.48-2.48" fill="none"/><path d="m504.735 58.579a39.742 39.742 0 0 0 -11.716-28.285l-11.313-11.313a40 40 0 0 0 -56.569 0l-77.019 77.019h-300.118a40.045 40.045 0 0 0 -40 40v328a40.045 40.045 0 0 0 40 40h328a40.045 40.045 0 0 0 40-40v-300.118l77.019-77.019a39.738 39.738 0 0 0 11.716-28.284zm-45.657 39.6-45.255-45.257 5.658-5.657 45.254 45.255zm-340.627 280.428 14.942 14.942-19.425 4.483zm33.326 10.7-29.084-29.084 4.851-21.022 4.035-4.034 45.254 45.254-4.034 4.035zm36.37-20.2-45.255-45.255 259.618-259.616 45.255 45.254zm211.853 94.893a24.027 24.027 0 0 1 -24 24h-328a24.027 24.027 0 0 1 -24-24v-328a24.027 24.027 0 0 1 24-24h284.118l-217.51 217.51a8 8 0 0 0 -2.138 3.858l-16.97 73.539a8 8 0 0 0 9.593 9.593l73.539-16.97a8 8 0 0 0 3.858-2.138l217.51-217.51zm81.706-388.451-5.657 5.657-45.255-45.255 5.657-5.657a24 24 0 0 1 33.941 0l11.314 11.314a24 24 0 0 1 0 33.941z" fill="#004fac"/><path d="m413.823 98.177a8 8 0 0 0 -11.313 0l-188.167 188.166a8 8 0 0 0 11.314 11.314l188.166-188.167a8 8 0 0 0 0-11.313z" fill="#004fac"/><path d="m193.8 306.882-5.657 5.657a8 8 0 0 0 11.314 11.314l5.657-5.657a8 8 0 1 0 -11.314-11.314z" fill="#004fac"/></svg>