<svg height="512" viewBox="0 0 512 512" width="512" xmlns="http://www.w3.org/2000/svg"><g id="Floppy_disk" data-name="Floppy disk"><path d="m48 18v480h96v-128h224v128h41l55-55v-425zm384 256h-352v-216h352z" fill="#57a4ff"/><g fill="#004fac"><path d="m464 8h-416a8 8 0 0 0 -8 8v480a8 8 0 0 0 8 8h361a8 8 0 0 0 5.657-2.343l55-55a8 8 0 0 0 2.343-5.657v-425a8 8 0 0 0 -8-8zm-312 480v-112h208v112zm304-50.313-50.313 50.313h-29.687v-120a8 8 0 0 0 -8-8h-224a8 8 0 0 0 -8 8v120h-80v-464h400z"/><path d="m80 280h352a8 8 0 0 0 8-8v-216a8 8 0 0 0 -8-8h-352a8 8 0 0 0 -8 8v216a8 8 0 0 0 8 8zm8-216h336v200h-336z"/><path d="m200 80h-88a8 8 0 0 0 0 16h88a8 8 0 0 0 0-16z"/><path d="m232 80h-8a8 8 0 0 0 0 16h8a8 8 0 0 0 0-16z"/></g></g></svg>