<svg height="512" viewBox="0 0 512 512" width="512" xmlns="http://www.w3.org/2000/svg"><g id="Focus"><circle cx="256" cy="258" fill="#57a4ff" r="104"/><circle cx="256" cy="258" fill="#57a4ff" r="104"/><g fill="#004fac"><path d="m256 144a112 112 0 1 0 112 112 112.127 112.127 0 0 0 -112-112zm0 208a96 96 0 1 1 96-96 96.108 96.108 0 0 1 -96 96z"/><path d="m16 176a8 8 0 0 0 8-8v-120a24.027 24.027 0 0 1 24-24h120a8 8 0 0 0 0-16h-120a40.045 40.045 0 0 0 -40 40v120a8 8 0 0 0 8 8z"/><path d="m496 336a8 8 0 0 0 -8 8v120a24.027 24.027 0 0 1 -24 24h-120a8 8 0 0 0 0 16h120a40.045 40.045 0 0 0 40-40v-120a8 8 0 0 0 -8-8z"/><path d="m168 488h-120a24.027 24.027 0 0 1 -24-24v-120a8 8 0 0 0 -16 0v120a40.045 40.045 0 0 0 40 40h120a8 8 0 0 0 0-16z"/><path d="m464 8h-120a8 8 0 0 0 0 16h120a24.027 24.027 0 0 1 24 24v120a8 8 0 0 0 16 0v-120a40.045 40.045 0 0 0 -40-40z"/><path d="m496 184a8 8 0 0 0 -8 8v8a8 8 0 0 0 16 0v-8a8 8 0 0 0 -8-8z"/></g></g></svg>