<svg height="512" viewBox="0 0 512 512" width="512" xmlns="http://www.w3.org/2000/svg"><g id="Invoice" fill="#004fac"><path d="m408 8h-304a8 8 0 0 0 -8 8v480a8 8 0 0 0 13 6.247l35.754-28.6 51.279 29.3a8 8 0 0 0 7.938 0l52.029-29.733 52.031 29.732a8 8 0 0 0 7.938 0l51.279-29.3 35.752 28.601a8 8 0 0 0 13-6.247v-480a8 8 0 0 0 -8-8zm-8 471.355-27-21.6a8 8 0 0 0 -8.967-.7l-52.033 29.731-52.031-29.732a8 8 0 0 0 -7.938 0l-52.031 29.732-52.031-29.732a8 8 0 0 0 -8.967.7l-27 21.6v-455.354h287.998z"/><path d="m160 72h192a8 8 0 0 0 0-16h-192a8 8 0 0 0 0 16z"/><path d="m160 104h192a8 8 0 0 0 0-16h-192a8 8 0 0 0 0 16z"/><path d="m160 136h128a8 8 0 0 0 0-16h-128a8 8 0 0 0 0 16z"/><path d="m320 120h-8a8 8 0 0 0 0 16h8a8 8 0 0 0 0-16z"/></g></svg>