<svg height="512" viewBox="0 0 512 512" width="512" xmlns="http://www.w3.org/2000/svg"><g id="Laptop"><path d="m304 354-9 32h-79l-8-32z" fill="#57a4ff"/><path d="m304 354-9 32h-79l-8-32z" fill="#57a4ff"/><path d="m432 114h-352a32 32 0 0 0 -32 32l-1 208h416l1-208a32 32 0 0 0 -32-32zm8 216h-368v-192h368z" fill="#57a4ff"/><g fill="#004fac"><path d="m496 344h-24.961l.961-200a40.045 40.045 0 0 0 -40-40h-352a40.037 40.037 0 0 0 -40 39.962l-.962 200.038h-23.038a8 8 0 0 0 -8 8v32a40.045 40.045 0 0 0 40 40h416a40.045 40.045 0 0 0 40-40v-32a8 8 0 0 0 -8-8zm-440-200a24.027 24.027 0 0 1 24-24h352a24.019 24.019 0 0 1 24 23.962l-.961 200.038h-400zm237.439 216-4.5 16h-66.693l-4-16zm194.561 24a24.027 24.027 0 0 1 -24 24h-416a24.027 24.027 0 0 1 -24-24v-24h177.754l6.485 25.94a8 8 0 0 0 7.761 6.06h79a8 8 0 0 0 7.7-5.834l7.36-26.166h177.94z"/><path d="m448 328v-192a8 8 0 0 0 -8-8h-368a8 8 0 0 0 -8 8v192a8 8 0 0 0 8 8h368a8 8 0 0 0 8-8zm-16-8h-352v-176h352z"/><path d="m104 368h-56a8 8 0 0 0 0 16h56a8 8 0 0 0 0-16z"/><path d="m136 368h-8a8 8 0 0 0 0 16h8a8 8 0 0 0 0-16z"/></g></g></svg>