<svg height="512" viewBox="0 0 512 512" width="512" xmlns="http://www.w3.org/2000/svg"><g id="Mail-2" data-name="Mail"><path d="m80 130v38l208 144 208-144v-38z" fill="#57a4ff"/><g fill="#004fac"><path d="m504 128a8 8 0 0 0 -8-8h-416a8 8 0 0 0 -8 8v256a8 8 0 0 0 8 8h416a8 8 0 0 0 8-8zm-295.424 138.744 74.87 51.834a8 8 0 0 0 9.108 0l75.272-52.112 109.534 109.534h-378.04zm-120.576 97.936v-181.411l107.2 74.213zm400-228.68v27.808l-200 138.462-200-138.462v-27.808zm0 47.269v180.731l-106.8-106.8zm-.32 192.731v-1h.32v1z"/><path d="m104 160h48a8 8 0 0 0 0-16h-48a8 8 0 0 0 0 16z"/><path d="m176 160h8a8 8 0 0 0 0-16h-8a8 8 0 0 0 0 16z"/><path d="m56 248h-40a8 8 0 0 0 0 16h40a8 8 0 0 0 0-16z"/><path d="m56 216h-24a8 8 0 0 0 0 16h24a8 8 0 0 0 0-16z"/><path d="m56 272h-32a8 8 0 0 0 0 16h32a8 8 0 0 0 0-16z"/></g></g></svg>