<svg height="512" viewBox="0 0 512 512" width="512" xmlns="http://www.w3.org/2000/svg"><g id="Mail"><path d="m16 150 240 144 240-144v-38h-480z" fill="#57a4ff"/><g fill="#004fac"><path d="m496 104h-480a8 8 0 0 0 -8 8v288a8 8 0 0 0 8 8h480a8 8 0 0 0 8-8v-288a8 8 0 0 0 -8-8zm-338.693 142.114 94.577 56.746a8 8 0 0 0 8.232 0l94.778-56.867 124.106 146.007h-445.7zm-133.307 132.121v-212.105l119.4 71.637zm344.805-140.589 119.195-71.516v211.749zm119.195-117.646v27.47l-232 139.2-232-139.2v-27.47z"/><path d="m40 144h48a8 8 0 0 0 0-16h-48a8 8 0 0 0 0 16z"/><path d="m112 144h8a8 8 0 0 0 0-16h-8a8 8 0 0 0 0 16z"/></g></g></svg>