<svg height="512" viewBox="0 0 512 512" width="512" xmlns="http://www.w3.org/2000/svg"><g id="Pencil"><g fill="#57a4ff"><path d="m65.275 483.081-46.77 10.844 10.756-46.79z"/><path d="m475.418 92.775-16.894 16.926-55.334-57.808 16.035-16.065z"/><path d="m458.524 109.701-355.185 355.854-56.624-56.517 356.475-357.145z"/></g><path d="m67.757 485.559-2.482-2.478" fill="none"/><path d="m29.261 447.135-2.482-2.478" fill="none"/><path d="m493.019 31.294-11.313-11.313a40 40 0 0 0 -56.562-.007l-394.529 393.526a8.008 8.008 0 0 0 -2.085 3.624l-20.265 76.836a8 8 0 0 0 9.775 9.775l76.834-20.265a8 8 0 0 0 3.609-2.071l394.536-393.536a40 40 0 0 0 0-56.569zm-73.539 16.971 45.234 45.235-5.665 5.65-45.226-45.228a.385.385 0 0 0 -.03-.027l5.667-5.653zm-315.333 404.843-45.233-45.233 343.555-342.685c.014.015.026.031.041.045l45.211 45.212-343.554 342.683zm-70.78 8.415 17.11 17.11-23.24 6.13zm35.014 12.388-30.292-30.292 5.359-20.319 4.138-4.127 45.247 45.247.008.007-4.132 4.121zm413.331-397.369-5.671 5.658-45.247-45.249-.007-.006 5.664-5.651a24 24 0 0 1 33.941 0l11.314 11.314a24 24 0 0 1 .006 33.934z" fill="#004fac"/><path d="m413.834 99.187a8 8 0 0 0 -11.314-.021l-272.166 271.167a8 8 0 1 0 11.292 11.334l272.167-271.167a8 8 0 0 0 .021-11.313z" fill="#004fac"/><path d="m109.8 390.882-5.657 5.657a8 8 0 0 0 11.314 11.314l5.657-5.657a8 8 0 1 0 -11.314-11.314z" fill="#004fac"/></g></svg>