<svg height="512" viewBox="0 0 512 512" width="512" xmlns="http://www.w3.org/2000/svg"><g id="Play"><path d="m464 114h-416a32 32 0 0 0 -32 32v224a32 32 0 0 0 32 32h416a32 32 0 0 0 32-32v-224a32 32 0 0 0 -32-32zm-248 200v-112l112 56z" fill="#57a4ff"/><g fill="#004fac"><path d="m464 104h-416a40.045 40.045 0 0 0 -40 40v224a40.045 40.045 0 0 0 40 40h416a40.045 40.045 0 0 0 40-40v-224a40.045 40.045 0 0 0 -40-40zm24 264a24.027 24.027 0 0 1 -24 24h-416a24.027 24.027 0 0 1 -24-24v-224a24.027 24.027 0 0 1 24-24h416a24.027 24.027 0 0 1 24 24z"/><path d="m331.578 248.845-112-56a8 8 0 0 0 -11.578 7.155v112a8 8 0 0 0 11.578 7.155l112-56a8 8 0 0 0 0-14.31zm-107.578 50.211v-86.112l86.111 43.056z"/><path d="m120 360h-72a8 8 0 0 0 0 16h72a8 8 0 0 0 0-16z"/><path d="m152 360h-8a8 8 0 0 0 0 16h8a8 8 0 0 0 0-16z"/></g></g></svg>