<svg height="512" viewBox="0 0 512 512" width="512" xmlns="http://www.w3.org/2000/svg"><g id="Share-2" data-name="Share"><rect fill="#57a4ff" height="432" rx="32" width="432" x="16" y="64"/><g fill="#004fac"><path d="m495.966 8.035h-181.02a8 8 0 0 0 0 16h161.709l-218.275 218.275a8 8 0 1 0 11.31 11.31l218.276-218.276v161.71a8 8 0 0 0 16 0v-181.019a8 8 0 0 0 -8-8z"/><path d="m448 168a8 8 0 0 0 -8 8v288a24.027 24.027 0 0 1 -24 24h-368a24.027 24.027 0 0 1 -24-24v-368a24.027 24.027 0 0 1 24-24h304a8 8 0 0 0 0-16h-304a40.045 40.045 0 0 0 -40 40v368a40.045 40.045 0 0 0 40 40h368a40.045 40.045 0 0 0 40-40v-288a8 8 0 0 0 -8-8z"/><path d="m234.343 266.343-12 12a8 8 0 0 0 11.314 11.314l12-12a8 8 0 1 0 -11.314-11.314z"/></g></g></svg>