<svg height="512" viewBox="0 0 512 512" width="512" xmlns="http://www.w3.org/2000/svg"><g id="Share"><path d="m495.95 157.21-64.08 66-24.05 24.78.11-56.84c-68.58-.13-127.14 8.94-128.1 33.64.27-35.32 19.17-63.29 48.01-80.91 22.18-13.57 50.26-21.01 80.23-20.95l.11-56.84z" fill="#57a4ff"/><g fill="#004fac"><path d="m501.7 149.439-87.949-90.947a8 8 0 0 0 -13.751 5.561v49.012c-29.57 1.267-57.054 9.569-79 23.791v-.856h-273a40.045 40.045 0 0 0 -40 40v240a40.045 40.045 0 0 0 40 40h352a40.045 40.045 0 0 0 40-40v-191.636l61.7-63.8a8 8 0 0 0 0-11.125zm-77.7 266.561a24.027 24.027 0 0 1 -24 24h-352a24.027 24.027 0 0 1 -24-24v-240a24.027 24.027 0 0 1 24-24h254.054c-19.515 19.325-30.107 44.27-30.107 71.579a8 8 0 0 0 16 0c0-12.746 34.735-25.6 112.053-26.431v48.8a8 8 0 0 0 13.751 5.561l10.249-10.599zm-8-189.834v-37.061a8 8 0 0 0 -8-8c-37.641 0-69.375 2.774-91.771 8.021a110.971 110.971 0 0 0 -24.281 8.311c5.282-16.41 15.729-30.8 30.955-42.4 22.115-16.857 52.336-26.14 85.1-26.14a8 8 0 0 0 8-8v-37.063l68.815 71.166z"/><path d="m136 408h-88a8 8 0 0 0 0 16h88a8 8 0 0 0 0-16z"/><path d="m168 408h-8a8 8 0 0 0 0 16h8a8 8 0 0 0 0-16z"/></g></g></svg>