<svg height="512" viewBox="0 0 512 512" width="512" xmlns="http://www.w3.org/2000/svg"><g id="Tag"><path d="m256 18-128 64v416h256v-416zm0 72a16 16 0 1 1 16-16 16 16 0 0 1 -16 16z" fill="#57a4ff"/><g fill="#004fac"><path d="m387.578 72.845-128-64a8 8 0 0 0 -7.156 0l-128 64a8 8 0 0 0 -4.422 7.155v416a8 8 0 0 0 8 8h256a8 8 0 0 0 8-8v-416a8 8 0 0 0 -4.422-7.155zm-11.578 415.155h-240v-403.056l120-60 120 60z"/><path d="m232 72a24 24 0 1 0 24-24 24.027 24.027 0 0 0 -24 24zm32 0a8 8 0 1 1 -8-8 8.009 8.009 0 0 1 8 8z"/><path d="m192 464h-40a8 8 0 0 0 0 16h40a8 8 0 0 0 0-16z"/><path d="m224 464h-8a8 8 0 0 0 0 16h8a8 8 0 0 0 0-16z"/></g></g></svg>