<svg height="512" viewBox="0 0 512 512" width="512" xmlns="http://www.w3.org/2000/svg"><g id="VDO"><path d="m496 370-96-48v-128l96-48z" fill="#57a4ff"/><path d="m368 114h-320a32 32 0 0 0 -32 32v224a32 32 0 0 0 32 32h320a32 32 0 0 0 32-32v-224a32 32 0 0 0 -32-32zm-216 200v-112l112 56z" fill="#57a4ff"/><g fill="#004fac"><path d="m500.206 137.2a8 8 0 0 0 -7.784-.35l-84.422 42.206v-35.056a40.045 40.045 0 0 0 -40-40h-320a40.045 40.045 0 0 0 -40 40v224a40.045 40.045 0 0 0 40 40h320a40.045 40.045 0 0 0 40-40v-35.056l84.422 42.211a8 8 0 0 0 11.578-7.155v-224a8 8 0 0 0 -3.794-6.8zm-108.206 230.8a24.027 24.027 0 0 1 -24 24h-320a24.027 24.027 0 0 1 -24-24v-224a24.027 24.027 0 0 1 24-24h320a24.027 24.027 0 0 1 24 24zm96-12.944-80-40v-118.112l80-40z"/><path d="m267.578 248.845-112-56a8 8 0 0 0 -11.578 7.155v112a8 8 0 0 0 11.578 7.155l112-56a8 8 0 0 0 0-14.31zm-107.578 50.211v-86.112l86.111 43.056z"/><path d="m120 360h-72a8 8 0 0 0 0 16h72a8 8 0 0 0 0-16z"/><path d="m152 360h-8a8 8 0 0 0 0 16h8a8 8 0 0 0 0-16z"/></g></g></svg>