<svg xmlns="http://www.w3.org/2000/svg" width="500" height="494.862"><path d="M227.983 490.773c-6.553-.72-24.724-3.598-29.573-4.685-13.335-2.988-14.567-3.317-28.469-7.6-3.59-1.105-8.312-2.808-10.493-3.784-2.181-.975-4.824-1.98-5.874-2.234-1.05-.253-2.958-1.147-4.241-1.986-1.284-.84-3.144-1.702-4.134-1.918-2.647-.575-8.2-3.384-9.476-4.794-.609-.673-1.654-1.224-2.322-1.224-1.748 0-3.571-1.09-7.084-4.232-2.027-1.814-3.679-2.764-4.804-2.764-1.133 0-2.456-.77-3.906-2.275-1.205-1.25-4.52-3.374-7.367-4.718-3.474-1.64-5.735-3.179-6.88-4.68-.991-1.299-2.5-2.411-3.597-2.652-1.298-.285-2.899-1.674-5.11-4.434-2.421-3.021-3.736-4.116-5.291-4.408-2.64-.495-17.146-15.526-31.961-33.117-6.486-7.7-10.164-12.615-11.903-15.9-.926-1.749-2.972-4.678-4.548-6.51-1.666-1.937-3.34-4.77-4-6.768-.623-1.89-2.002-4.54-3.063-5.89-2.778-3.532-5.61-9.361-7.216-14.856-.796-2.725-2.133-5.611-3.117-6.732-1.12-1.276-2.115-3.61-2.847-6.678-.619-2.593-1.834-5.945-2.7-7.448-2.852-4.95-4.621-11.491-8.81-32.564a432.9 432.9 0 00-1.897-8.904c-.591-2.623-1.332-7.631-1.646-11.13-.314-3.497-.735-7.79-.936-9.539-.2-1.749-.087-4.897.254-6.996.495-3.052.426-4.227-.343-5.87-.761-1.629-.814-2.475-.253-4.083.505-1.45.521-3.519.057-7.26-.432-3.469-.439-5.788-.02-6.887.345-.91.582-3.445.525-5.631-.063-2.41.348-5.316 1.043-7.379.905-2.688.996-3.732.434-4.965-.525-1.153-.524-1.911.002-2.896.393-.733.71-2.792.706-4.574-.01-4.056 1.504-12.018 2.74-14.41.514-.992.934-2.833.934-4.09 0-1.255.859-4.12 1.908-6.364 1.212-2.592 1.908-5.1 1.908-6.877 0-1.907.881-4.811 2.771-9.133 1.524-3.486 3.57-8.75 4.545-11.699.976-2.949 2.548-6.254 3.495-7.344 1.02-1.175 2.186-3.767 2.86-6.36 1.234-4.739 2.422-7.087 4.244-8.388.64-.457 1.164-1.393 1.164-2.08 0-1.338 2.211-5.042 5.475-9.173 1.106-1.399 2.208-3.47 2.45-4.602.247-1.153 1.188-2.59 2.14-3.269.956-.68 3.07-3.914 4.827-7.384 1.903-3.758 3.672-6.422 4.522-6.81.768-.35 1.852-1.59 2.41-2.758.556-1.168 1.911-2.786 3.011-3.595 1.1-.81 3.368-3.19 5.04-5.288C68.493 84 84.623 67.348 86.424 66.588c.912-.385 2.489-1.9 3.504-3.364 2.559-3.692 5.838-6.43 7.702-6.43.862 0 1.568-.246 1.568-.548 0-.948 3.159-3.759 5.605-4.988 4.98-2.504 8.32-4.76 9.333-6.307.584-.892 1.44-1.464 1.918-1.28.868.333 3.829-1.627 7.947-5.261 1.224-1.08 3.227-2.143 4.452-2.362 1.224-.219 2.798-.907 3.498-1.529 2.2-1.957 6.01-3.8 7.857-3.8 1.138 0 3.11-1.034 5.478-2.873 3.182-2.47 3.991-2.819 5.774-2.484 1.706.32 2.144.164 2.475-.881.596-1.878 4.186-3.3 8.327-3.3 3.315 0 3.828-.195 5.667-2.145 1.82-1.93 2.44-2.17 6.209-2.41 3.25-.208 4.75-.658 6.705-2.013 2.14-1.483 2.916-1.682 5.167-1.322 2.324.372 3.106.141 6.389-1.885 3.866-2.387 6.217-2.838 8.23-1.582.946.591 1.551.442 3.226-.795 1.833-1.353 2.621-1.502 7.104-1.338 3.711.135 5.637-.098 7.295-.885 1.769-.84 3.255-.985 6.902-.677 4.113.348 4.778.249 5.785-.864 1.389-1.535 2.456-1.56 7.643-.177 3.808 1.015 4.12 1.015 5.242 0 1.54-1.394 6.657-1.467 7.782-.11.72.866.958.866 2.281 0 2.046-1.341 4.915-1.211 7.998.362 2.563 1.307 3.85 1.341 8.365.22 1.125-.28 3.22-.019 5.575.694 2.96.896 4.235 1 5.925.481 1.79-.55 2.352-.47 3.33.467.895.86 2.74 1.232 7.758 1.562 4.36.287 7.582.863 9.54 1.707 1.626.7 5.53 1.827 8.675 2.502 14.618 3.14 53.938 18.387 57.096 22.14.806.957 3.225 2.356 5.556 3.213 2.272.834 5.304 2.54 6.738 3.792 1.434 1.251 5.927 4.097 9.983 6.325 8.017 4.401 9.98 5.929 22.388 17.417 16.121 14.927 29.098 28.479 31.357 32.747 1.157 2.184 2.73 4.304 3.498 4.712 1.875.994 2.967 2.609 5.093 7.528 1.14 2.639 2.812 5.1 4.61 6.787 1.84 1.726 2.822 3.186 2.822 4.194 0 .851.606 2.092 1.346 2.759 2.548 2.293 5.014 6.495 5.014 8.543 0 1.392.558 2.538 1.8 3.702 1.638 1.534 4.56 9.02 4.56 11.681 0 .841 1.21 2.3 3.467 4.18.542.451.985 1.386.985 2.077 0 .69 1.279 3.74 2.842 6.778 1.976 3.84 2.729 5.977 2.469 7.012a2.889 2.889 0 00.672 2.646c.576.637 1.621 4.119 2.323 7.739s1.696 7.046 2.209 7.613c.513.566.932 2.23.932 3.696 0 1.466.743 4.448 1.65 6.627 1.13 2.712 1.684 5.28 1.757 8.136.071 2.785.484 4.75 1.241 5.905.9 1.372 1.054 2.484.746 5.366-.819 7.677-.81 8.359.132 9.14.655.544.81 1.415.525 2.941-.234 1.244.053 4.3.672 7.165.988 4.572.996 5.253.088 8.01-.862 2.618-.873 3.18-.085 4.305 1.176 1.68 1.146 3.896-.102 7.56-.797 2.336-.862 3.404-.31 5.074.543 1.647.486 2.813-.257 5.263-1.15 3.787-1.224 6.66-.232 8.838.594 1.304.55 1.833-.228 2.733-1.68 1.942-2.275 4.864-1.94 9.53.275 3.86.124 4.848-1.03 6.716-1.07 1.73-1.272 2.781-.967 5.014.32 2.332.043 3.56-1.59 7.054-1.274 2.724-1.978 5.227-1.978 7.032 0 1.784-.436 3.357-1.2 4.33-1.445 1.835-2.607 5.767-2.612 8.831 0 1.38-.663 3.208-1.723 4.768-1.2 1.765-1.664 3.176-1.536 4.664.138 1.59-.297 2.733-1.705 4.485-2.788 3.47-5.343 8.685-5.113 10.438.143 1.097-.387 2.031-1.858 3.269-1.133.953-2.06 2.088-2.06 2.523 0 2.18-2.804 9.295-4.168 10.577-.856.804-1.556 2.145-1.556 2.982 0 2.288-1.062 3.938-5.085 7.9-2.577 2.538-3.78 4.263-4.077 5.847-.265 1.414-.873 2.39-1.64 2.633-1.435.455-3.54 3.662-4.175 6.362-.523 2.217-3.153 5.289-5.215 6.09-.856.333-1.43 1.096-1.43 1.898 0 .826-1.836 3.158-4.77 6.065-2.624 2.598-4.77 5.131-4.77 5.63 0 .498-1.1 1.523-2.443 2.278-1.343.755-2.921 2.184-3.507 3.176-1.83 3.097-7.008 8.129-8.837 8.588-1.406.352-1.749.8-1.749 2.286 0 2.16-2.44 3.968-6.914 5.12-2.103.541-3.091 1.242-4.054 2.874-.7 1.187-2.33 2.698-3.622 3.357-1.292.658-2.759 1.695-3.26 2.303-2.364 2.865-8.4 7.257-10.007 7.28-1.23.017-2.077.604-2.988 2.067-1.395 2.24-7.196 5.54-9.737 5.54-.96 0-2.37.858-3.66 2.226-1.154 1.224-2.7 2.226-3.434 2.226-1.955 0-5.708 1.704-6.12 2.78-.581 1.513-4.975 4.084-7.314 4.279-1.193.1-2.885.826-3.76 1.615-1.802 1.626-5.73 3.41-7.51 3.41-.654 0-2.738.853-4.63 1.896-1.893 1.043-4.253 1.901-5.246 1.908-.993.006-3.712.907-6.042 2.002-2.681 1.26-5.754 2.14-8.37 2.396-2.288.224-4.837.897-5.707 1.507-1.135.796-2.834 1.102-6.115 1.102-3.656 0-4.875.261-6.246 1.34-1.378 1.084-2.221 1.262-4.412.934-1.794-.27-3.473-.087-4.975.54-4.163 1.74-11.6 3.108-17.382 3.198-3.148.049-14.166.264-24.485.479-10.319.214-19.906.264-21.305.11zm41.657-8.234c37.1-3.972 72.507-16.555 104.936-37.291 19.652-12.567 42.896-34.024 56.698-52.34 11.204-14.866 24.758-38.11 30.701-52.646 6.8-16.63 11.953-32.596 14.004-43.386.599-3.148 1.615-8.3 2.259-11.448 2.186-10.692 5.62-39.624 4.854-40.9-.145-.241-.594-7.164-.998-15.384-.707-14.357-1.25-18.838-3.96-32.701-4.069-20.805-12.943-42.959-27.408-68.419-5.538-9.747-8.72-14.809-9.995-15.9-.204-.174-2.196-2.75-4.425-5.723-2.229-2.973-5.252-6.837-6.718-8.586a434.806 434.806 0 01-5.703-6.995c-4.874-6.123-19.607-19.788-34.738-32.222-11.006-9.044-33.726-22.95-47.587-29.126-18.681-8.324-43.637-15.272-60.79-16.925-2.45-.236-5.025-.545-5.724-.688-5.604-1.138-22.458-1.554-38.931-.96-20.066.724-29.769 1.949-47.244 5.964-15.322 3.52-37.12 11.626-51.488 19.145-30.76 16.1-63.71 44.269-82.71 70.711-2.261 3.148-4.284 5.867-4.494 6.042-.386.32-3.752 5.464-8.947 13.673-2.46 3.887-10.284 19.623-15.494 31.163-2.603 5.764-5.522 14.495-8.928 26.711a412.643 412.643 0 01-1.927 6.678c-1.847 6.13-4.72 22.684-5.959 34.34-.776 7.302-.749 35.217.041 42.295 2.657 23.8 5.924 39.863 11.512 56.602 4.772 14.296 10.713 27.533 17.556 39.112a276.507 276.507 0 014 6.996c2.486 4.484 17.566 24.958 22.25 30.21 9.405 10.543 31.654 32.03 37.896 36.597 20.505 15.004 48.258 30.033 61.786 33.458 1.98.502 4.46 1.157 5.509 1.456 37.776 10.779 67.942 13.937 100.166 10.487zm-37.045-5.712c-.257-.222-5.89-.925-15.105-1.885-13.705-1.426-34.672-5.824-47.22-9.904-4.286-1.393-9.464-2.968-11.507-3.498-4.803-1.248-25.579-11.282-33.792-16.322-3.506-2.151-9.667-6.33-13.69-9.287-6.556-4.82-9.325-7.074-17.49-14.24-3.742-3.284-17.476-17.453-22.66-23.377-8.654-9.89-18.527-24.45-27.344-40.32-3.089-5.56-5.806-10.711-6.038-11.447-.232-.735-1.358-3.34-2.502-5.789-6.558-14.03-12.958-34.689-16.058-51.832-2.948-16.305-3.622-23.875-3.622-40.702 0-21.624 1.894-36.772 7.317-58.51 4.763-19.098 8.02-27.516 19.711-50.951 2.651-5.314 17.693-28.255 21.844-33.316 2.182-2.66 12.098-14.173 17.254-20.033 1.42-1.613 2.051-2.186 10.52-9.54 2.617-2.272 4.902-4.29 5.077-4.483 1.277-1.41 22.263-16.329 26.247-18.66 8.159-4.772 20.327-11.164 27.175-14.273 9.282-4.215 15.675-6.441 32.117-11.185 14.722-4.248 23.245-5.8 42.928-7.822 5.479-.563 32.754-.576 38.795-.02 10.989 1.014 25.08 3.332 39.43 6.49 13.817 3.038 34.275 11.66 52.689 22.203 2.22 1.271 4.154 2.311 4.298 2.311.761 0 12.203 7.817 19.23 13.138 11.165 8.454 21.694 17.516 28.084 24.172 12.217 12.726 26.109 30.594 31.81 40.915 1.641 2.973 4.364 7.839 6.05 10.812 4.799 8.458 6.469 11.844 9.236 18.721 1.416 3.52 2.84 6.972 3.166 7.672 2.074 4.46 9.373 29.94 10.477 36.568.203 1.225.632 3.228.952 4.452 1.236 4.735 3.273 25.68 3.618 37.205.299 9.988.117 14.29-1.048 24.803-1.347 12.153-3.767 25.85-6.35 35.935-.403 1.573-.984 3.575-1.29 4.45-.306.874-1.607 5.024-2.89 9.221-2.987 9.778-7.225 20.747-10.564 27.347-5.495 10.86-15.934 28.87-18.981 32.746a887.884 887.884 0 00-2.881 3.68c-.35.452-.922 1.174-1.272 1.603-.35.429-2.05 2.637-3.778 4.907-5.42 7.12-13.733 16.65-19.07 21.864-4.474 4.372-18.226 16.016-23.355 19.774-.962.706-3.84 2.882-6.392 4.836-4.682 3.584-10.726 7.318-21.107 13.044a1451.11 1451.11 0 00-8.268 4.591c-4.768 2.686-18.614 8.384-27.385 11.27-9.497 3.125-27.111 7.723-33.104 8.642-17.184 2.633-28.958 3.786-40.518 3.966-6.921.108-12.656.134-12.744.058zm33.229-6.257c11.89-1.494 32.032-5.219 38.159-7.056 10.009-3 22.301-7.404 29.277-10.488 23.88-10.556 51.77-29.447 68.988-46.73 16.614-16.675 28.213-31.61 35.586-45.822.726-1.4 2.522-4.55 3.99-7 7.33-12.233 18.203-41.928 21.097-57.618.735-3.986 1.603-8.106 1.928-9.156.325-1.05.918-5.199 1.317-9.221.4-4.023.97-9.46 1.268-12.084.925-8.145.276-45.262-.9-51.514-.992-5.265-2.588-13.97-3.15-17.171-1.137-6.482-1.996-10.337-2.976-13.356-1.623-4.998-5.6-15.988-6.33-17.49-.339-.699-1.46-3.593-2.489-6.432-1.841-5.074-7.96-17.87-12.129-25.366-10.235-18.4-30.335-42.63-46.082-55.547A5671.75 5671.75 0 00380.3 67.821c-6.672-5.43-19.653-14.066-26.075-17.346-2.973-1.519-5.705-2.994-6.07-3.278-1.662-1.292-13.087-6.581-18.031-8.347-3.01-1.075-5.758-2.161-6.108-2.413-.89-.642-15.14-5.206-23.572-7.55-8.804-2.446-18.93-4.46-24.75-4.92-2.455-.193-6.181-.639-8.28-.99-7.552-1.26-29.633-1.17-41.975.174-21.012 2.287-28.649 3.863-47.062 9.713-18.328 5.823-40.67 16.088-53.455 24.56-8.897 5.895-18.08 12.324-19.694 13.788-.707.64-3.282 2.87-5.724 4.956-2.442 2.085-6.945 6.219-10.006 9.185-3.062 2.966-5.796 5.553-6.076 5.748-1.167.811-12.414 14.243-17.671 21.102-11.062 14.433-19.67 29.46-28.917 50.482-7.067 16.066-12.885 41.036-15.263 65.505-1.255 12.918-.982 34.353.587 46.109 1.85 13.864 6.663 37.186 9.383 45.472 4.23 12.884 11.429 29.382 16.236 37.205 9.467 15.407 13.833 21.948 18.213 27.292 6.81 8.307 18.419 21.514 19.143 21.778.33.12 4.36 3.88 8.956 8.358 4.596 4.477 10.702 9.83 13.57 11.896 2.867 2.066 6.357 4.602 7.757 5.635 2.296 1.695 13.967 8.945 23.322 14.487 1.984 1.175 4.989 2.74 6.678 3.476 1.688.736 4.358 1.93 5.932 2.651 4.893 2.244 18.818 7.378 26.711 9.849 8.074 2.527 28.214 6.113 48.334 8.608 8.688 1.077 29.198.85 39.431-.436zm-14.84-1.45c-.832-.833-.4-2.394 1.108-3.993.843-.894 2.602-3.586 3.91-5.982 1.93-3.536 2.21-4.462 1.489-4.919-.489-.31-1.258-.567-1.709-.572-1.368-.016-5.453-2.336-6.91-3.923-1.557-1.697-2.756-5.525-2.757-8.806-.003-5.815 7.462-11.566 14.787-11.392 4.42.106 8.258 1.985 10.625 5.204 1.662 2.26 1.929 3.172 1.929 6.593 0 2.184-.286 4.148-.636 4.364-.35.217-.636.79-.636 1.273 0 .484-1.6 4.26-3.556 8.39-4.322 9.128-5.178 11.027-5.57 12.345-.178.6-1.31 1.188-2.743 1.424-3.22.532-8.796.528-9.33-.007zm8.245-1.865c1.508-.405 6.529-9.976 11.38-21.695 2.117-5.112.434-10.074-4.276-12.613-2.312-1.246-8.976-1.193-11.687.093-3.14 1.49-6.63 5.6-6.63 7.806 0 6.404 4.485 10.89 10.885 10.89 1.709 0 3.107.173 3.107.384 0 .894-4.936 9.688-6.837 12.18-1.136 1.491-2.067 2.851-2.067 3.023 0 .429 4.459.379 6.125-.068zm-1.359-19.693c-3.165-1.088-4.092-2.098-4.558-4.967-.513-3.164.657-5.185 3.71-6.407 3.61-1.444 5.134-1.228 7.474 1.06 1.84 1.799 2.054 2.347 1.762 4.523-.345 2.57-2.82 5.793-4.86 6.327-.615.16-2.203-.08-3.528-.536zm5.066-3.292c1.947-2.1 2.042-3.555.344-5.253-2.906-2.906-8.96-.304-8.02 3.446.412 1.639 3.007 3.478 4.973 3.524.598.014 1.815-.759 2.703-1.717zm-54.546 22.92c-.983-.155-1.942-.686-2.131-1.179-.299-.778 2.524-4.438 8.549-11.083 1.322-1.46 1.357-1.659.385-2.238-8.996-5.363-10.883-11.948-5.514-19.244 1.646-2.237 5.668-4.605 7.823-4.605 2.72 0 .503-1.15-3.661-1.898-2.366-.425-6.018-1.203-8.117-1.728-2.098-.526-4.531-1.082-5.406-1.237-.874-.154-2.591-.553-3.815-.885-3.176-.863-3.52-.769-2.265.617 1.062 1.174 1.036 1.495-.58 7.155-.932 3.26-1.941 6.641-2.243 7.516-.302.874-1.173 3.736-1.935 6.36a842.155 842.155 0 01-2.255 7.631c-.478 1.574-.996 3.926-1.151 5.226-.508 4.26-.972 4.405-7.334 2.285-5.586-1.862-6.094-2.592-3.645-5.235.86-.928 2.499-4.762 3.887-9.095 1.32-4.12 2.915-9.064 3.546-10.988 1.117-3.41 1.116-3.527-.071-4.636-2.485-2.321-1.63-3.38 4.506-5.575l5.725-2.047-3.022-1.416c-1.661-.78-4.808-2.742-6.993-4.361-3.196-2.37-3.919-3.225-3.704-4.38.147-.789.289-1.632.315-1.873.071-.661 6.226-8.632 9.704-12.567 1.684-1.906 3.063-3.715 3.063-4.019 0-.304.813-1.75 1.807-3.212 4.828-7.105 7.533-17.004 6.887-25.208-.36-4.57-3.271-17.605-5.232-23.422-.505-1.499-.918-4.076-.918-5.728 0-1.652-.288-4.003-.64-5.225-.351-1.221-.81-4.797-1.02-7.945-.273-4.096-.68-6.011-1.428-6.734-1.016-.981-7.361-2.974-11.222-3.524-3.812-.543-4.783-.921-6.825-2.66-3.756-3.199-13.224-7.069-19.067-7.793-12.598-1.562-17.734-3.507-18.858-7.14-1.655-5.35-1.305-8.229 1.89-15.553l1.455-3.338-1.398-4.339c-1.614-5.014-1.77-8.361-.502-10.813.647-1.25.752-2.516.378-4.56-.404-2.206-.163-4.212 1.093-9.097 1.91-7.432 1.59-8.9-2.176-9.946-1.329-.369-4.849-.682-7.822-.695-6.292-.03-8.045-.99-8.955-4.908-1.102-4.748-.713-7.914 1.349-10.974 1.703-2.528 5.546-10.11 10.64-20.987.9-1.924 2.253-4.5 3.006-5.724.753-1.225 2.593-4.516 4.088-7.314s3.665-6.09 4.822-7.314c1.935-2.047 2.155-2.711 2.744-8.267.721-6.798 4.423-20.112 7.692-27.665 2.179-5.033 6.447-13.488 8.829-17.49 7.13-11.978 13.225-20.266 25.249-34.336 7.087-8.293 12.873-12.508 22.26-16.218 2.448-.968 6.74-2.83 9.539-4.138 14.047-6.564 14.312-6.63 24.587-6.08 10.893.584 13.318.83 19.613 1.993 16.351 3.019 18.899 3.694 28.673 7.605 11.162 4.465 15.808 6.816 20.638 10.445 1.76 1.323 4.766 3.292 6.677 4.375 4.85 2.749 15.673 13.43 19.707 19.448 9.009 13.443 16.15 30.797 18.733 45.525.215 1.224.815 4.625 1.334 7.558 1.119 6.328 1.416 17.012.72 25.831l-.504 6.36 5.423 8.585c2.983 4.723 6.17 10.63 7.083 13.127 1.626 4.45 1.647 4.706 1.019 12.72-.76 9.715-1.543 13.652-3.61 18.171-2.414 5.279-6.608 9.268-13.596 12.933l-6.122 3.21-.487 4.422c-.267 2.431-.918 7.998-1.445 12.37-1.26 10.448-1.192 14.91.305 19.808 2.17 7.102 3.303 14.59 2.586 17.075-.968 3.354-.79 5.604.499 6.293.951.51 1.384.149 2.623-2.187 2.418-4.558 9.85-9.551 16.983-11.409 5.93-1.545 12.63-.058 15.561 3.452 2.84 3.401 3.397 6.375 3.461 18.483.06 11.068.383 14.312 1.695 16.975.495 1.005.48 3.048-.054 7.314-.835 6.663-2.511 9.873-6.52 12.485l-2.268 1.477-.38 6.724c-.478 8.431-1.843 12.508-4.88 14.571-1.22.83-2.956 1.507-3.858 1.507-1.744 0-4.424 2.057-4.424 3.396 0 .44-.78 2.004-1.732 3.473-1.96 3.023-3.48 3.374-5.676 1.31-1.333-1.252-1.674-1.298-4.251-.577-2.39.67-3.095.633-4.793-.245-1.388-.717-1.991-1.49-1.991-2.548 0-1.462-.263-1.376-7.07 2.311-10.286 5.573-18.32 9.067-33.633 14.629-9.21 3.345-28.988 8.436-40.066 10.312-10.289 1.743-30.71 3.551-40.867 3.618l-9.693.064 3.993.874c5.165 1.132 8.62 3.828 9.966 7.777 2.14 6.283 1.548 7.602-10.348 23.02l-5.643 7.314-3.754.076c-2.065.043-4.558-.05-5.54-.204zm12.598-7.629c2.448-3.377 4.748-6.448 5.11-6.824.363-.375 1.895-2.453 3.403-4.617 2.808-4.026 3.258-6.006 2.329-10.236-.926-4.213-8.46-7.801-14.255-6.788-7.028 1.23-10.767 8.92-7.265 14.945 1.283 2.209 4.633 4.4 7.417 4.851 1.269.206 2.307.64 2.307.965 0 .325-1.503 2.213-3.34 4.195-9.015 9.732-8.243 8.674-6.662 9.135.779.228 2.56.437 3.96.464 2.501.05 2.619-.052 6.996-6.09zm-4.76-13.73c-2-1.013-2.856-3.415-2.29-6.43.867-4.624 6.716-6.11 11.276-2.863 1.513 1.078 1.815 1.747 1.815 4.019 0 4.008-2.117 6.094-6.17 6.082-1.678-.005-3.762-.369-4.63-.808zm7.903-2.504c2.335-3.333.577-6.218-3.789-6.218-2.93 0-4.76 1.521-4.76 3.957 0 3.415 6.531 5.142 8.55 2.261zm-40.066 13.02c.378-2.122 5.953-21.52 7.358-25.598.974-2.826 1.38-5.724.802-5.724-.31 0-2.354.605-4.542 1.344-3.72 1.256-3.896 1.401-2.704 2.236 1.393.976 1.307 1.49-1.84 11.048a492.201 492.201 0 00-2.817 9c-.915 3.027-2.095 5.86-2.62 6.296-1.354 1.123-.858 1.983 1.668 2.896 3.64 1.315 4.229 1.127 4.695-1.498zm51.583-39.362c2.2-2.2 3.532-1.992 3.039.473l-.395 1.972 1.924-.995c1.364-.705 4.106-1.038 9.425-1.143 4.386-.086 10.558-.722 14.863-1.53 4.049-.761 9.508-1.75 12.132-2.196 4.733-.807 18.35-4.845 23.192-6.878 1.388-.583 3.887-1.06 5.553-1.06 2.42 0 3.23-.288 4.031-1.431.807-1.152 1.608-1.431 4.112-1.431 2.74 0 3.207-.202 3.938-1.702 1.007-2.065 4.189-3.349 5.037-2.032.47.73.666.716 1.19-.082.344-.525.63-1.452.635-2.061.006-.66 1.359-1.892 3.349-3.05 1.836-1.068 3.826-2.277 4.421-2.686 1.701-1.169 2.145.012.616 1.64-1.552 1.652-1.736 2.341-.626 2.341 1.172 0 3.697-2.64 3.697-3.867 0-.798 1.906-1.906 6.922-4.023 3.807-1.607 7.67-2.921 8.586-2.921 1.462 0 1.673-.27 1.743-2.226.044-1.224.124-3.156.179-4.293.233-4.86-3.095-17.887-5.553-21.736-.463-.725-1.048-1.875-1.299-2.555-.452-1.224-.443-1.224.978 0 2.764 2.383 3.696 3.822 5.748 8.868l2.069 5.088.007 12.084c.004 6.646-.243 13.157-.548 14.468l-.554 2.385h4.807c7.215 0 7.746-.893 7.755-13.037.006-8.498-1.16-14.34-4.231-21.206-2.092-4.676-2.118-4.808-.851-4.321.668.256.96-.056.974-1.045.017-1.162.799-.602 4.42 3.162 2.42 2.515 5.015 5.806 5.768 7.314l1.368 2.74-4.516-4.435c-2.484-2.439-4.52-4.156-4.524-3.815-.004.34 1.017 4.911 2.27 10.158 1.251 5.247 2.407 10.19 2.566 10.985.251 1.249.471 1.348 1.62.733 1.264-.676 1.316-.58 1.075 1.954-.253 2.646-.246 2.655.88 1.263.625-.771 1.136-1.962 1.136-2.647 0-.954.296-1.15 1.272-.84 2.157.684 2.696-2.126 2.186-11.39-.427-7.757-.389-8.186.697-7.77.679.26 1.366.107 1.677-.375.427-.66.633-.655 1.075.03.818 1.268 4.003-2.9 5.434-7.11.962-2.831 1.099-4.52.762-9.405-.848-12.288-1.024-13.268-2.371-13.268-.679 0-2.646-.716-4.372-1.59-4.494-2.278-8.176-2.152-11.896.407-1.597 1.1-5.083 3.09-7.746 4.426-2.664 1.336-5.533 3.024-6.377 3.753l-1.534 1.324 2.488 2.624a898.205 898.205 0 004.555 4.765c1.137 1.177 2.067 2.247 2.067 2.378 0 .13-1.002-.07-2.226-.446s-2.226-.928-2.226-1.227c0-1.134-5.305-6.239-6.484-6.239-1.546 0-1.316.805 2.431 8.504 1.527 3.137 2.595 5.87 2.374 6.073-.222.203-.53.013-.685-.422-.156-.434-1.902-3.253-3.88-6.264l-3.597-5.474-2.403.322c-1.997.268-2.524.091-3.127-1.05-.399-.754-1.819-2.62-3.156-4.146-1.337-1.527-2.766-3.702-3.175-4.835-.426-1.179-1.588-2.52-2.718-3.135-4.746-2.589-6.1-4.299-7.358-9.292-.66-2.621-1.349-6.197-1.529-7.946-.635-6.17-1.172-8.959-2.754-14.31-2.01-6.797-3.291-9.282-6.228-12.083-3.34-3.186-3.588-3.863-4.44-12.182-.6-5.857-1.137-8.205-2.455-10.745-1.713-3.302-1.128-4.026.967-1.2.69.93 1.437 3.715 1.868 6.956.396 2.973.99 6.121 1.32 6.996.54 1.428.663 1.477 1.223.477 1.346-2.406 2.134-.986 3.72 6.71.516 2.499 1.34 4.28 2.555 5.524 2.648 2.708 4.373 8.044 5.099 15.77.352 3.748.82 8.675 1.041 10.95.454 4.682 1.339 6.771 4.033 9.528 2.166 2.215 3.491 2.5 3.007.647-.398-1.521-.525-1.504 2.312-.318 1.255.524 2.435.954 2.621.954.845 0 .182-1.33-1.503-3.016-1.013-1.013-2.658-3.396-3.657-5.296-1.72-3.271-1.806-3.822-1.64-10.412.095-3.827.314-7.099.487-7.271.915-.916 1.777 1.737 2.281 7.023 1.022 10.715 2.73 15.477 6.108 17.015 1.86.848 1.822 1.878-.147 4.002-2.857 3.08-2.573 3.08 5.846-.026 6.894-2.543 12.275-6.26 14.876-10.274 1.202-1.854 2.542-3.193 3.196-3.193 2.974 0 1.645 3.268-3.185 7.833-1.783 1.684-3.416 3.76-3.63 4.61-.213.852-.66 1.549-.992 1.549-.333 0-.428-.287-.212-.636.216-.35.071-.636-.323-.636-.405 0-.628.757-.514 1.749.12 1.04.587 1.748 1.155 1.748.525 0 1.147.268 1.383.596.443.616 1.915-.311 8.774-5.524 3.573-2.716 4.312-3.021 7.314-3.021 2.406 0 3.94.401 5.494 1.437 3.108 2.071 5.774 3.153 6.328 2.568.97-1.026 1.68-5.074 1.43-8.153-.577-7.08-2.806-9.875-8.884-11.137-3.104-.644-4.16-.588-7.48.395-4.186 1.24-5.357 1.858-10.284 5.435-2.35 1.706-3.7 3.326-4.92 5.903-.926 1.954-1.9 3.548-2.168 3.543-.97-.019-6.22-2.016-6.999-2.663-.985-.818-1.05-2.862-.1-3.18.384-.127 1.053-1.627 1.486-3.33.908-3.578-.022-11.139-2.092-17.01-.656-1.86-1.684-5.593-2.284-8.296l-1.092-4.916 1.65-5.608c2.68-9.107 3.443-18.68 1.588-19.941-.759-.516-.699-.745.362-1.38 1.547-.927 6.131-5.488 9.409-9.36l2.412-2.85-.361 2.315-.362 2.315 2.25-.773c7.372-2.534 11.279-11.956 11.094-26.752-.091-7.286-.195-7.842-2.287-12.255-1.205-2.543-3.586-6.467-5.292-8.72-4.648-6.14-7.241-11.985-7.133-16.075.048-1.839.383-3.895.744-4.57 1.152-2.152.796-19.973-.535-26.748-1.187-6.045-4.154-14.49-7.821-22.26-1.073-2.273-2.634-5.93-3.467-8.128-2.523-6.646-5.589-12.2-10.61-19.218-5.69-7.952-8.296-10.278-21.48-19.169-9.07-6.116-11.126-7.194-21.369-11.205-9.829-3.85-12.768-4.697-22.145-6.383-10.2-1.834-23.769-3.32-30.263-3.313-3.907.004-9.293 1.85-18.676 6.398-4.29 2.08-8.101 3.781-8.469 3.781-.368 0-3.511 1.423-6.986 3.163-4.17 2.087-7.33 4.195-9.3 6.2-3.588 3.657-12.34 14.365-16.296 19.94a372.626 372.626 0 01-5.874 8c-3.944 5.193-8.661 13.229-13.556 23.09-6.966 14.035-7.706 16.228-8.273 24.51-.335 4.889-.71 6.661-1.622 7.664-.7.77-1.407 2.927-1.728 5.27-.422 3.09-.964 4.417-2.454 6.01-3.514 3.755-5.139 6.427-10.33 16.989-2.836 5.771-6.492 13.056-8.123 16.188-3.102 5.958-4.412 11.121-3.331 13.14 1.34 2.503 2.753 2.59 9.093.559 3.606-1.155 7.115-1.873 8.773-1.794 1.52.072 3.298-.11 3.95-.404.978-.44 1.119-.322.803.674-.333 1.05-.062 1.203 2.045 1.162 1.336-.027 3.113-.527 3.95-1.113 1.864-1.306 2.51-1.344 2.51-.149 0 .504.326 1.118.725 1.365.74.457.503-3.842-.404-7.37-.386-1.495-.3-1.466 1.443.494 2.067 2.324 3.044 6.652 3.611 15.991l.325 5.355-1.896-1.817c-1.043-1-1.897-2.059-1.897-2.354 0-.296-.416-1.534-.925-2.752l-.925-2.213-2.095 1.278c-2.781 1.695-3.974 1.614-5.417-.367-.844-1.158-2.11-1.819-4.258-2.22-4.549-.85-5.528.448-2.668 3.535 2.071 2.235 2.278 3.95 1.154 9.599-1.803 9.061.154 11.758 8.66 11.934l5.166.106.407 2.694c.25 1.657.037 4.104-.555 6.36l-.961 3.666-.063-2.766c-.074-3.223-1.63-6.864-3.319-7.768-.69-.37-2.921-.454-5.369-.204-3.478.357-4.36.692-5.203 1.98-.876 1.336-.901 1.87-.186 3.85 1.022 2.824 2.513 8.964 2.543 10.473.013.612-.381 1.113-.875 1.113-.525 0-1.593 1.816-2.567 4.366l-1.669 4.367 1.316 3.517c.724 1.935 2.047 4.248 2.94 5.141l1.623 1.624 3.504-1.55c4.366-1.93 7.14-2.675 11.81-3.167 4.357-.46 4.574.044 1.796 4.18-2.44 3.633-1.928 4.518 4.29 7.403 12.958 6.012 17.135 7.52 24.35 8.791 1.119.198 2.812.912 3.761 1.588 1.563 1.113 1.767 1.728 2.153 6.493 1.056 13.035 3.656 26.325 6.38 32.61 1.142 2.635 1.4 4.568 1.51 11.282.278 17.065-2.274 23.003-18.83 43.812l-2.094 2.633 1.777 1.06c2.524 1.504 11.595 3.857 14.876 3.857 1.524 0 4.991.477 7.705 1.06 3.933.845 5.268.908 6.58.31 1.846-.841 2.824-.507 2.824.964 0 .798.457.9 2.385.529 3.643-.7 9.6-.412 11.44.552 2.018 1.057 3.638.688 5.605-1.28zm-3.53-5.596c0-.154.285-.457.635-.673.35-.216.636-.09.636.28s-.286.674-.636.674c-.35 0-.636-.127-.636-.28zm124.894-19.435c.178-1.224.516-4.229.752-6.677.556-5.764 1.258-7.103 1.858-3.546.656 3.883-.162 9.286-1.665 11.002l-1.269 1.447zm-136.577-.335c-1.66-1.214-1.254-8.392.697-12.33.765-1.545 1.25-3.035 1.08-3.311-.171-.277.414-.978 1.3-1.558.977-.64 1.61-1.65 1.61-2.572 0-1.049.36-1.517 1.17-1.517.644 0 1.51-.747 1.928-1.665.643-1.41 1.048-1.608 2.646-1.288 1.518.304 1.887.16 1.887-.737 0-1.44 2.266-3.4 5.088-4.403 3.09-1.099 3.97-1.024 3.549.303-.194.612.056 1.9.555 2.861.789 1.52.788 1.75-.008 1.75a.913.913 0 00-.916.905c0 .497-.673 1.714-1.495 2.702-.823.99-1.371 2.156-1.22 2.593.153.437.012.795-.311.795-.324 0-.929 1.136-1.345 2.525-.42 1.4-1.809 3.514-3.121 4.75a952.369 952.369 0 00-6.188 5.902c-5.525 5.313-5.519 5.309-6.906 4.295zm143.128-8.175c-.239-.623-.409-1.897-.377-2.83.053-1.582.099-1.553.67.429.66 2.296.421 4.262-.293 2.4zm-152.823-8.056c-.062-5.557.062-6.363.954-6.193.814.155 1.065 1.18 1.216 4.951.215 5.38-.174 7.633-1.315 7.632-.563 0-.803-1.795-.855-6.39zm163.901 3.01c-.385-.984-.701-2.536-.701-3.447 0-.912-.474-2.181-1.053-2.82-.578-.64-.775-1.164-.437-1.164.768 0 3.077 3.076 3.64 4.85.232.729.158 2.011-.163 2.849l-.584 1.523zm-5.47-5.523c-.217-.35-.09-.636.28-.636s.673.286.673.636c0 .35-.126.636-.28.636-.155 0-.458-.286-.674-.636zm9.22-10.464c0-.158.337-1.025.747-1.926.513-1.125.897-1.394 1.228-.859.544.881-.426 3.073-1.36 3.073-.338 0-.614-.13-.614-.288zm-18.682-6.414c-.614-1.6-.433-2.012.317-.723.371.639.541 1.295.377 1.459-.163.164-.476-.167-.694-.736zm19.637-1.972c-1.4-.807-4.087-1.817-5.973-2.242-1.886-.426-4.416-1.444-5.622-2.262l-2.193-1.489 1.393 2.087c1.298 1.944-4.223-3.544-7.431-7.387-2.433-2.913-.49-1.771 2.593 1.524 1.636 1.75 3.08 3.18 3.207 3.18.128 0 .084-.57-.098-1.268-.317-1.211-.208-1.2 2.444.247 1.527.833 3.92 1.713 5.32 1.957 3.215.56 5.964 2.238 7.856 4.797.813 1.1 1.38 2.072 1.263 2.162-.119.09-1.36-.498-2.76-1.306zm-7.473-12.778c1.487-.134 3.92-.134 5.406 0 1.486.133.27.243-2.703.243s-4.19-.11-2.703-.243zm-3.02-4.55l-2.227-.395 2.036-.857c2.323-.978 7.187-.537 9.73.883 1.475.823 1.267.883-2.862.826-2.449-.033-5.454-.239-6.678-.456zm-7.444-6.723c1.279-2.007 2.991-3 2.991-1.736 0 .602-3.37 3.935-3.98 3.935-.227 0 .218-.99.989-2.2zm-17.747-3.549c-.038-1.06-.682-2.58-1.43-3.378-.75-.798-1.363-1.78-1.363-2.184 0-.404-.386-.586-.859-.404-.56.215-1.307-.706-2.146-2.643-1.188-2.746-1.29-5.359-.208-5.359.25 0 2.09 3.026 4.088 6.724 2.405 4.451 3.502 7.139 3.244 7.95-.581 1.832-1.248 1.477-1.326-.706zm-.054-8.746c-.417-.265-1.103-1.77-1.524-3.344-.682-2.548-.616-3.2.6-5.948.75-1.698 1.365-3.48 1.365-3.96s.229-.873.509-.873.852 1.663 1.272 3.695c1.576 7.631.598 12.223-2.222 10.43zM329.16 298.78c-1.97-1.826-4.53-7.118-5.183-10.712-.48-2.643-1.523-2.077-1.541.836-.01 1.432-.097 1.48-1.021.556-.916-.916-.92-1.362-.045-4.747.532-2.055 1.472-4.881 2.09-6.28l1.123-2.544.432 3.498c.645 5.23 2.766 13.205 4.61 17.33.9 2.011 1.549 3.657 1.444 3.657-.104 0-.964-.717-1.91-1.594zm-132.021-2.858c0-.35.589-.636 1.309-.636s1.133.286.916.636c-.216.35-.805.636-1.31.636-.503 0-.915-.286-.915-.636zm1.907-1.92c0-.374-.673-.48-1.59-.25-1.202.303-1.59.15-1.59-.623 0-1.06-.735-1.347-1.496-.586-.24.24-1.01.48-1.708.53-1.233.091-1.23.05.113-1.38.762-.81 1.843-1.618 2.403-1.796.56-.178 1.302-.951 1.648-1.719.767-1.698 2.22-2.284 2.22-.895 0 1.524.88 1.214 2.404-.847 1-1.353 1.732-1.759 2.709-1.504.82.215 2.05-.176 3.175-1.008 2.025-1.497 3.491-1.73 4.154-.657.246.398 1.222.542 2.263.333 1.007-.201 1.83-.121 1.83.178 0 1.519-5.563 5.978-10.346 8.293-5.738 2.778-6.189 2.918-6.189 1.93zm137.583-4.28c2.258-8.46 4.57-16.026 4.74-15.516.117.354-.067 3.675-.41 7.38-.543 5.857-.818 6.898-2.106 7.971-1.855 1.546-2.608 1.601-2.224.164zm-3.904-5.794c-.562-.356-.732-1.434-.526-3.329.168-1.541.5-4.89.74-7.444.453-4.843 1.178-5.554 2.674-2.622 1.11 2.176.991 8.36-.219 11.385-1.073 2.681-1.319 2.867-2.669 2.01zm-99.018-4.541c.426-.689-.276-.838-3.064-.651-1.773.118-1.782.1-.85-1.682 1.312-2.504 3.272-4.467 5.682-5.689 3.59-1.82 8.09-5.557 8.09-6.717 0-.735.328-.995.954-.755.722.277.954-.115.954-1.61 0-1.558.271-1.976 1.284-1.976 1.07 0 1.22.29.897 1.75-1.626 7.34-3.735 10.814-8.98 14.784-3.973 3.008-5.846 3.968-4.967 2.546zm72.785-8.628c-1.164-1.402-3.453-2.444-8.233-3.749-5.27-1.438-10.836-4.24-13.398-6.744-2.717-2.656-6.33-11.114-6.272-14.682l.045-2.766 1.094 3.817c1.188 4.147 3.533 9.402 5.126 11.487 2.9 3.794 5.753 5.507 10.564 6.343 5.807 1.008 9.761 2.836 11.643 5.38 1.435 1.942.942 2.735-.57.914zm-9.088-9.328c-.404-.258.321-.473 1.612-.478 1.291-.005 2.488.217 2.659.493.39.632-3.276.618-4.271-.015zm46.01-3.861c0-1.364 3.75-6.893 7.07-10.421 2.608-2.773 3.104-3.078 3.099-1.908-.003.766-1.044 2.68-2.313 4.255a183.578 183.578 0 00-4.505 5.882c-2.19 3.01-3.352 3.769-3.352 2.192zm-22.341-.92c-.791-1.008-.769-1.03.24-.24 1.06.831 1.396 1.353.873 1.353-.132 0-.633-.5-1.113-1.113zm-71.784-.09c0-.363.598-.98 1.328-1.37 1.138-.61 1.297-.546 1.106.446-.235 1.222-2.434 2.057-2.434.924zm76.148-2.71c-1.317-.287-3.605-1.14-5.085-1.895-1.479-.755-3.495-1.35-4.48-1.321-2.857.081-1.735-1.26 2.94-3.512 2.754-1.326 4.525-2.623 4.996-3.656.404-.886 1.265-1.602 1.926-1.602.658 0 1.813-.574 2.566-1.276.874-.814 1.59-1.054 1.98-.665.571.572.174 1.196-4.226 6.634-.651.805-.968 1.866-.737 2.469.367.955.58.928 2.204-.272.989-.731 1.669-1.666 1.511-2.077-.196-.512.417-.664 1.956-.485 2.055.24 2.631-.115 6.905-4.259 2.564-2.486 4.835-4.52 5.047-4.52 1.06 0-1.088 4.29-4.21 8.407-5.037 6.64-8.92 8.987-13.293 8.03zm-27.99-2.289c-1.178-1.302-2.639-4.852-1.777-4.319.324.2 1.491 1.504 2.596 2.898 1.334 1.685 1.703 2.536 1.099 2.536-.5 0-1.363-.502-1.917-1.115zm40.589-.316c.465-1.54 3.373-4.93 4.229-4.93.676 0-3.456 6.334-4.142 6.35-.285.005-.325-.633-.087-1.42zm-95.359-1.528l-3.113-.95 2.16-1.281c4.383-2.602 11.257-11.742 11.671-15.52.2-1.814.776-2.603 1.426-1.953.69.69-.91 5.88-2.672 8.674-1.813 2.872-1.965 3.98-.69 5.038 2.608 2.165 9.657.09 14.47-4.258 1.93-1.743 7.527-10.195 7.527-11.365 0-.372-4.187-2.137-5.068-2.137-.36 0-.656.475-.656 1.057 0 1.43-3.064 6.574-3.916 6.574-.389 0-.232-.687.365-1.598.576-.879 1.11-2.603 1.186-3.832.134-2.157.013-2.287-3.478-3.72-2.4-.987-3.83-1.274-4.25-.854-1.058 1.059-2.42.063-3.867-2.828-.757-1.512-2.392-4.147-3.634-5.856-2.97-4.085-3.517-3.183-3.042 5.015.325 5.613.221 6.591-.881 8.335-.687 1.087-1.842 2.131-2.567 2.32-1.294.34-1.3.303-.258-1.975 1.249-2.733 1.902-10.906.871-10.906-.373 0-1.127 1.073-1.675 2.385-1.381 3.305-3.94 5.793-6.442 6.263-2.293.43-5.299-.093-5.299-.921 0-.285 1.447-1.455 3.215-2.6 3.316-2.149 5.951-5.58 6.705-8.731.624-2.607.9-2.905 1.907-2.07.734.61 1.031.378 1.596-1.24.381-1.095 1.079-1.99 1.55-1.99.79 0 4.044 3.159 7.206 6.996 1.13 1.37 1.313 1.428 1.331.416.018-.987.503-.805 3.042 1.137 3.38 2.584 10.172 5.976 15.349 7.665 4.602 1.5 11.221 1.075 13.996-.9 1.904-1.357 7.065-9.201 7.065-10.74 0-1.325 1.272-.816 2.01.804.622 1.362.37 2.138-1.971 6.078-2.023 3.406-3.454 4.991-5.813 6.443-1.721 1.059-3.13 2.171-3.13 2.47 0 .3.644 1.024 1.431 1.607 1.413 1.047 1.402 1.055-.795.63-2.312-.446-3.26-.675-5.406-1.306-.7-.205-1.813.024-2.476.51-1.167.857-1.152.96.477 3.358.925 1.361 1.681 2.694 1.681 2.963 0 .893-1.255.504-2.548-.789l-1.277-1.276-1.884 2.071c-1.037 1.14-1.893 2.293-1.904 2.563-.034.896-5.225 6.156-7.403 7.503-1.665 1.029-2.887 1.265-5.488 1.06-2.03-.16-4.88.172-7.255.843l-5.088 1.437c-.647.182-2.578-.096-4.29-.619zm-5.936-.606c.212-.21.76-.233 1.22-.05.507.203.356.354-.385.384-.67.028-1.046-.122-.835-.334zm-6.532-.871c0-.357.88-.453 2.067-.227 2.899.552 2.99.847.265.847-1.282 0-2.332-.28-2.332-.62zm-2.857-1.281c-.223-.36.032-.467.598-.25 1.102.423 1.304.879.389.879-.33 0-.773-.283-.987-.629zm77.744-.893c-1.61-1.221-1.421-1.442 1.59-1.865 1.486-.209 5.278-1.531 8.426-2.939 3.148-1.407 6.44-2.551 7.314-2.543 1.47.014 1.351.236-1.59 2.949-1.749 1.613-4.325 3.456-5.724 4.095-2.967 1.354-8.415 1.52-10.016.303zm-7.469-3.541c.008-.635 4.199-3.205 5.225-3.205 1.604 0 8.281-2.66 10.034-3.996 1.444-1.101 1.61-1.115 1.805-.151.549 2.715-6.44 6.72-12.735 7.297-2.383.218-4.331.243-4.329.055zm-75.767-1.774c-.79-1.009-.768-1.031.24-.24 1.06.83 1.397 1.353.873 1.353-.132 0-.632-.5-1.113-1.113zm63.401-.825c-4.892-1.562-4.271-2.281 2.324-2.693 5.016-.313 7.004-.806 13.218-3.274 4.022-1.597 7.943-2.905 8.712-2.905 1.72-.001 4.01-2.985 5.597-7.292.786-2.133 1.174-4.981 1.197-8.784.03-4.737.164-5.451.85-4.513.629.86.826.906.865.199.084-1.526 3.114 5.322 3.112 7.033-.003 3.07-1.05 3.426-1.553.528l-.478-2.754-.767 3.498c-1.913 8.732-6.579 16.743-8.356 14.346-.58-.782-.949-.732-2.544.348-6.815 4.612-10.402 6.265-14.66 6.759-3.35.388-5.114.271-7.517-.496zm-64.868-1.691c-.346-.907-.273-.98.356-.356.434.43.63.944.434 1.14-.196.196-.552-.157-.79-.784zm124.973-.028c.075-1.87.964-3.643 1.44-2.873.431.698-.518 3.986-1.151 3.986-.184 0-.314-.5-.29-1.113zm13.31-5.247c0-3.498.123-6.36.273-6.36.716 0 1.669 7.293 1.287 9.841-.745 4.965-1.56 3.146-1.56-3.48zm-117.655 3.324c0-.27 1.713-1.773 3.807-3.339s3.973-3.347 4.176-3.96c.545-1.638 1.5-1.356 1.074.318-.623 2.458-2.144 4.288-4.91 5.91-2.712 1.589-4.147 1.96-4.147 1.071zm93.4-5.253c1.958-1.631 3.16-1.616 1.678.021-.633.7-1.607 1.263-2.165 1.251-.771-.016-.654-.321.487-1.272zm-44.598-.359c-.855-.855.446-2.19 2.738-2.807 2.166-.583 2.578-1.028 3.68-3.981.682-1.829 1.478-3.325 1.77-3.325.29 0 .914.715 1.385 1.59.772 1.434.823 1.193.512-2.459-.38-4.472-.528-4.73-5.293-9.207-3.19-2.997-3.694-4.234-1.724-4.234.504 0 .939.501.966 1.113.03.665.18.793.371.318.45-1.116 3.712-.992 4.684.18.71.857.595.893-.965.3-2.616-.995-2.646-.37-.123 2.578 1.244 1.452 2.709 3.584 3.256 4.737 1.348 2.84 1.286 8.602-.118 11.07-1.742 3.06-2.717 2.483-1.447-.857.796-2.095-.14-2.125-1.256-.041-.468.874-1.017 1.59-1.22 1.591-.204 0-1.372.859-2.596 1.906-2.116 1.811-3.785 2.363-4.62 1.528zm39.9-.574c2.086-5.143 3.032-9 3.353-13.673.352-5.117.416-5.304 1.192-3.498 1.397 3.25 1.081 8.87-.712 12.66-1.594 3.37-4.994 7.371-3.834 4.511zm-69.623-1.59c-.794-1.484-.797-1.483 1.813-.573 2.39.833 2.628 1.845.435 1.845-.916 0-1.85-.528-2.248-1.272zm62.06-3.338c1.126-4.216 1.24-10.437.288-15.648-.406-2.222-.619-4.16-.474-4.305.569-.569 3.15 8.56 3.463 12.246.278 3.28.071 4.467-1.305 7.472-2.075 4.534-3.153 4.662-1.972.235zm40.968 2.067c0-1.188.17-1.357.764-.764.593.594.593.933 0 1.527-.594.593-.764.424-.764-.763zm-5.863-4.48c-.156-1.065-.046-2.084.246-2.264.291-.18.533.047.538.505.005.458.181 1.477.392 2.264.212.787.097 1.43-.254 1.43s-.766-.87-.922-1.935zm-76.814-.513c0-.936 5.325-3.445 6.735-3.174 1.038.2.943.414-.7 1.576-2.196 1.553-6.035 2.57-6.035 1.598zm58.257-3.242c-.444-3.341.643-9.164 1.599-8.573.63.39.775 9.153.176 10.714-.702 1.83-1.352 1.047-1.775-2.141zm-116.898 1.08c-1.96-3.067-1.959-3.274.006-1.433 2.036 1.907 2.527 2.864 1.471 2.864-.31 0-.974-.644-1.477-1.431zm133.98-3.816c-.673-2.242-4.104-7.554-6.573-10.176-2.763-2.933-2.103-3.083 1.406-.318l2.623 2.067-3.36-4.047c-3.546-4.273-3.859-5.47-.928-3.554 3.317 2.17 6.31 5.874 8.691 10.757 2.407 4.937 2.905 8.046.687 4.291-1.57-2.657-2.212-2.59-1.762.185.403 2.483-.12 3.012-.785.795zm-128.844-.165c-.92-.5-1.844-1.354-2.053-1.898-.323-.84-.168-.874 1.038-.224.779.42 3.632.785 6.34.81 2.71.025 4.927.247 4.93.493.006.626-4.38 1.776-6.674 1.75-1.05-.012-2.66-.431-3.581-.931zm49.936-1.427c-3.03-2.76-4.698-5.292-4.698-7.13 0-2.21.916-1.451 3.425 2.839 1.33 2.273 2.714 4.316 3.075 4.539.362.223 2.982.352 5.823.285 4.744-.11 5.062-.041 3.894.847-.802.61-2.68.973-5.088.985-3.53.017-4.01-.16-6.431-2.365zm48.883-3.473c-1.823-7.059-1.798-7.694.189-4.77 1.382 2.034 1.592 2.964 1.43 6.348l-.188 3.964zm24.803 4.285c-.876-.388-1.431-1.193-1.431-2.074 0-1.886.987-1.83 2.27.13 1.311 2 .986 2.753-.84 1.944zm-42.943-3.142c-.97-1.72-1.932-3.797-2.137-4.616-.387-1.541-.957-1.768-6.116-2.437-1.662-.215-3.021-.655-3.021-.976 0-1.565 6.295-1.481 9.832.13 1.198.547 1.435.937.935 1.54-.49.59-.217 1.493 1.006 3.342 1.073 1.621 1.603 3.185 1.471 4.34-.2 1.748-.262 1.706-1.97-1.323zm-27.969-1.08c-.961-.718-1.748-1.722-1.748-2.231 0-1.307-2.438-6.009-3.999-7.713-.721-.787-1.822-1.43-2.447-1.43-.77 0-1.376-.804-1.883-2.497-.764-2.551-.48-4.5.657-4.5.35 0 .47.433.267.961-.489 1.274 2.597 5.256 4.272 5.514.994.153 1.634 1.154 2.568 4.02.862 2.64 1.957 4.452 3.555 5.882 1.27 1.137 2.56 2.067 2.868 2.067.658 0 2.873-2.313 4.548-4.748.78-1.136 1.399-1.509 1.813-1.094 1.16 1.16-.951 4.167-3.958 5.64-3.558 1.743-4.329 1.758-6.513.129zm-21.513-4.132c-.798-2.036-1.616-9.692-.97-9.085.557.524 2.385 10.229 2 10.614-.17.17-.633-.518-1.03-1.529zm-15.85-.21c0-.678.286-1.41.636-1.627.36-.223.636.312.636 1.235 0 .895-.286 1.627-.636 1.627-.35 0-.636-.555-.636-1.234zm-78.861-.23c0-.455.837-1.967 1.86-3.359 2.778-3.776 3.012-5.468 1.05-7.586-1.493-1.61-1.638-2.246-1.638-7.169v-5.401l-2.362 3.587c-2.54 3.855-3.474 4.406-7.655 4.507-2.163.053-2.703-.153-2.703-1.033 0-1.975 1.342-4.107 3.32-5.275 1.784-1.055 1.985-1.063 2.523-.101.478.853.836.91 1.956.31 2.708-1.449 3.371-2.993 3.522-8.202.12-4.133-.04-5.094-.936-5.595-.689-.385-1.578-.38-2.446.016-.981.447-2.04.34-3.765-.38-1.32-.553-2.702-.818-3.07-.59-.681.42-.229-4.99.519-6.199.198-.32 2.24-.583 4.536-.583 5.459 0 11.17 2.408 12.625 5.323.623 1.25.741 2.054.322 2.194-2.964.988 4.82 7.022 10.777 8.356 1.768.396 2.621 2.57 1.009 2.57-1.56 0-1.186 1.035.992 2.74 1.123.878 1.8 1.87 1.552 2.271-.859 1.39-3.312.695-5.487-1.553-3.341-3.455-13.988-10.21-14.805-9.394-.75.75 1.56 4.035 3.561 5.06 1.131.58 2.2 1.245 2.374 1.479.91 1.215 3.674 2.577 5.23 2.577.971 0 1.766.286 1.766.636 0 .986-2.231.757-6.194-.636-1.99-.7-3.844-1.272-4.118-1.272-.854 0-.55 1.435.567 2.668.817.903.891 1.353.318 1.926-1.195 1.195-.877 3.102.962 5.755l1.71 2.468-2.121 3.926c-2.975 5.508-5.751 8.384-5.751 5.96zm65.85-.907c-2.316-.588-7.47-4.5-8.742-6.635-1.062-1.783-.692-1.564 2.316 1.376l3.58 3.497h4.59c2.524 0 5.093-.247 5.71-.548.853-.417 1.034-.324.76.391-.73 1.903-4.662 2.822-8.214 1.92zm113.177-7.167c-1.127-.485-1.073-.552.477-.592.962-.024 1.75.242 1.75.592 0 .746-.49.746-2.227 0zm-113.018-.92c-2.402-.694-4.184-1.971-3.585-2.57.182-.183 1.253-.01 2.38.382 1.126.393 3.19.532 4.584.309 2.345-.375 2.486-.315 1.89.8-.852 1.591-2.397 1.907-5.27 1.078zm66.739-1.406c.43-.174 1.289-.184 1.908-.023.618.161.266.304-.783.317-1.05.013-1.556-.12-1.125-.294zm39.003-1.316c-.504-.199-1.648-1.128-2.544-2.066-.895-.937-2.915-2.072-4.49-2.521-1.573-.45-4.006-1.427-5.405-2.173l-2.544-1.357 1.94-.193c1.203-.12 3.422.542 5.847 1.745 2.149 1.066 4.17 1.939 4.493 1.939.322 0 1.325.581 2.229 1.292 1.228.967 2.092 1.174 3.424.822.98-.258 2.14-.398 2.577-.31.465.093.795-.494.795-1.417 0-.867.282-2.318.627-3.224.697-1.834 2.648-2.921 3.054-1.703.18.54.498.579 1.04.129.565-.469 1.382-.028 2.952 1.59 1.664 1.718 1.971 2.363 1.317 2.768-.669.413-.695.824-.12 1.898 1.647 3.076 2.665-1.557 1.35-6.142-.325-1.135-.358-2.063-.072-2.063.897 0 2.398 4 2.77 7.38l.356 3.245-6.16.408c-7.208.478-12.15.46-13.436-.047zm-71.568-.96c-.525-1.25-.168-5.958.579-7.641.348-.783.213-1.113-.454-1.113-.521 0-1.097.572-1.28 1.272-.49 1.872-2.98 1.599-5.564-.61-2.827-2.417-3.437-2.415-2.184.008l1.004 1.942-1.942-1.004c-1.096-.567-1.942-1.513-1.942-2.173 0-.916-.832-1.346-3.842-1.984-2.463-.523-5.146-1.71-7.473-3.303-3.917-2.685-9.036-7.882-9.036-9.175 0-1.81 1.324-1.403 2.767.853 1.661 2.597 4.169 5.047 6.888 6.73 2.527 1.565 16.566 5.009 17.325 4.25.832-.832 2.414-.783 5.465.17 3 .935 3.116 1.667 1.329 8.43-.83 3.137-1.313 4.126-1.64 3.347zm3.503-.168c-.02-.7.595-3.066 1.365-5.259 1.37-3.897 1.47-4.007 4.574-4.928 1.745-.519 3.677-.943 4.292-.943 1.735 0 2.017 1.128.409 1.635-2.24.707-8.073 5.976-9.406 8.496-.892 1.688-1.209 1.944-1.234.999zm-37.559-2.889c-.635-1.186-.54-1.273 1.09-1.006.983.16 2.628.316 3.657.345 1.783.05 1.813.095.636.986-1.828 1.382-4.558 1.217-5.383-.325zm91.72.193c-1.507-.52-2.609-1.074-2.45-1.232.594-.595 4.795.591 5.123 1.446.188.49.28.856.203.812-.077-.044-1.371-.506-2.877-1.026zm-47.187-.73c0-1.094 4.75-5.16 6.023-5.154 1.017.004.617.607-1.89 2.845-3.177 2.836-4.133 3.37-4.133 2.31zm9.746-2.638c2.253-1.231 8.061-2.446 8.061-1.686 0 .428-5.37 2.14-8.268 2.635l-2.226.38zm52.935-3.895c-1.706-2.218-4.405-5.392-5.998-7.054-4.128-4.307-1.858-3.819 3.734.803 1.574 1.3 3.506 2.566 4.293 2.811 1.592.497 1.947 1.633.51 1.633-.799 0-.794.305.033 2.285 1.631 3.905.661 3.724-2.572-.478zm-89.392 2.009c-.525-.339-2.726-.62-4.892-.626-2.165-.005-4.114-.296-4.33-.646-.25-.404 1.47-.636 4.71-.636 4.452 0 5.19.162 5.784 1.272.735 1.374.247 1.618-1.272.636zm79.738-2.188l-3.893-2.731-4.375.846c-6.252 1.21-13.443 1.098-15.898-.246-3.885-2.128-6.841-5.002-12.73-12.375-5.996-7.51-9.891-11.03-12.913-11.67-.896-.19-2.2-.612-2.9-.937-1.542-.717 5.044-.06 6.995.698 2.296.891 8.303 7.208 11.32 11.904 1.627 2.534 4.269 5.863 5.87 7.397 5.053 4.841 12.608 6.122 17.713 3.004 2.078-1.27 5.699-1.33 8.707-.144.85.335 3.054 2.064 4.899 3.843 4.2 4.05 2.704 4.27-2.795.411zm-98.374 1.092c-2.64-.88-2.931-1.14-2.15-1.922.782-.782 1.347-.714 4.167.5 5.394 2.32 3.88 3.387-2.017 1.422zm106.123-.625c-.345-.907-.272-.98.356-.356.435.43.63.944.435 1.14-.196.196-.552-.157-.79-.784zm17.439-3.714c-.545-1.65-.567-2.51-.08-2.998.488-.487.795-.334 1.07.536.211.67.637 1.696.946 2.278.373.704.27 1.3-.306 1.778-.691.574-1.02.252-1.63-1.594zm-58.434.006c-1.537-.88-3.923-2.88-5.3-4.444-1.898-2.156-2.959-2.847-4.372-2.847-1.027 0-3.628-.715-5.78-1.59-2.152-.874-5.128-1.59-6.613-1.59-3.285 0-4.712-.493-4.712-1.629 0-2.019 8.204-1.65 13.617.61 1.255.525 2.282.837 2.282.694 0-1.394-9.628-7.016-11.069-6.464-.418.16-1.461-.096-2.318-.57-1.473-.816-1.374-.865 1.799-.886 5.428-.036 9.658 2.521 16.408 9.92 3.12 3.421 6.61 7.162 7.752 8.314 2.485 2.504 2.058 2.626-1.694.481zm47.573-.891c-2.075-1.811-2.25-3.118-.32-2.377.838.321 3.34 4.245 2.708 4.245-.137 0-1.211-.84-2.388-1.868zm-76.576.604c-1.569-.297-1.7-.443-.743-.82 1.426-.563 8.426-.617 7.87-.061-.703.703-5.157 1.253-7.127.88zm9.54-1.972c-4.1-.923-6.755-1.078-13.674-.794-8.35.342-8.676.306-11.884-1.32-1.815-.92-3.532-1.633-3.816-1.584-1.371.235-2.107-.158-2.107-1.125 0-1.438-1.836-3.376-2.835-2.993-.503.193-.953-.416-1.193-1.612-.266-1.333-1.166-2.416-2.935-3.533-1.403-.886-2.813-1.61-3.132-1.61-.32 0-.753-.448-.963-.996-.942-2.455 5.22 1.06 10.548 6.014 7.532 7.007 9.414 7.88 15.195 7.044 2.242-.324 8.226-.589 13.298-.588 7.938 0 9.62.182 12.083 1.304 2.71 1.234 2.796 1.351 1.628 2.212-1.537 1.131-3.732 1.041-10.213-.419zm-50.878-3.484c-1.75-.842-3.753-1.536-4.452-1.543-2.163-.02-5.654-1.245-7.168-2.516-.794-.666-1.885-2.305-2.425-3.643l-.981-2.431 1.607 1.908c.884 1.05 1.618 2.118 1.63 2.376.033.669 4.132 2.293 8.655 3.43 2.132.535 4.71 1.655 5.73 2.49 2.341 1.913 1.473 1.89-2.596-.07zm85.538-4.182c0-.244 1.503-.917 3.34-1.497l5.087-1.608c2.337-.74 2.207-.456-.661 1.442-2.238 1.48-7.766 2.664-7.766 1.663zm-56.684-1.821c-1.269-.67-3.058-2.111-3.974-3.2-1.965-2.335-2.271-1.552-.35.892 2.105 2.675.276 1.935-2.112-.854-2.047-2.392-5.565-8.765-5.565-10.082 0-.89 2.162-1.573 2.43-.767.126.377 1.518 2.4 3.093 4.496 3.109 4.136 8.727 8.56 11.701 9.212 1.027.226 1.704.673 1.505.994-.604.979-4.283.6-6.728-.691zm-30.798.057c-5.13-.843-11.395-5.65-10.97-8.418.223-1.444.265-1.43 1.284.462 1.237 2.297 4.643 4.648 9.086 6.272 1.749.639 3.451 1.41 3.784 1.714.665.608.705.609-3.184-.03zm107.317-1.124c-1.509-.533-2.62-1.093-2.47-1.243.509-.508 5.497.559 6.63 1.419 1.062.805 1.054.852-.145.824-.7-.016-2.507-.466-4.015-1zm20.444-6.07a564.31 564.31 0 01-3.713-6.395c-.953-1.673-2.577-3.479-3.608-4.012-1.032-.534-1.753-1.311-1.603-1.728.15-.417.015-1.258-.3-1.87-.678-1.318.672-1.568 1.889-.35.42.42.763.544.763.276 0-1.849-4.283-6.44-10.32-11.061-1.654-1.266-2.885-2.424-2.736-2.573.149-.15 2.153.781 4.452 2.067 6.564 3.671 14.847 14.09 18.188 22.88 1.146 3.015 1.576 5.455.962 5.455-.147 0-.655.149-1.13.331-.546.21-1.59-.899-2.844-3.02zm-53.634.196c-1.224-1.049-2.547-1.919-2.94-1.933-.392-.014-.886-1.108-1.098-2.43-.587-3.672-3.912-6.47-11.465-9.647-3.946-1.66-4.116-1.65-10.542.616-5.35 1.887-9.126 2.359-10.73 1.342-.533-.338.513-.663 2.862-.888 2.037-.194 5.085-.974 6.773-1.733 1.687-.759 4.555-1.533 6.373-1.72 5.008-.517 11.013 2.774 19.011 10.42 3.407 3.257 6.684 5.922 7.282 5.922 1.485 0 .313 1.076-1.71 1.57-1.198.293-2.14-.082-3.816-1.519zm-42.05-1.164c-3.5-3.859-6.893-9.029-6.537-9.957.218-.569-.29-1.577-1.235-2.453-2.243-2.08-1.385-3.134 1.584-1.947 2.123.849 2.589 1.537 5.406 7.992 1.696 3.884 3.179 7.3 3.295 7.588.463 1.148-1.016.428-2.514-1.223zm-38.745-1.24c-2.531-2.882-4.245-6.636-4.747-10.394l-.379-2.834 1.277 2.225c.703 1.225 1.29 2.748 1.304 3.385.05 2.176 3.194 6.662 5.145 7.342 1.033.36 1.878 1.099 1.878 1.642 0 1.765-2.362 1.044-4.478-1.366zm6.099.323c-3.506-2.034-6.817-8.634-7.612-15.172-.476-3.91.452-3.16 1.194.964.625 3.472 4.627 11.01 6.986 13.157 1.979 1.803 1.68 2.355-.568 1.05zm113.49-2.229c-2.991-.32-5.556-1.384-5.976-2.477-.189-.493-.774-.896-1.301-.896-.527 0-1.402-.858-1.944-1.908-1.12-2.166-1.878-2.545-1.272-.636.222.7.21 1.272-.025 1.272-.762 0-11.196-8.388-10.857-8.728.959-.958 4.913.705 6.897 2.9 2.396 2.653 3.643 2.81 3.182.4-.387-2.024-.023-1.978 3.49.439 1.603 1.103 2.733 1.712 2.512 1.353-.648-1.048-1.06-6.54-.491-6.54 1.178 0 6.443 5.321 7.973 8.06 1.75 3.13 1.753 3.877.014 2.904-1.018-.57-4.092.294-4.105 1.154-.002.193 1.212.963 2.698 1.71 1.487.746 2.417 1.33 2.067 1.295-.35-.034-1.637-.17-2.862-.302zm-75.913-1.511c-.922-.725-1.676-1.584-1.676-1.908 0-1.188 1.717-.54 3.498 1.318 2.17 2.265.85 2.692-1.822.59zm50.029-.712c-1.12-.294-2.24-.864-2.49-1.268-.314-.509-.08-.59.764-.263.67.26 2.447.703 3.95.986 1.502.283 2.862.644 3.02.803.485.484-3.083.309-5.244-.258zm-12.96-6.079a668.457 668.457 0 01-5.673-5.129c-3.513-3.252-4.907-3.626-12.88-3.455-7.697.165-9.304-.364-5.013-1.65 4.65-1.393 11.002-.567 15.984 2.08 3.288 1.747 8.926 6.36 11.325 9.264 3.125 3.785 1.027 3.163-3.743-1.11zm15.631-.187c-1.749-.655-3.649-1.203-4.222-1.217-.573-.015-1.718-.585-2.544-1.267l-1.501-1.24 3.18.84c5.604 1.48 9.857 3.043 9.857 3.622 0 .798-1.131.623-4.77-.738zm14.31-5.06c-.375-.699-.454-1.271-.176-1.271s.863.572 1.3 1.272c.44.704.518 1.272.176 1.272-.34 0-.926-.573-1.3-1.272zm11.069-1.43l-1.212-1.431 1.431 1.211c1.345 1.139 1.72 1.65 1.212 1.65-.12 0-.765-.643-1.431-1.43zm-78.8-7.145c-3.499-1.543-6.92-2.952-7.605-3.132-.684-.179-1.108-.461-.942-.627.425-.425 9.317 2.022 11.329 3.118 2.28 1.242 4.993 3.466 4.213 3.456-.35-.004-3.498-1.271-6.996-2.815zm79.496-2.69c-2.448-2.324-3.565-3.673-2.48-2.998 3.125 1.944 8.914 7.27 7.875 7.245-.518-.013-2.946-1.924-5.395-4.247zm-113.5 2.404c-.815-1.525-.892-6.905-.086-6.052.648.686 1.646 7.282 1.1 7.282-.195 0-.65-.554-1.013-1.23zm72.011-.427c-2.086-.896-8.037-8.255-7.447-9.21.17-.274-.712-1.275-1.958-2.226-2.117-1.615-5.1-2.235-13.322-2.767-1.433-.092 2.104-1.793 4.505-2.165 3.413-.529 8.287 1.855 14.875 7.276 2.623 2.158 6.058 4.529 7.632 5.267l2.862 1.343-2.12.206c-1.164.113-3.018-.108-4.118-.492-1.498-.522-1.819-.515-1.276.028.399.398 2.038.873 3.642 1.054 1.605.18 2.918.56 2.918.844 0 1.385-3.744 1.894-6.193.842zm-1.44-3.671c0-.132-.5-.633-1.112-1.113-1.009-.791-1.031-.769-.24.24.83 1.06 1.353 1.396 1.353.873zM278.717 134c.211-.212.76-.234 1.219-.05.507.203.356.353-.385.384-.67.027-1.046-.123-.834-.334zm2.848-.673c.438-.177 1.153-.177 1.59 0 .438.176.08.32-.795.32-.874 0-1.232-.144-.795-.32zm-53.245-2.394c-.667-1.754-.929-7.212-.316-6.6.475.476 1.603 7.686 1.256 8.033-.157.158-.58-.487-.94-1.433zm78.843.624c2.295-.847 3.477-.71 2.835.327-.201.326-1.422.57-2.713.544l-2.347-.049 2.225-.822zm-38.047-2.009c.9-.899 9.964-2.464 10.603-1.831.387.383-8.238 2.851-9.963 2.851-1.523 0-1.576-.084-.64-1.02zm-35.952-.103c-.99-1.603-3.583-10.746-3.536-12.473l.054-1.985 1.224 2.662c.674 1.464 1.623 4.756 2.11 7.314.853 4.488.893 5.687.148 4.482zm21.85-.338c-4.507-2.176-5.704-3.353-7.04-6.925-1.823-4.873-1.099-5.752 2.045-2.481 2.684 2.793 5.978 4.72 9.293 5.435 2.982.644 1.83 1.84-1.36 1.412-1.442-.193-3.336-.562-4.21-.82-1.434-.422-1.504-.363-.713.602.483.588 1.985 1.247 3.339 1.463 1.47.235 2.461.745 2.461 1.266 0 1.063-1.67 1.084-3.816.048zm75.81-8.385c-2.55-1.918-6.915-5.495-9.7-7.95-2.786-2.455-5.24-4.463-5.452-4.463-.5 0 1.461 3.085 3.134 4.929 1.075 1.184 1.125 1.43.29 1.43-1.136 0-4.095-3.272-5.16-5.706-.387-.884-1.653-3.251-2.813-5.26-1.16-2.01-2.062-4.014-2.005-4.453.225-1.725-.117-2.262-1.909-3.005-1.897-.786-2.95-2.265-2.02-2.84.284-.175 7.116 6.47 15.183 14.766 8.067 8.297 14.882 15.299 15.145 15.561 1.299 1.298-.513.136-4.694-3.01zm-.21 1.737c-.792-1.008-.77-1.03.24-.24 1.059.831 1.396 1.353.872 1.353-.132 0-.632-.5-1.113-1.113zm-75.794-4.347c-2.966-2.325-5.493-6.439-6.513-10.602-.639-2.608-6.31-7.458-8.785-7.513-1.623-.037-1.762-.137-.74-.537 1.892-.739 5.59.328 6.867 1.98 4.144 5.369 7.358 9.053 8.728 10.005 2.66 1.849 7.114 3.376 11.042 3.787l3.728.39-2.705 2.17c-1.958 1.57-3.513 2.244-5.635 2.441-2.625.244-3.25.023-5.987-2.121zm52.066-.641c-3.175-3.176-4.63-5.346-3.584-5.346.58 0 7.041 7.324 7.041 7.983 0 .657-.689.131-3.457-2.637zm-71.8.71c-2.519-2.518-5.512-6.6-5.512-7.515 0-1.828 1.11-1.74 1.893.149.422 1.02 1.343 2.375 2.046 3.011 1.43 1.294 3.308 4.62 2.862 5.066-.16.159-.74-.16-1.29-.71zm56.655-.696c-2.466-1.338-2.186-1.8.318-.526 2.397 1.22 2.822 1.535 2.014 1.5-.32-.014-1.37-.452-2.332-.974zm-54.385-3.753c-1.718-1.597-2.075-2.214-1.289-2.226 1.053-.017 4.319 2.971 4.319 3.951 0 .87-.62.517-3.03-1.725zm41.454-1.693c-.187-.302.535-.55 1.605-.55 1.07 0 1.945.11 1.945.244 0 .54-3.234.819-3.55.306zm49.659-1.02c-1.4-.876-3.26-2.232-4.134-3.012-.875-.78-2.132-1.611-2.794-1.846-.662-.234-1.026-.604-.808-.822.677-.677 8.306 3.508 9.547 5.236.647.9 1.076 1.727.954 1.837-.122.11-1.366-.517-2.765-1.393zm-69.958-.766c-1.524-.622-7.002-6.402-9.223-9.73-.874-1.31-1.803-2.383-2.065-2.385-.263-.002-.477-.282-.477-.62 0-.34.5-.478 1.113-.308.612.17-.032-.277-1.431-.993-3.557-1.82-7.823-1.412-11.334 1.084-2.47 1.755-2.646 2.077-2.487 4.54.185 2.887-.856 3.625-1.5 1.062-.342-1.365-.77-1.596-3.033-1.635-1.448-.024-3.2-.265-3.891-.536-1.253-.49-1.253-.493 0-1.135.691-.355 2.655-.986 4.363-1.403 1.708-.416 4.713-1.592 6.678-2.613 1.964-1.02 5.037-2.192 6.828-2.603 3.074-.707 3.463-.646 6.945 1.09 2.553 1.273 4.292 2.71 5.647 4.664 3.159 4.556 6.146 7.658 7.765 8.064.83.208 1.508.657 1.508.996 0 .796-3.682.042-5.542-1.135-.775-.49-1.553-.892-1.73-.892-.723 0 .625 2.271 2.144 3.61 1.752 1.545 1.706 1.688-.278.878zm4.611-.457c.437-.177 1.153-.177 1.59 0 .437.176.08.32-.795.32-.874 0-1.232-.144-.795-.32zm2.703-2.086c0-.37.286-.673.636-.673.35 0 .636.126.636.28 0 .155-.286.458-.636.674-.35.216-.636.09-.636-.28zm36.569-5.786c-1.75-.987-4.182-2.947-5.406-4.354-1.224-1.407-3.31-3.009-4.637-3.56-2.934-1.221-2.535-2.236.879-2.236 3.889 0 6.163 1.3 12.026 6.88l5.405 5.144-2.544-.039c-1.557-.023-3.776-.735-5.723-1.835zm-105.715-3.78c2.681-3.828 6.777-5.25 17.314-6.013 3.148-.228 6.582-.574 7.632-.77 1.485-.278 1.744-.186 1.17.416-1.114 1.166-7.641 2.517-12.3 2.546-4.982.03-8.74.83-10.05 2.14-.866.866-.596.881 2.564.146 2.85-.662 3.822-.665 5.031-.018l1.5.803-1.907.408c-1.05.224-2.48.54-3.18.702-.7.161-2.956.463-5.016.67l-3.744.377zm17.912.327c-1.142-.864-1.01-.935 1.76-.953 2.392-.017 4.629-.844 11.13-4.116 8.155-4.106 12.225-5.645 11.401-4.312-.232.376-1.49 1.035-2.798 1.466-1.307.43-3.807 1.846-5.556 3.146-3.43 2.549-10.721 5.703-13.183 5.703-.836 0-2.075-.42-2.754-.934zm47.418.298c-.525-.339-.668-.616-.318-.616.35 0 1.065.277 1.59.616.525.34.668.617.318.617-.35 0-1.065-.278-1.59-.617zm13.797-4.858c-.663-.663.177-1.502 1.504-1.502 1.486 0 1.633.983.229 1.522-1.242.477-1.236.477-1.733-.02zm-77.99-1.998c1.996-1.613 7.917-3.654 15.54-5.358 7.333-1.639 7.544-1.651 7.792-.46.238 1.145-3.977 3.445-7.392 4.035-1.943.336-2.062.272-1.272-.687.796-.964.649-1.021-1.671-.648-1.4.225-4.69 1.146-7.314 2.046-7.513 2.579-7.558 2.587-5.682 1.072zm57.515-2.7c-4.197-2.045-9.205-4.058-11.13-4.473-4.668-1.008-11.316-.41-14.061 1.263-2.5 1.524-3.587 1.706-2.522.423 1.617-1.948 4.881-2.843 10.875-2.982 9.906-.23 12.175.468 20.91 6.43 2.133 1.456 3.878 2.765 3.878 2.91 0 .335.818.702-7.95-3.57zm9.276-1.082c-.844-.159-3.849-1.736-6.677-3.505-2.829-1.768-6.287-3.583-7.686-4.033-2.176-.7-2.297-.824-.837-.86.94-.024 2.482.251 3.427.61 2.711 1.031 2.592.174-.137-.985-1.35-.573-3.884-1.2-5.633-1.393-5.36-.593-6.195-1.246-2.226-1.74 2.272-.282 4.835-.117 7.314.47 4.242 1.007 14 5.661 15.765 7.52 1.105 1.165 1.06 1.199-1.59 1.202l-2.728.003 1.908 1.564c1.93 1.582 1.863 1.667-.9 1.147zm-62.062-2.558c.35-.352 2.172-1.137 4.05-1.747 1.906-.619 3.093-1.305 2.69-1.554-.46-.284-.126-.765.921-1.326 1.413-.756 1.726-.75 2.229.045.882 1.395.765 1.677-1.308 3.154-1.972 1.404-9.866 2.717-8.582 1.428zm14.107-3.906c.493-1.885 7.937-6.538 8.907-5.568.421.42-6.35 5.936-7.857 6.4-1.146.352-1.323.212-1.05-.832zm61.68.143c-.95-.95-.302-1.484 1.802-1.484 1.555 0 2.226.288 2.226.954 0 .973-3.168 1.39-4.027.53zm-18.549-5.66c-3.415-1.645-3.288-1.924.408-.897 1.274.353 2.669 1.067 3.1 1.586 1.062 1.28.249 1.12-3.508-.689zm69.322 320.256c-.217-.35-.663-.636-.992-.636-.329 0-.598.286-.598.636 0 .35.446.636.991.636.546 0 .815-.286.599-.636zm22.15-57.557c1.554-1.006 1.657-1.243.756-1.748-.765-.428-.934-1.078-.635-2.438.365-1.665.244-1.854-1.194-1.854-1.829 0-8.615 4.364-8.652 5.564-.034 1.117.824.996 3.75-.529 3.15-1.642 4.365-1.111 2.597 1.137-1.7 2.161-1.63 3.1.148 1.955l3.23-2.087zm-54.647 122.126c-1.074-.451-3.145-1.955-4.602-3.341-2.159-2.054-2.668-2.981-2.747-5.004-.173-4.406.103-7.514.722-8.133.381-.381-.195-1.489-1.564-3.004-3.978-4.402-3.552-10.646 1.032-15.139 2.791-2.736 5.922-3.873 10.665-3.873 5.51 0 8.673 2.425 10.5 8.052.972 2.992.979 3.491.08 5.643-1.189 2.844-1.188 2.836-.192 2.86 1.213.028 4.888 3.606 5.584 5.436.982 2.582.724 5.827-.733 9.213-1.061 2.467-2.137 3.664-5.034 5.598-3.29 2.197-4.115 2.463-7.72 2.487-2.221.014-4.917-.343-5.99-.795zm12.74-3.486c3.374-2.322 4.811-5.222 4.811-9.71 0-3.796-1.067-5.231-5.437-7.316l-2.184-1.041 1.267-2.147c1.523-2.583 1.58-4.072.284-7.466-1.337-3.501-4.55-5.657-8.224-5.518-3.301.125-7.8 1.938-9.487 3.823-1.76 1.967-3.08 7.512-2.197 9.227 1.055 2.05 3.197 4.22 4.168 4.22 1.365 0 1.713 1.845.584 3.093-.567.625-1.277 2.457-1.578 4.07-.695 3.72.588 6.827 3.725 9.023 1.855 1.299 3.001 1.564 6.881 1.59 4.144.027 4.956-.176 7.387-1.848zm-9-2.383c-.775-.15-2.134-1.135-3.02-2.188-3.987-4.738.209-10.146 7.402-9.54.585.05 1.944.831 3.02 1.737 2.78 2.338 2.691 5.12-.257 8.157-2.202 2.267-3.365 2.566-7.145 1.834zm5.512-3.018c2.922-3.11 1.337-6.712-2.952-6.712-4.347 0-6.473 5.33-2.9 7.268 2.527 1.371 4.19 1.213 5.852-.556zm-10.462-12.538c-4.688-2.578-4.522-7.888.325-10.395 4.01-2.074 7.753-.662 8.859 3.341.556 2.015.452 2.632-.74 4.371-.84 1.226-2.308 2.301-3.718 2.724-2.829.847-3.116.845-4.726-.04zm6.017-3.197c.713-.766 1.297-1.91 1.297-2.544 0-1.206-2.115-3.696-3.139-3.696-1.161 0-4.157 1.363-4.63 2.107-.739 1.163-.587 3.91.264 4.762 1.268 1.268 4.771.913 6.208-.63zM79.822 363.369c-.228-.368-.24-.95-.029-1.293.212-.343.54-3.062.73-6.042l.343-5.418h-3.278c-3.1 0-3.256-.078-2.863-1.431 1-3.438 3.165-3.736 22.47-3.092 1.517.05 2.753.694 4.293 2.233 2.638 2.639 2.848 4.99.579 6.478-1.828 1.198-1.67 1.665 1.807 5.334 2.683 2.831 2.58 3.833-.394 3.833-1.431 0-2.654-.636-4.287-2.23l-2.285-2.231.265 2.268.265 2.27-3.095-.198-3.095-.197.186-6.995c.182-6.85-.495-10.348-1.43-7.398-.43 1.353-.966 1.6-3.026 1.393-.956-.096-1.112.698-1.272 6.446l-.181 6.554-2.645.193c-1.454.106-2.83-.108-3.058-.477zm4.25-7.506l.18-6.837 2.026.09c1.211.053 2.162-.267 2.365-.796.275-.716-.792-.884-5.614-.884-4.661 0-6.032.204-6.314.938-.298.777.144.87 2.562.538l2.921-.4-.292 7.094c-.268 6.502-.197 7.094.847 7.094 1.013 0 1.159-.758 1.32-6.837zm11.26-.256c.018-3.901.17-7.231.34-7.4.168-.17 1.026.164 1.906.74 1.931 1.266 2.844 4.145 1.551 4.889-3.318 1.909-3.32 1.97-.21 5.525 3.975 4.542 5.578 4.406 2.115-.18-2.548-3.376-2.608-3.557-1.451-4.432.663-.502 1.42-.922 1.682-.933.98-.041.433-3.679-.708-4.711-.651-.59-2.613-1.241-4.36-1.448l-3.175-.376-.041 7.71c-.038 7.1.052 7.708 1.139 7.708 1.078 0 1.183-.618 1.212-7.092zm2.594-3.682c0-.679-.286-1.41-.636-1.627-.36-.223-.636.311-.636 1.234 0 .895.286 1.628.636 1.628.35 0 .636-.556.636-1.235zm11.766 11.536c-3.28-.662-4.305-3.728-4.405-13.163l-.047-4.452 2.395-.031c1.318-.017 2.606.126 2.862.318.257.192.467 3.21.467 6.709v6.36l1.95.19c1.598.156 2.108-.13 2.822-1.59 1.093-2.233 1.272-4.363.597-7.081-.765-3.082.216-5.195 2.406-5.183 2.989.016 3.626.796 2.927 3.583-.531 2.119-.56 9.313-.054 13.26.152 1.183-.215 1.275-5.242 1.304-2.974.018-5.979-.083-6.678-.224zm5.822-1.705c1.166-.234 2.18-.121 2.422.27.23.37.757.673 1.174.673.544 0 .757-2.152.757-7.631 0-6.698-.13-7.632-1.06-7.632-.918 0-1.028.669-.828 5.045.197 4.315.045 5.282-1.053 6.678-.971 1.234-1.856 1.628-3.624 1.612-4.169-.036-4.726-.98-4.47-7.57.2-5.152.105-5.766-.89-5.765-.965 0-1.112.662-1.112 4.993 0 2.746.308 5.878.685 6.96.689 1.975 3.12 3.414 5.039 2.983.524-.117 1.857-.395 2.96-.616zm8.964 1.777c-.818-.214-1.113-.943-1.113-2.75 0-2.878.9-3.706 2.475-2.28 1.343 1.216 2.614 1.323 2.612.222 0-.438-1.265-1.654-2.81-2.703-2.225-1.513-2.86-2.357-3.062-4.075-.3-2.549 1.317-4.671 4.287-5.628 2.42-.78 6.032-.275 6.485.907.272.707.545.62 1.258-.397.818-1.168 1.583-1.3 7.515-1.3 3.822 0 6.774.274 7.007.65.221.359.21 1.532-.027 2.607-.394 1.796-.608 1.933-2.648 1.695l-2.219-.259.214 6.716.214 6.715h-5.72v-13.198l-2.703-.078c-1.487-.044-2.703.153-2.703.437 0 .284-1.287.323-2.861.087-3.757-.564-3.658.302.318 2.773 2.668 1.659 3.18 2.284 3.18 3.881 0 4.965-4.042 7.456-9.699 5.978zm5.916-1.841c.722-.205 1.59-1.103 1.928-1.995.817-2.147-.53-4.197-3.878-5.906-2.716-1.385-3.13-2.489-1.535-4.084 1.161-1.161 2.404-1.264 4.13-.34.954.51 1.23.45 1.23-.268 0-1.434-3.257-1.832-5.912-.722-1.88.785-2.356 1.326-2.356 2.674 0 1.724 1.576 4.017 2.76 4.017 1.115 0 3.6 2.702 3.6 3.914 0 1.457-2.933 2.27-4.548 1.261-.992-.62-1.176-.541-1.176.497 0 1.804 1.745 2.093 5.757.952zm12.768-2.54a573.934 573.934 0 00-.4-6.04c-.267-3.655.11-4.25 2.868-4.511 1.221-.116 2.077-.497 1.902-.847-.392-.785-9.439-.937-10.97-.184-1.98.973-1.183 1.662 1.504 1.302l2.618-.351-.243 7.091-.243 7.091 1.576-.21c1.466-.197 1.563-.43 1.388-3.342zm-94.916-18.834c-.04-.108-.117-4.27-.17-9.25l-.096-9.054 6.035.15c5.671.142 6.081.243 6.798 1.684.99 1.988 5.225 7.053 5.897 7.053.286 0 .375-2.022.198-4.493l-.321-4.493 2.79.2 2.792.2v17.807l-1.908.222c-1.658.193-2.436-.347-5.947-4.133l-4.039-4.356.45 2.544c.99 5.615.948 5.723-2.23 5.723h-2.861l.222-6.68c.208-6.234.129-6.766-1.183-7.95l-1.406-1.27.23 7.95.229 7.95-2.703.196c-1.487.107-2.736.107-2.777 0zm2.966-1.636c.399-.28.653-3.327.636-7.62-.028-6.717-.107-7.151-1.302-7.15-1.2 0-1.274.434-1.3 7.628-.027 7.42.231 8.359 1.966 7.142zm8.947-.627c-1.16-3.905-1.68-8.341-1.023-8.747.262-.162 2.645 1.99 5.295 4.783s5.118 5.077 5.484 5.077c.426 0 .664-2.845.664-7.95 0-6.642-.157-7.949-.954-7.949-.777 0-.954 1.06-.954 5.724 0 3.148-.232 5.724-.515 5.724-.576 0-9.024-10.011-9.024-10.694 0-.24-.716-.436-1.59-.436-1.584 0-2.164 1.16-.954 1.908.358.221.636 3.292.636 7.033v6.64h1.633c1.257 0 1.556-.256 1.302-1.113zm26.578 1.386c-4.312-2.128-6.035-8.955-3.28-12.992 2.313-3.388 5.174-4.604 9.884-4.201 2.2.188 4.276.512 4.611.719.336.207.61 1.395.61 2.64 0 2.152-.085 2.24-1.749 1.814-.962-.247-2.924-.592-4.36-.767-2.28-.278-2.786-.098-3.976 1.414-1.59 2.022-1.756 4.257-.414 5.598 1.17 1.17 5.175 2.544 5.975 2.05.674-.417.156-3.033-.714-3.61-.319-.211-.153-.81.367-1.332.649-.648 1.842-.867 3.785-.693 2.567.23 2.875.107 3.224-1.28.211-.844 1.671-2.72 3.243-4.17 2.52-2.321 3.218-2.634 5.894-2.633 5.81.002 9.673 3.303 10.176 8.696.231 2.483-.002 3.493-1.226 5.294-2.002 2.95-4.225 3.923-8.907 3.9-3.485-.016-4.087-.223-5.971-2.049-1.152-1.117-2.534-2.92-3.07-4.007-.537-1.088-1.009-1.548-1.049-1.023-.04.524-.125 2.01-.19 3.303-.066 1.292-.276 2.506-.468 2.698-.48.481-6.733 1.634-8.765 1.616-.914-.008-2.548-.451-3.63-.985zm10.321-1.395c.973-.63 1.398-6.414.496-6.76-1.294-.497-2.076.572-2.283 3.12-.193 2.363-.353 2.55-2.334 2.74-2.661.255-6.9-2.37-7.222-4.474-.358-2.334.895-5.644 2.545-6.725 1.557-1.02 4.962-1.192 7.684-.389 1.14.337 1.443.228 1.221-.437-.162-.487-1.642-1.112-3.29-1.388-8.452-1.417-13.66 6.867-8.075 12.846 1.696 1.815 2.133 1.953 6.18 1.944 2.396-.005 4.681-.22 5.078-.477zm19.238-1.446c2.601-2.601 3.084-5.47 1.458-8.658-1.536-3.01-3.595-4.212-7.36-4.294-3.318-.072-5.584 1.351-7.548 4.738-1.637 2.824-1.214 4.813 1.675 7.876 1.997 2.117 2.4 2.27 5.992 2.27 3.442 0 4.056-.205 5.783-1.932zm-10.158-1.112c-1.614-1.443-1.995-2.286-2.044-4.533-.052-2.327.25-3.039 1.922-4.532 1.683-1.504 2.304-1.699 4.116-1.29 4.771 1.076 6.733 3.738 6.016 8.161-.482 2.968-1.815 3.966-5.296 3.966-2.089 0-3.196-.416-4.714-1.772zm7.688-.771c2.227-2.228 1.579-5.84-1.318-7.338-2.911-1.505-4.873-1.195-5.98.946-1.465 2.833-1.219 4.828.779 6.318 2.234 1.667 4.895 1.697 6.519.074zm7.95 5.237c-.357-.262-.65-3.681-.669-7.781-.018-4.023-.16-7.886-.318-8.586-.251-1.119.089-1.296 2.828-1.47 5.197-.33 9.98 2.262 11.84 6.414 1.427 3.19.818 5.656-2.126 8.6-2.682 2.682-9.485 4.344-11.556 2.823zm10.466-3.867c2.896-2.755 3.267-4.75 1.458-7.853-1.333-2.286-6.296-4.965-9.2-4.966h-2.089v15.263h3.63c3.342 0 3.835-.193 6.201-2.444zm-7.034.06c-.036-.961-.176-3.69-.31-6.064-.28-4.916.319-5.61 3.643-4.234 2.503 1.037 3.735 3.79 3.052 6.818-.512 2.27-.852 2.645-3.903 4.299-2.295 1.243-2.406 1.206-2.482-.819zm3.74-1.785c1.715-1.2 1.904-4.409.36-6.114-2.033-2.247-2.763-1.462-2.763 2.97 0 2.274.223 4.134.495 4.134s1.13-.445 1.908-.99zm18.101 1.785c-.709-2.01-1.481-4.496-1.716-5.521-.235-1.026-.98-3.012-1.658-4.413-.677-1.4-1.23-2.89-1.23-3.307 0-1.038 2.19-1.53 4.296-.966 1.496.4 1.762.833 1.923 3.129.102 1.466.407 3.26.676 3.989.41 1.106.75.66 2.069-2.706.882-2.25 2.02-4.114 2.578-4.222.958-.184 1.249.304 3.142 5.273l.727 1.908.831-2.226c.458-1.224.854-2.87.88-3.657.039-1.128.42-1.429 1.798-1.421.962.005 2.17.276 2.686.602.593.375 1.083.356 1.335-.051.22-.355 2.581-.81 5.249-1.012 5.857-.443 7.03.153 5.948 3.02-.618 1.638-1.03 1.883-3.162 1.883-1.99 0-2.411.209-2.24 1.113.148.778.928 1.172 2.59 1.31 1.743.145 2.375.485 2.36 1.272-.033 1.788-1.608 3.3-3.435 3.3-1.304 0-1.672.273-1.504 1.113.158.796.67 1.038 1.795.847 3.95-.667 4.763-.45 4.588 1.22-.325 3.097-.485 3.18-6.154 3.18h-5.406l-.179-7.79c-.204-8.896-.414-8.81-3.505 1.43-1.76 5.831-1.892 6.05-3.793 6.237-1.82.18-2.057-.035-3.112-2.796l-1.142-2.99-.784 1.842c-.432 1.013-.94 2.342-1.13 2.954-.225.725-.99 1.113-2.189 1.113-1.67 0-1.963-.343-3.132-3.657zm5.253-1.873c.7-2.16 1.445-4.095 1.656-4.3.212-.204 1.094 1.566 1.962 3.934.867 2.369 1.954 4.306 2.414 4.306.85 0 1.946-2.556 3.542-8.267a994.237 994.237 0 011.273-4.524c.28-.977.06-1.428-.811-1.656-1.031-.27-1.362.383-2.395 4.718-.66 2.766-1.405 5.158-1.657 5.314-.253.156-1.299-2.04-2.325-4.88l-1.865-5.165-2.08 5.158c-1.143 2.837-2.307 5.016-2.587 4.844-.28-.173-1.025-2.604-1.657-5.401-.91-4.03-1.384-5.086-2.284-5.086-1.356 0-1.44.817-.28 2.725.472.775 1.539 3.921 2.372 6.992 1.837 6.766 2.858 7.044 4.722 1.288zm23.85 3.334c0-.735-.651-.847-3.18-.547l-3.18.377v-6.042l2.292.43c1.748.327 2.227.23 2.014-.407-.153-.46-.899-.872-1.657-.916a41.485 41.485 0 01-2.013-.159c-.35-.044-.636-1.392-.636-2.997v-2.918l2.46.416c1.91.323 2.544.193 2.841-.58.323-.84-.257-.996-3.707-.996h-4.09l.135 7.631.135 7.632h4.292c3.33 0 4.293-.207 4.293-.924zm228.232 2.037c-.046-.087-.13-4.271-.19-9.298l-.106-9.139 4.381.314c4.846.347 6.785 1.392 9.25 4.985 3.435 5.005-.494 11.96-7.28 12.89-3.033.416-5.906.534-6.055.248zm9.004-2.84c3.335-2.313 4.087-3.377 4.087-5.785 0-2.83-2.222-6.273-4.656-7.215-.921-.356-2.962-.79-4.536-.965l-2.862-.317v15.373h3.197c1.985 0 3.794-.413 4.77-1.09zm-5.741-6.18c0-3.696.251-6.72.558-6.72 1.446 0 5.184 2.038 6.077 3.312 2.437 3.48-.035 8.08-5.204 9.685-1.422.441-1.431.4-1.431-6.276zm4.56 3.039c.74-.67 1.164-1.936 1.164-3.482 0-2.045-.296-2.582-1.872-3.397-2.375-1.227-2.688-.703-2.456 4.104.198 4.118.951 4.778 3.164 2.775zM94.135 137.767c-.713-.906-1.296-1.905-1.296-2.222 0-.628-3.85-4.495-10.224-10.267a8710.062 8710.062 0 01-6.047-5.481c-2.912-2.644-5.14-3.974-7.435-4.44-3.118-.632-3.011-2.802.331-6.73 6.913-8.123 7.799-8.488 10.024-4.126.672 1.317 3.26 4.215 5.75 6.44a653.173 653.173 0 018.768 8.005c2.331 2.177 4.588 3.966 5.015 3.974.924.02 4.383-5.257 7.492-11.43 2.256-4.482 3.74-5.512 5.27-3.658.782.95 3.316 8.016 3.316 9.25 0 .779-3.542 5.193-8.48 10.57-.991 1.08-3.515 4.014-5.608 6.521-2.093 2.508-4.205 4.713-4.693 4.9-.494.19-1.463-.39-2.183-1.306zm3.752-3.794c.728-.926 2.824-3.32 4.657-5.32 6.598-7.2 10.01-11.37 9.975-12.193-.02-.46-.554-2.116-1.188-3.68l-1.152-2.842-1.436 2.842c-1.142 2.26-7.774 12.938-8.616 13.872-.372.412-2.109-.863-5.493-4.034-1.867-1.749-6.207-5.612-9.643-8.585-3.436-2.973-6.743-6.359-7.348-7.523l-1.1-2.117-2.187 2.48a259.361 259.361 0 00-3.537 4.097l-1.35 1.617 2.382 1.051c3.94 1.738 22.45 18.34 23.247 20.85.508 1.6 1.23 1.466 2.789-.515zm277.06-14.986c-2.302-2.523-4.186-5.093-4.186-5.711 0-.652 1.004-1.657 2.385-2.388 1.312-.695 4.065-2.783 6.118-4.64l3.733-3.377.541-5.708c.67-7.053.826-17.83.272-18.727-.226-.366-.23-1.235-.01-1.932.787-2.48 3.026-1.449 8.242 3.798 4.6 4.627 4.972 5.19 4.318 6.519-1.045 2.122-1.338 3.497-1.79 8.381l-.405 4.383 6.146-.321c3.38-.177 6.47-.647 6.868-1.044 1.32-1.32 2.934-.751 5.371 1.888a481.987 481.987 0 004.2 4.487c1.099 1.154 1.711 2.415 1.59 3.273-.188 1.314-.532 1.398-5.923 1.443-3.148.027-9.015.407-13.037.846l-7.314.797-4.283 4.216c-2.356 2.318-4.73 5.157-5.277 6.309-.602 1.268-1.463 2.093-2.184 2.093-.666 0-3.033-2.019-5.376-4.585zm6.283-.455c.529-1.023 2.983-3.67 5.453-5.882l4.49-4.023 9.987-1.066c5.492-.587 10.987-.9 12.212-.698l2.225.368-2.966-3.436c-1.632-1.89-3.35-3.38-3.816-3.31-.467.069-1.994.405-3.393.748-1.4.342-4.977.703-7.95.802l-5.406.18.106-5.22c.059-2.87.425-6.703.814-8.518l.707-3.298-3.04-3.049c-1.67-1.677-3.21-3.055-3.419-3.062-.209-.008-.573 4.78-.81 10.639-.237 5.859-.609 11.51-.827 12.56-.267 1.282-1.72 3.056-4.43 5.406-2.219 1.924-4.53 3.999-5.135 4.61-.606.613-1.484 1.114-1.951 1.114-.467 0 .51 1.574 2.17 3.498 1.661 1.923 3.245 3.497 3.519 3.497s.93-.837 1.46-1.86zM129.484 101.79c-.498-.787-1.116-2.432-1.372-3.657-.675-3.228-14.125-20.821-17.886-23.395-2.518-1.723-2.71-3.424-.565-5.019.858-.637 3.417-2.542 5.687-4.233 2.27-1.691 4.597-2.98 5.173-2.862.632.129 1.78 2.097 2.904 4.982 2.173 5.576 10.377 16.63 16.646 22.428l3.964 3.666-2.279 2.058c-3.257 2.94-9.666 7.459-10.585 7.461-.43.001-1.188-.642-1.687-1.429zm6.751-4.714c2.366-1.632 4.302-3.157 4.302-3.39 0-.234-.739-.82-1.642-1.304-1.586-.849-6.999-7.311-13.295-15.872-2.875-3.91-4.74-7.406-5.09-9.54a1.068 1.068 0 00-1.11-.88c-1.147.09-8.118 5.26-8.118 6.022 0 .296.554.834 1.232 1.197.677.362 4.188 4.45 7.8 9.085 8.796 11.283 9.168 11.837 10.006 14.95.4 1.484.926 2.697 1.17 2.697.244 0 2.38-1.334 4.745-2.965zM326.72 84.013c-3.997-1.863-5.565-2.92-5.565-3.748 0-.634 1.457-3.098 3.239-5.475 2.625-3.503 11.388-19.857 11.388-21.253 0-.535-4.096-2.248-9.54-3.991-6.023-1.929-6.362-2.969-2.169-6.66 1.642-1.444 3.447-2.627 4.011-2.627 1.92 0 37.261 18.28 37.486 19.388.286 1.407-1.117 2.858-4.58 4.74l-2.853 1.55-2.585-1.868c-5.926-4.282-6.648-4.73-7.621-4.725-.56.003-1.325.646-1.7 1.43-.373.785-2.848 5.72-5.497 10.966-2.65 5.247-5 10.585-5.22 11.863-.351 2.03-1.405 3.173-2.804 3.043-.234-.021-2.93-1.207-5.99-2.633zm6.519-1.5c0-1.262 12.416-26.99 13.025-26.99.644 0 6.734 3.641 9.06 5.416 2.902 2.217 2.912 2.22 4.819 1.106 1.05-.614 1.938-1.403 1.971-1.752.034-.35-7.548-4.478-16.848-9.174l-16.91-8.537-2.42 1.845-2.419 1.846 4.066 1.199c5.12 1.51 11.38 4.287 11.38 5.048 0 1.497-9.828 20.369-12.08 23.199-1.402 1.76-2.548 3.515-2.548 3.9 0 .596 6.995 4.304 8.427 4.468.262.03.476-.678.476-1.574zm-173.899.198c-.165-.787-.612-3.005-.992-4.929-.628-3.18-4.561-13.775-7.79-20.987-.705-1.574-2.103-3.802-3.107-4.951-1.987-2.274-2.261-3.452-1.03-4.426 1.558-1.234 14.101-6.364 17.012-6.958 11.738-2.395 18.329 2.358 16.256 11.724-.433 1.952-.358 2.067 1.342 2.07 2.237.002 5.517 1.95 6.94 4.121 2.258 3.448-.416 12.322-4.337 14.387-.792.417-1.583.946-1.758 1.176-1.295 1.699-19.187 10.204-21.466 10.204-.423 0-.904-.644-1.07-1.431zm8.579-4.028c7.24-3.184 14.305-7.603 16.269-10.179 2.138-2.803 2.695-7.091 1.214-9.352-1.096-1.673-5.193-2.993-9.287-2.993h-1.883l1.868-3.502c1.922-3.602 1.93-6 .028-8.293-2.026-2.442-8.889-2.687-15.201-.544-5.25 1.782-12.122 4.82-12.122 5.357 0 .292.396.927.88 1.411 2.422 2.422 11.84 25.832 11.84 29.43 0 1.341.583 1.22 6.394-1.335zm-.063-5.109c-.347-.915-1.479-3.705-2.514-6.2-1.035-2.496-1.977-5.185-2.095-5.977-.117-.792-.553-1.78-.968-2.194-.415-.415-.754-1.009-.754-1.32 0-.31-.859-2.42-1.908-4.687-1.05-2.267-1.908-4.33-1.908-4.585 0-.713 3.985-1.992 6.204-1.992 2.897 0 4.838.916 5.815 2.742 1.284 2.399.37 4.812-2.991 7.898l-2.959 2.716 4.597.08c4.914.084 4.893.081 6.823.862 5.394 2.18 3.366 9.498-3.631 13.105-2.982 1.537-2.955 1.54-3.71-.448zm6.835-4.84c.548-.605 1.076-1.823 1.173-2.706.257-2.335-1.807-3.51-6.168-3.51h-3.63l1.45 3.657c.799 2.012 1.635 4.176 1.859 4.81.393 1.111.475 1.111 2.363 0 1.076-.634 2.404-1.647 2.953-2.252zm-8.49-14.135c1.804-1.671 2.153-3.44.92-4.673-.91-.91-6.232-1.033-6.232-.144 0 .942 2.739 6.377 3.214 6.377.229 0 1.173-.702 2.099-1.56zM293.49 70.084c-3.49-.829-7.716-3.865-11.13-7.996-6.412-7.761-7.4-8.725-7.987-7.78-.305.493-.565 3.1-.577 5.794-.012 2.8-.333 5.209-.75 5.625-.925.925-12.17-.888-13.45-2.17-.721-.72-.7-1.24.134-3.234.892-2.137 2.698-9.977 5.108-22.178.471-2.387.762-5.72.645-7.407-.234-3.388.64-5.147 2.58-5.192.693-.016 3.12.296 5.394.694 2.273.397 4.992.865 6.041 1.039 8.352 1.386 14.928 5.503 17.866 11.186.99 1.915.986 2.246-.07 5.258-1.459 4.162-2.379 5.164-5.949 6.476-1.619.595-3.152 1.258-3.407 1.473-.255.215 2.552 3.91 6.239 8.212 7.438 8.68 8.13 10.494 4.083 10.694-1.225.06-3.37-.162-4.77-.494zm4.123-2.319c-.006-.262-1.222-1.775-2.703-3.36-5.488-5.88-10.631-12.667-10.64-14.04 0-.214 2.023-1.028 4.498-1.81 4.283-1.35 4.56-1.557 5.724-4.274.673-1.57 1.224-3.267 1.224-3.77 0-2.93-10.479-10.427-14.574-10.427-.909 0-2.533-.253-3.609-.561-1.076-.31-3.722-.767-5.879-1.017l-3.921-.455-.006 4.037c-.005 3.575-4.18 25.855-5.367 28.643-.477 1.12 1.055 1.728 6.84 2.717l2.42.414-.372-2.103c-.332-1.88 1.102-12.974 1.763-13.634.145-.145 1.94 1.675 3.99 4.044 2.048 2.37 4.415 5.023 5.26 5.898.844.874 2.263 2.54 3.153 3.702 1.934 2.525 6.243 5.6 8.419 6.007 2.628.492 3.791.489 3.78-.01zM272.82 47.188c.005-2.177 3.216-15.196 3.748-15.196.222 0 1.967.571 3.878 1.27 4.805 1.756 7.068 4.14 7.114 7.496.059 4.236-2.066 5.623-9.57 6.249-2.844.237-5.17.318-5.17.18zm9.055-3.144c4.773-1.326 4.699-5.126-.148-7.598-1.373-.701-2.772-1.274-3.109-1.274-.71 0-1.713 2.965-2.312 6.836-.409 2.644-.379 2.703 1.387 2.7.992-.002 2.874-.3 4.182-.664zm-74.217 22.332c-.258-.418-.254-1.815.009-3.104 1.156-5.652-.597-22.09-3.132-29.38-1.83-5.26-1.437-6.201 2.779-6.664 6.701-.735 24.36-2.232 26.335-2.232 3.288 0 3.354 1.47.28 6.19-2.397 3.678-2.847 4.065-4.379 3.758-4.141-.828-8.3-1.168-9.77-.8-1.511.38-1.574.573-1.224 3.735.203 1.834.55 3.537.77 3.786.221.248 3.547.035 7.391-.472 3.845-.508 7.041-.925 7.104-.928.062-.003.562.444 1.111.993 1.19 1.188.722 2.334-2.652 6.51-1.91 2.361-2.456 2.684-3.983 2.348-1.91-.42-8.218-.58-8.562-.22-.116.122.076 1.867.425 3.878l.636 3.657 2.64-.015c2.784-.016 4.053-.276 12.088-2.476 3.837-1.05 5.202-1.197 5.883-.633 1.265 1.05 1.127 1.817-1.058 5.85-2.202 4.066-.947 3.62-14.592 5.185-14.949 1.714-17.586 1.865-18.1 1.034zm10.786-2.615c3.148-.354 8.582-.993 12.075-1.42l6.352-.776 1.332-2.546 1.332-2.547-6.73 1.675c-3.701.92-8.326 1.866-10.277 2.1l-3.548.428-1.098-6.145c-.603-3.38-.915-6.328-.692-6.551.224-.223 3.084-.417 6.357-.43 5.648-.024 6.017-.11 7.26-1.691 1.603-2.038 1.688-3.25.197-2.817-1.021.296-2.597.486-11.052 1.332l-2.943.294-.369-2.363c-.203-1.3-.553-4.125-.778-6.28l-.41-3.917 4.04-.424c2.259-.237 5.301-.129 6.901.245 1.575.368 3.039.676 3.255.684.418.017 3.741-4.792 3.741-5.414 0-.203-.22-.233-.49-.066-.27.166-6.208.784-13.196 1.372-6.989.588-12.976 1.324-13.305 1.636-.37.35-.176 1.45.506 2.882 1.647 3.452 3.112 14.132 3.197 23.293.087 9.344-.879 8.483 8.343 7.446zm269.56 199.878c.164-.266-.105-1.036-.599-1.711-.854-1.169-.897-1.146-.897.484 0 1.611.835 2.297 1.496 1.227zm.305-12.823c.286-1.952-1.208-5.549-1.827-4.4-.356.662-.38 4.917-.033 6.154.223.797 1.689-.584 1.86-1.754zm.104-13.343c0-1.48-2.346-6.266-2.79-5.697-.099.127-.05 2.32.108 4.873.28 4.5.325 4.61 1.486 3.558.66-.596 1.198-1.827 1.196-2.734zm-1.29-10.236c.986 0 .792-2.218-.415-4.749-1.946-4.082-2.5-2.743-1.682 4.069.328 2.738.52 3.167.928 2.067.282-.763.808-1.387 1.17-1.387zm-1.251-15.533c0-1.804-.921-3.545-1.876-3.548-.193 0-.251 1.586-.13 3.526.183 2.943.367 3.404 1.112 2.785.492-.408.894-1.651.894-2.763zm-2.024-12.382c.184-1.87-.703-3.884-1.71-3.885-.22 0-.3 1.445-.177 3.212.25 3.605 1.553 4.07 1.887.673zm-2.549-13.26c-.131-1.586-.541-2.445-1.23-2.575-.905-.171-.948.124-.346 2.38.864 3.234 1.838 3.355 1.576.195zm-3.073-11.172c-.017-1.627-2.232-4.765-2.896-4.101-.635.635 1.616 6.294 2.328 5.854.32-.198.576-.987.568-1.753zm-4.756-11.887c.597-1.881-.23-3.816-1.632-3.816-1.422 0-1.483.355-.531 3.085.801 2.299 1.582 2.563 2.163.73zm-4.485-12.544c.266-.693-.001-1.406-.727-1.94-.976-.718-1.18-.69-1.36.18-.496 2.382 1.275 3.876 2.087 1.76zm-6.119-12.811c-1.764-2.176-2.12-2.126-1.083.152.42.92 1.167 1.672 1.662 1.672.642 0 .476-.524-.579-1.824zm-6.179-11.716c-1.1-1.1-1.519-.058-.626 1.56.734 1.334.844 1.365 1.065.306.135-.65-.062-1.49-.439-1.866z"/></svg>