<svg xmlns="http://www.w3.org/2000/svg" xmlns:xlink="http://www.w3.org/1999/xlink" id="Capa_1" x="0" y="0" version="1.1" viewBox="0 0 496.096 496.096" xml:space="preserve" style="enable-background:new 0 0 496.096 496.096"><linearGradient id="SVGID_1_" x1="-48.987" x2="16.742" y1="565.414" y2="631.141" gradientTransform="matrix(8 0 0 -8 398.313 5012.9849)" gradientUnits="userSpaceOnUse"><stop offset="0" style="stop-color:#003f8a"/><stop offset=".518" style="stop-color:#00d7df"/><stop offset="1" style="stop-color:#006df0"/></linearGradient><path style="fill:url(#SVGID_1_)" d="M493.754,2.342c-3.124-3.123-8.188-3.123-11.312,0L248.098,236.686L13.754,2.342	C10.576-0.727,5.512-0.639,2.442,2.539c-2.994,3.1-2.994,8.015,0,11.115l234.344,234.344L2.442,482.342	c-3.178,3.07-3.266,8.134-0.196,11.312s8.134,3.266,11.312,0.196c0.067-0.064,0.132-0.13,0.196-0.196L248.098,259.31	l234.344,234.344c3.178,3.07,8.242,2.982,11.312-0.196c2.995-3.1,2.995-8.016,0-11.116L259.41,247.998L493.754,13.654	C496.877,10.53,496.877,5.466,493.754,2.342z"/></svg>