<svg xmlns="http://www.w3.org/2000/svg" xmlns:xlink="http://www.w3.org/1999/xlink" id="Capa_1" x="0" y="0" version="1.1" viewBox="0 0 496 496" xml:space="preserve" style="enable-background:new 0 0 496 496"><linearGradient id="SVGID_1_" x1="-54.535" x2="11.636" y1="559.964" y2="626.136" gradientTransform="matrix(8 0 0 -8 399 5013)" gradientUnits="userSpaceOnUse"><stop offset="0" style="stop-color:#003f8a"/><stop offset=".518" style="stop-color:#00d7df"/><stop offset="1" style="stop-color:#006df0"/></linearGradient><path style="fill:url(#SVGID_1_)" d="M491.056,0.616C490.088,0.21,489.049,0.001,488,0H8C4.766,0.004,1.852,1.955,0.616,4.944	C0.214,5.913,0.005,6.951,0,8v480c0.005,1.049,0.214,2.087,0.616,3.056c0.812,1.959,2.369,3.516,4.328,4.328	C5.913,495.786,6.951,495.995,8,496h480c1.049-0.005,2.087-0.214,3.056-0.616c1.959-0.812,3.516-2.369,4.328-4.328	c0.402-0.969,0.611-2.007,0.616-3.056V8c-0.005-1.049-0.214-2.087-0.616-3.056C494.572,2.985,493.015,1.428,491.056,0.616z M236.688,248L16,468.688V27.312L236.688,248z M27.312,16h441.376L248,236.688L27.312,16z M248,259.312L468.688,480H27.312	L248,259.312z M259.312,248L480,27.312v441.376L259.312,248z"/></svg>