<svg xmlns="http://www.w3.org/2000/svg" xmlns:xlink="http://www.w3.org/1999/xlink" id="Capa_1" x="0" y="0" version="1.1" viewBox="0 0 488.006 488.006" xml:space="preserve" style="enable-background:new 0 0 488.006 488.006"><linearGradient id="SVGID_1_" x1="-46.384" x2="27.597" y1="552.659" y2="626.635" gradientTransform="matrix(8 0 0 -8 426.978 5013.0566)" gradientUnits="userSpaceOnUse"><stop offset="0" style="stop-color:#003f8a"/><stop offset=".518" style="stop-color:#00d7df"/><stop offset="1" style="stop-color:#006df0"/></linearGradient><path style="fill:url(#SVGID_1_)" d="M460.003,319.398c-4.418,0-8,3.582-8,8v144.608h-416V327.398c0-4.418-3.582-8-8-8	s-8,3.582-8,8v152.608c0,4.418,3.582,8,8,8h432c4.418,0,8-3.582,8-8V327.398C468.003,322.98,464.421,319.398,460.003,319.398z"/><linearGradient id="SVGID_2_" x1="-58.864" x2="15.112" y1="565.141" y2="639.115" gradientTransform="matrix(8 0 0 -8 426.978 5013.0566)" gradientUnits="userSpaceOnUse"><stop offset="0" style="stop-color:#003f8a"/><stop offset=".518" style="stop-color:#00d7df"/><stop offset="1" style="stop-color:#006df0"/></linearGradient><path style="fill:url(#SVGID_2_)" d="M244.003,408.006c4.418,0,8-3.582,8-8V27.318l90.344,90.344	c3.178,3.07,8.242,2.982,11.312-0.196c2.995-3.1,2.995-8.016,0-11.116l-104-104c-3.12-3.128-8.186-3.135-11.314-0.014	c-0.005,0.005-0.01,0.01-0.014,0.014l-104,104c-3.178,3.069-3.266,8.134-0.197,11.312c3.069,3.178,8.134,3.266,11.312,0.197	c0.067-0.064,0.132-0.13,0.197-0.197l90.36-90.344v372.688C236.003,404.425,239.585,408.006,244.003,408.006z"/></svg>