<svg xmlns="http://www.w3.org/2000/svg" xmlns:xlink="http://www.w3.org/1999/xlink" id="Capa_1" x="0" y="0" version="1.1" viewBox="0 0 496.939 496.939" xml:space="preserve" style="enable-background:new 0 0 496.939 496.939"><linearGradient id="SVGID_1_" x1="-63.35" x2="3.994" y1="573.186" y2="640.522" gradientTransform="matrix(8 0 0 -8 395.7131 5013)" gradientUnits="userSpaceOnUse"><stop offset="0" style="stop-color:#003f8a"/><stop offset=".518" style="stop-color:#00d7df"/><stop offset="1" style="stop-color:#006df0"/></linearGradient><path style="fill:url(#SVGID_1_)" d="M256.47,128V8c0-4.418-3.582-8-8-8s-8,3.582-8,8v120c0,4.418,3.582,8,8,8	S256.47,132.418,256.47,128z"/><linearGradient id="SVGID_2_" x1="-51.074" x2="16.268" y1="560.901" y2="628.246" gradientTransform="matrix(8 0 0 -8 395.7131 5013)" gradientUnits="userSpaceOnUse"><stop offset="0" style="stop-color:#003f8a"/><stop offset=".518" style="stop-color:#00d7df"/><stop offset="1" style="stop-color:#006df0"/></linearGradient><path style="fill:url(#SVGID_2_)" d="M163.614,65.304c14.867-6.358,30.406-11.011,46.32-13.872c4.35-0.78,7.244-4.938,6.464-9.288	c-0.78-4.35-4.938-7.244-9.288-6.464C80.772,58.522-3.128,179.457,19.715,305.795S163.492,516.033,289.83,493.19	c126.338-22.842,210.238-143.777,187.395-270.115C459.968,127.634,385.271,52.936,289.83,35.68c-4.35-0.782-8.51,2.11-9.292,6.46	c-0.782,4.35,2.11,8.51,6.46,9.292c117.343,21.309,195.194,133.71,173.885,251.053c-21.309,117.343-133.71,195.194-251.053,173.885	C92.486,455.061,14.635,342.66,35.944,225.317C48.911,153.916,96.874,93.801,163.614,65.304L163.614,65.304z"/></svg>