<svg xmlns="http://www.w3.org/2000/svg" xmlns:xlink="http://www.w3.org/1999/xlink" id="Capa_1" x="0" y="0" version="1.1" viewBox="0 0 496 496" xml:space="preserve" style="enable-background:new 0 0 496 496"><linearGradient id="SVGID_1_" x1="-54.069" x2="10.495" y1="560.434" y2="624.992" gradientTransform="matrix(8 0 0 -8 399.0015 5012.998)" gradientUnits="userSpaceOnUse"><stop offset="0" style="stop-color:#003f8a"/><stop offset=".518" style="stop-color:#00d7df"/><stop offset="1" style="stop-color:#006df0"/></linearGradient><path style="fill:url(#SVGID_1_)" d="M121.072,460c1.429,2.475,4.07,4,6.928,4h240c2.858,0,5.499-1.525,6.928-4l120-208	c1.429-2.475,1.429-5.525,0-8l-120-208c-1.429-2.475-4.07-4-6.928-4H128c-2.858,0-5.499,1.525-6.928,4l-120,208	c-1.429,2.475-1.429,5.525,0,8L121.072,460z M132.616,48h230.768l115.384,200L363.384,448H132.616L17.232,248L132.616,48z"/><linearGradient id="SVGID_2_" x1="-56.568" x2="7.994" y1="562.934" y2="627.492" gradientTransform="matrix(8 0 0 -8 399.0015 5012.998)" gradientUnits="userSpaceOnUse"><stop offset="0" style="stop-color:#003f8a"/><stop offset=".518" style="stop-color:#00d7df"/><stop offset="1" style="stop-color:#006df0"/></linearGradient><path style="fill:url(#SVGID_2_)" d="M224,352h48c4.418,0,8-3.582,8-8V72c0-4.418-3.582-8-8-8h-48c-4.418,0-8,3.582-8,8v272	C216,348.418,219.582,352,224,352z M232,80h32v256h-32V80z"/><linearGradient id="SVGID_3_" x1="-44.568" x2="19.994" y1="550.933" y2="615.493" gradientTransform="matrix(8 0 0 -8 399.0015 5012.998)" gradientUnits="userSpaceOnUse"><stop offset="0" style="stop-color:#003f8a"/><stop offset=".518" style="stop-color:#00d7df"/><stop offset="1" style="stop-color:#006df0"/></linearGradient><path style="fill:url(#SVGID_3_)" d="M224,432h48c4.418,0,8-3.582,8-8v-48c0-4.418-3.582-8-8-8h-48c-4.418,0-8,3.582-8,8v48	C216,428.418,219.582,432,224,432z M232,384h32v32h-32V384z"/></svg>