<svg xmlns="http://www.w3.org/2000/svg" xmlns:xlink="http://www.w3.org/1999/xlink" id="Capa_1" x="0" y="0" version="1.1" viewBox="0 0 496.005 496.005" xml:space="preserve" style="enable-background:new 0 0 496.005 496.005"><linearGradient id="SVGID_1_" x1="-50.889" x2="16.858" y1="576.444" y2="644.195" gradientTransform="matrix(8 0 0 -8 398.9766 5119.5469)" gradientUnits="userSpaceOnUse"><stop offset="0" style="stop-color:#003f8a"/><stop offset=".518" style="stop-color:#00d7df"/><stop offset="1" style="stop-color:#006df0"/></linearGradient><path style="fill:url(#SVGID_1_)" d="M216.003,155.839v192c0,4.418,3.582,8,8,8h48c4.418,0,8-3.582,8-8v-192c0-4.418-3.582-8-8-8	h-48C219.585,147.839,216.003,151.42,216.003,155.839z M232.003,163.839h32v176h-32V163.839z"/><linearGradient id="SVGID_2_" x1="-41.389" x2="26.357" y1="566.945" y2="634.696" gradientTransform="matrix(8 0 0 -8 398.9766 5119.5469)" gradientUnits="userSpaceOnUse"><stop offset="0" style="stop-color:#003f8a"/><stop offset=".518" style="stop-color:#00d7df"/><stop offset="1" style="stop-color:#006df0"/></linearGradient><path style="fill:url(#SVGID_2_)" d="M272.003,371.839h-48c-4.418,0-8,3.582-8,8v48c0,4.418,3.582,8,8,8h48c4.418,0,8-3.582,8-8	v-48C280.003,375.42,276.422,371.839,272.003,371.839z M264.003,419.839h-32v-32h32V419.839z"/><linearGradient id="SVGID_3_" x1="-43.632" x2="24.115" y1="569.19" y2="636.938" gradientTransform="matrix(8 0 0 -8 398.9766 5119.5469)" gradientUnits="userSpaceOnUse"><stop offset="0" style="stop-color:#003f8a"/><stop offset=".518" style="stop-color:#00d7df"/><stop offset="1" style="stop-color:#006df0"/></linearGradient><path style="fill:url(#SVGID_3_)" d="M240.923,16.111l-240,456c-2.059,3.909-0.559,8.747,3.35,10.806	c1.15,0.606,2.43,0.922,3.73,0.922h480c4.418,0.001,8.001-3.58,8.002-7.998c0-1.3-0.316-2.58-0.922-3.73l-240-456	c-2.422-3.91-7.555-5.117-11.465-2.695C242.524,14.094,241.601,15.016,240.923,16.111L240.923,16.111z M21.251,467.839	L248.003,37.015l226.752,430.824H21.251z"/></svg>