<svg xmlns="http://www.w3.org/2000/svg" xmlns:xlink="http://www.w3.org/1999/xlink" id="Capa_1" x="0" y="0" version="1.1" viewBox="0 0 496 496" xml:space="preserve" style="enable-background:new 0 0 496 496"><g><linearGradient id="SVGID_1_" x1="-38.104" x2="19.562" y1="576.398" y2="634.065" gradientTransform="matrix(8 0 0 -8 398.9998 5013)" gradientUnits="userSpaceOnUse"><stop offset="0" style="stop-color:#003f8a"/><stop offset=".518" style="stop-color:#00d7df"/><stop offset="1" style="stop-color:#006df0"/></linearGradient><path style="fill:url(#SVGID_1_)" d="M488,200h-37.6c-5.106-21.625-13.678-42.282-25.384-61.168l26.6-26.6 c3.123-3.124,3.123-8.188,0-11.312L395.08,44.352c-3.124-3.123-8.188-3.123-11.312,0l-26.608,26.6 C338.276,59.254,317.622,50.693,296,45.6V8c0-4.418-3.582-8-8-8h-80c-4.418,0-8,3.582-8,8v37.6 c-21.624,5.103-42.278,13.675-61.16,25.384l-26.608-26.632c-3.124-3.123-8.188-3.123-11.312,0L44.352,100.92 c-3.123,3.124-3.123,8.188,0,11.312l26.6,26.6C59.257,157.72,50.696,178.377,45.6,200H8c-4.418,0-8,3.582-8,8v80 c0,4.418,3.582,8,8,8h37.6c5.106,21.625,13.678,42.282,25.384,61.168l-26.632,26.6c-3.123,3.124-3.123,8.188,0,11.312 l56.568,56.568c3.174,3.001,8.138,3.001,11.312,0l26.6-26.6C157.72,436.743,178.377,445.304,200,450.4V488c0,4.418,3.582,8,8,8h80 c4.418,0,8-3.582,8-8v-37.6c21.625-5.106,42.282-13.678,61.168-25.384l26.6,26.6c3.124,3.123,8.188,3.123,11.312,0l56.568-56.568 c3.123-3.124,3.123-8.188,0-11.312l-26.6-26.6C436.74,338.258,445.301,317.612,450.4,296H488c4.418,0,8-3.582,8-8v-80 C496,203.582,492.418,200,488,200L488,200z M480,280h-36c-3.802-0.001-7.08,2.675-7.84,6.4c-4.887,24.078-14.395,46.981-28,67.44 c-2.105,3.172-1.684,7.388,1.008,10.08l25.504,25.496l-45.256,45.256l-25.496-25.504c-2.692-2.692-6.908-3.113-10.08-1.008 c-20.459,13.605-43.362,23.113-67.44,28c-3.725,0.76-6.401,4.038-6.4,7.84v36h-64v-36c0.001-3.802-2.675-7.08-6.4-7.84 c-24.078-4.887-46.981-14.395-67.44-28c-3.172-2.105-7.388-1.684-10.08,1.008l-25.496,25.504L61.32,389.424l25.504-25.496 c2.692-2.692,3.113-6.908,1.008-10.08c-13.605-20.459-23.113-43.362-28-67.44c-0.757-3.726-4.03-6.404-7.832-6.408H16v-64h36 c3.802,0.001,7.08-2.675,7.84-6.4c4.887-24.078,14.395-46.981,28-67.44c2.105-3.172,1.684-7.388-1.008-10.08L61.32,106.576 l45.256-45.256l25.504,25.504c2.692,2.692,6.908,3.113,10.08,1.008c20.457-13.603,43.357-23.111,67.432-28 c3.726-0.757,6.404-4.03,6.408-7.832V16h64v36c-0.001,3.802,2.675,7.08,6.4,7.84c24.075,4.889,46.975,14.397,67.432,28 c3.172,2.105,7.388,1.684,10.08-1.008l25.504-25.504l45.256,45.256l-25.504,25.496c-2.692,2.692-3.113,6.908-1.008,10.08 c13.605,20.459,23.113,43.362,28,67.44c0.76,3.725,4.038,6.401,7.84,6.4h36V280z"/><linearGradient id="SVGID_2_" x1="-38.103" x2="19.563" y1="576.397" y2="634.064" gradientTransform="matrix(8 0 0 -8 398.9998 5013)" gradientUnits="userSpaceOnUse"><stop offset="0" style="stop-color:#003f8a"/><stop offset=".518" style="stop-color:#00d7df"/><stop offset="1" style="stop-color:#006df0"/></linearGradient><path style="fill:url(#SVGID_2_)" d="M248,160c-48.601,0-88,39.399-88,88s39.399,88,88,88s88-39.399,88-88 C335.943,199.423,296.577,160.057,248,160z M248,320c-39.764,0-72-32.236-72-72s32.236-72,72-72s72,32.236,72,72 C319.956,287.746,287.746,319.956,248,320z"/></g></svg>