<svg xmlns="http://www.w3.org/2000/svg" xmlns:xlink="http://www.w3.org/1999/xlink" id="Capa_1" x="0" y="0" version="1.1" viewBox="0 0 496 496" xml:space="preserve" style="enable-background:new 0 0 496 496"><linearGradient id="SVGID_1_" x1="-46.166" x2="28.444" y1="568.336" y2="642.942" gradientTransform="matrix(8 0 0 -8 399 5013)" gradientUnits="userSpaceOnUse"><stop offset="0" style="stop-color:#003f8a"/><stop offset=".518" style="stop-color:#00d7df"/><stop offset="1" style="stop-color:#006df0"/></linearGradient><path style="fill:url(#SVGID_1_)" d="M248,0C111.033,0,0,111.033,0,248s111.033,248,248,248s248-111.033,248-248	C495.841,111.099,384.901,0.159,248,0z M248,480C119.87,480,16,376.13,16,248S119.87,16,248,16s232,103.87,232,232	C479.859,376.072,376.072,479.859,248,480z"/><linearGradient id="SVGID_2_" x1="-49.158" x2="25.445" y1="571.325" y2="645.934" gradientTransform="matrix(8 0 0 -8 399 5013)" gradientUnits="userSpaceOnUse"><stop offset="0" style="stop-color:#003f8a"/><stop offset=".518" style="stop-color:#00d7df"/><stop offset="1" style="stop-color:#006df0"/></linearGradient><path style="fill:url(#SVGID_2_)" d="M252.04,80.072c-57.394-2.231-105.73,42.487-107.962,99.881	C144.026,181.302,144,182.651,144,184c0,4.418,3.582,8,8,8s8-3.582,8-8c-0.002-48.601,39.396-88.001,87.997-88.003	c1.145,0,2.291,0.022,3.435,0.067c45.623,2.437,82.067,38.881,84.504,84.504c1.466,35.814-18.989,68.923-51.672,83.64	c-26.649,11.376-44.027,37.458-44.264,66.432V352c0,4.418,3.582,8,8,8s8-3.582,8-8v-21.36c0.284-22.678,13.97-43.035,34.864-51.856	c52.35-23.634,75.629-85.231,51.994-137.581C326.628,105.252,291.456,81.578,252.04,80.072L252.04,80.072z"/><linearGradient id="SVGID_3_" x1="-36.166" x2="38.444" y1="558.335" y2="632.942" gradientTransform="matrix(8 0 0 -8 399 5013)" gradientUnits="userSpaceOnUse"><stop offset="0" style="stop-color:#003f8a"/><stop offset=".518" style="stop-color:#00d7df"/><stop offset="1" style="stop-color:#006df0"/></linearGradient><path style="fill:url(#SVGID_3_)" d="M248,376c-17.673,0-32,14.327-32,32s14.327,32,32,32s32-14.327,32-32S265.673,376,248,376z M248,424c-8.837,0-16-7.163-16-16s7.163-16,16-16c8.837,0,16,7.163,16,16S256.837,424,248,424z"/></svg>