<svg xmlns="http://www.w3.org/2000/svg" xmlns:xlink="http://www.w3.org/1999/xlink" id="Capa_1" x="0" y="0" version="1.1" viewBox="0 0 496 496" xml:space="preserve" style="enable-background:new 0 0 496 496"><g><linearGradient id="SVGID_1_" x1="-42.987" x2="22.034" y1="571.514" y2="636.532" gradientTransform="matrix(8 0 0 -8 399 5013)" gradientUnits="userSpaceOnUse"><stop offset="0" style="stop-color:#003f8a"/><stop offset=".518" style="stop-color:#00d7df"/><stop offset="1" style="stop-color:#006df0"/></linearGradient><path style="fill:url(#SVGID_1_)" d="M488,0H8C3.582,0,0,3.582,0,8v480c0,4.418,3.582,8,8,8h480c4.418,0,8-3.582,8-8V8 C496,3.582,492.418,0,488,0z M480,480H16V16h464V480z"/><linearGradient id="SVGID_2_" x1="-42.987" x2="22.034" y1="571.514" y2="636.532" gradientTransform="matrix(8 0 0 -8 399 5013)" gradientUnits="userSpaceOnUse"><stop offset="0" style="stop-color:#003f8a"/><stop offset=".518" style="stop-color:#00d7df"/><stop offset="1" style="stop-color:#006df0"/></linearGradient><path style="fill:url(#SVGID_2_)" d="M96,256h144v144c0,4.418,3.582,8,8,8s8-3.582,8-8V256h144c4.418,0,8-3.582,8-8s-3.582-8-8-8 H256V96c0-4.418-3.582-8-8-8s-8,3.582-8,8v144H96c-4.418,0-8,3.582-8,8S91.582,256,96,256z"/></g></svg>