<svg xmlns="http://www.w3.org/2000/svg" xmlns:xlink="http://www.w3.org/1999/xlink" id="Capa_1" x="0" y="0" version="1.1" viewBox="0 0 496 496" xml:space="preserve" style="enable-background:new 0 0 496 496"><g><linearGradient id="SVGID_1_" x1="-49.229" x2="15.902" y1="565.274" y2="630.4" gradientTransform="matrix(8 0 0 -8 399 5013)" gradientUnits="userSpaceOnUse"><stop offset="0" style="stop-color:#003f8a"/><stop offset=".518" style="stop-color:#00d7df"/><stop offset="1" style="stop-color:#006df0"/></linearGradient><path style="fill:url(#SVGID_1_)" d="M248,496c136.967,0,248-111.033,248-248S384.967,0,248,0S0,111.033,0,248 C0.154,384.903,111.097,495.846,248,496z M248,16c128.13,0,232,103.87,232,232S376.13,480,248,480S16,376.13,16,248 C16.145,119.93,119.93,16.145,248,16z"/><linearGradient id="SVGID_2_" x1="-49.229" x2="15.902" y1="565.274" y2="630.4" gradientTransform="matrix(8 0 0 -8 399 5013)" gradientUnits="userSpaceOnUse"><stop offset="0" style="stop-color:#003f8a"/><stop offset=".518" style="stop-color:#00d7df"/><stop offset="1" style="stop-color:#006df0"/></linearGradient><path style="fill:url(#SVGID_2_)" d="M96,256h144v144c0,4.418,3.582,8,8,8s8-3.582,8-8V256h144c4.418,0,8-3.582,8-8s-3.582-8-8-8 H256V96c0-4.418-3.582-8-8-8s-8,3.582-8,8v144H96c-4.418,0-8,3.582-8,8S91.582,256,96,256z"/></g></svg>