<svg xmlns="http://www.w3.org/2000/svg" xmlns:xlink="http://www.w3.org/1999/xlink" id="Capa_1" x="0" y="0" version="1.1" viewBox="0 0 488 488" xml:space="preserve" style="enable-background:new 0 0 488 488"><linearGradient id="SVGID_1_" x1="-43.111" x2="25.846" y1="546.924" y2="615.889" gradientTransform="matrix(8 0 0 -8 427 4941)" gradientUnits="userSpaceOnUse"><stop offset="0" style="stop-color:#003f8a"/><stop offset=".518" style="stop-color:#00d7df"/><stop offset="1" style="stop-color:#006df0"/></linearGradient><path style="fill:url(#SVGID_1_)" d="M460,319.392c-4.418,0-8,3.582-8,8V472H36V327.392c0-4.418-3.582-8-8-8s-8,3.582-8,8V480	c0,4.418,3.582,8,8,8h432c4.418,0,8-3.582,8-8V327.392C468,322.974,464.418,319.392,460,319.392z"/><linearGradient id="SVGID_2_" x1="-55.592" x2="13.366" y1="559.404" y2="628.369" gradientTransform="matrix(8 0 0 -8 427 4941)" gradientUnits="userSpaceOnUse"><stop offset="0" style="stop-color:#003f8a"/><stop offset=".518" style="stop-color:#00d7df"/><stop offset="1" style="stop-color:#006df0"/></linearGradient><path style="fill:url(#SVGID_2_)" d="M244,0c-4.418,0-8,3.582-8,8v372.688l-90.344-90.344c-3.178-3.069-8.243-2.982-11.312,0.196	c-2.994,3.1-2.994,8.015,0,11.116l104,104c3.12,3.128,8.186,3.135,11.314,0.014c0.005-0.005,0.01-0.01,0.014-0.014l104-104	c3.07-3.178,2.982-8.242-0.196-11.312c-3.1-2.995-8.016-2.995-11.116,0L252,380.688V8C252,3.582,248.418,0,244,0z"/></svg>