<svg xmlns="http://www.w3.org/2000/svg" xmlns:xlink="http://www.w3.org/1999/xlink" id="Capa_1" x="0" y="0" version="1.1" viewBox="0 0 496 496" xml:space="preserve" style="enable-background:new 0 0 496 496"><linearGradient id="SVGID_1_" x1="-50.295" x2="12.633" y1="564.207" y2="627.131" gradientTransform="matrix(8 0 0 -8 399 5013)" gradientUnits="userSpaceOnUse"><stop offset="0" style="stop-color:#003f8a"/><stop offset=".518" style="stop-color:#00d7df"/><stop offset="1" style="stop-color:#006df0"/></linearGradient><path style="fill:url(#SVGID_1_)" d="M248,0C111.033,0,0,111.033,0,248s111.033,248,248,248s248-111.033,248-248	C495.841,111.099,384.901,0.159,248,0z M248,16c58.756-0.028,115.317,22.321,158.184,62.504l-327.68,327.68	C-8.951,312.669-4.039,165.963,89.476,78.508C132.466,38.303,189.14,15.956,248,16L248,16z M248,480	c-58.756,0.028-115.317-22.321-158.184-62.504l327.68-327.68c87.455,93.515,82.543,240.221-10.972,327.676	C363.534,457.697,306.86,480.044,248,480L248,480z"/></svg>