<svg xmlns="http://www.w3.org/2000/svg" xmlns:xlink="http://www.w3.org/1999/xlink" id="Capa_1" x="0" y="0" version="1.1" viewBox="0 0 496 496" xml:space="preserve" style="enable-background:new 0 0 496 496"><g><linearGradient id="SVGID_1_" x1="-47.473" x2="22.484" y1="567.026" y2="636.984" gradientTransform="matrix(8 0 0 -8 399 5013)" gradientUnits="userSpaceOnUse"><stop offset="0" style="stop-color:#003f8a"/><stop offset=".518" style="stop-color:#00d7df"/><stop offset="1" style="stop-color:#006df0"/></linearGradient><path style="fill:url(#SVGID_1_)" d="M8,496h480c4.418,0,8-3.582,8-8V8c0-4.418-3.582-8-8-8H8C3.582,0,0,3.582,0,8v480 C0,492.418,3.582,496,8,496z M16,16h464v464H16V16z"/><linearGradient id="SVGID_2_" x1="-47.473" x2="22.484" y1="567.026" y2="636.984" gradientTransform="matrix(8 0 0 -8 399 5013)" gradientUnits="userSpaceOnUse"><stop offset="0" style="stop-color:#003f8a"/><stop offset=".518" style="stop-color:#00d7df"/><stop offset="1" style="stop-color:#006df0"/></linearGradient><path style="fill:url(#SVGID_2_)" d="M400,240H96c-4.418,0-8,3.582-8,8s3.582,8,8,8h304c4.418,0,8-3.582,8-8S404.418,240,400,240z"/></g></svg>