<svg xmlns="http://www.w3.org/2000/svg" xmlns:xlink="http://www.w3.org/1999/xlink" id="Capa_1" x="0" y="0" version="1.1" viewBox="0 0 496 496" xml:space="preserve" style="enable-background:new 0 0 496 496"><linearGradient id="SVGID_1_" x1="-49.582" x2="18.235" y1="564.917" y2="632.736" gradientTransform="matrix(8 0 0 -8 399 5013)" gradientUnits="userSpaceOnUse"><stop offset="0" style="stop-color:#003f8a"/><stop offset=".518" style="stop-color:#00d7df"/><stop offset="1" style="stop-color:#006df0"/></linearGradient><path style="fill:url(#SVGID_1_)" d="M8,496h480c4.418,0,8-3.582,8-8V8c0-4.418-3.582-8-8-8H8C3.582,0,0,3.582,0,8v480	C0,492.418,3.582,496,8,496z M16,16h464v464H16V16z"/><linearGradient id="SVGID_2_" x1="-52.28" x2="15.541" y1="567.708" y2="635.526" gradientTransform="matrix(8 0 0 -8 399 5013)" gradientUnits="userSpaceOnUse"><stop offset="0" style="stop-color:#003f8a"/><stop offset=".518" style="stop-color:#00d7df"/><stop offset="1" style="stop-color:#006df0"/></linearGradient><path style="fill:url(#SVGID_2_)" d="M370.344,158.344L208,320.688l-82.344-82.344c-3.178-3.069-8.243-2.982-11.312,0.196	c-2.994,3.1-2.994,8.015,0,11.116l88,88c3.124,3.123,8.188,3.123,11.312,0l168-168c3.069-3.178,2.982-8.243-0.196-11.312	C378.359,155.35,373.444,155.35,370.344,158.344L370.344,158.344z"/></svg>