<svg xmlns="http://www.w3.org/2000/svg" xmlns:xlink="http://www.w3.org/1999/xlink" id="Capa_1" x="0" y="0" version="1.1" viewBox="0 0 496 496" xml:space="preserve" style="enable-background:new 0 0 496 496"><linearGradient id="SVGID_1_" x1="-48.585" x2="22.425" y1="565.915" y2="636.924" gradientTransform="matrix(8 0 0 -8 399 5013)" gradientUnits="userSpaceOnUse"><stop offset="0" style="stop-color:#003f8a"/><stop offset=".518" style="stop-color:#00d7df"/><stop offset="1" style="stop-color:#006df0"/></linearGradient><path style="fill:url(#SVGID_1_)" d="M248,0C111.033,0,0,111.033,0,248s111.033,248,248,248s248-111.033,248-248	C495.841,111.099,384.901,0.159,248,0z M248,480C119.87,480,16,376.13,16,248S119.87,16,248,16s232,103.87,232,232	C479.859,376.072,376.072,479.859,248,480z"/><linearGradient id="SVGID_2_" x1="-51.329" x2="19.681" y1="568.659" y2="639.669" gradientTransform="matrix(8 0 0 -8 399 5013)" gradientUnits="userSpaceOnUse"><stop offset="0" style="stop-color:#003f8a"/><stop offset=".518" style="stop-color:#00d7df"/><stop offset="1" style="stop-color:#006df0"/></linearGradient><path style="fill:url(#SVGID_2_)" d="M370.344,158.344L208,320.688l-82.344-82.344c-3.178-3.069-8.243-2.982-11.312,0.196	c-2.994,3.1-2.994,8.015,0,11.116l88,88c3.124,3.123,8.188,3.123,11.312,0l168-168c3.069-3.178,2.982-8.243-0.196-11.312	C378.359,155.35,373.444,155.35,370.344,158.344L370.344,158.344z"/></svg>