<svg xmlns="http://www.w3.org/2000/svg" xmlns:xlink="http://www.w3.org/1999/xlink" id="Capa_1" x="0" y="0" version="1.1" viewBox="0 0 479.764 479.764" xml:space="preserve" style="enable-background:new 0 0 479.764 479.764"><linearGradient id="SVGID_1_" x1="-48.561" x2="14.757" y1="546.772" y2="610.086" gradientTransform="matrix(8 0 0 -8 399.8261 4866.3359)" gradientUnits="userSpaceOnUse"><stop offset="0" style="stop-color:#003f8a"/><stop offset=".518" style="stop-color:#00d7df"/><stop offset="1" style="stop-color:#006df0"/></linearGradient><path style="fill:url(#SVGID_1_)" d="M239.882,463.704c-119.239-0.132-215.868-96.761-216-216c0-4.418-3.582-8-8-8s-8,3.582-8,8	c-0.033,128.13,103.81,232.027,231.94,232.06c128.13,0.033,232.027-103.81,232.06-231.94	c0.031-121.879-94.25-223.002-215.832-231.496V0l-88.464,23.704l88.464,23.704V32.376	c118.923,9.391,207.716,113.411,198.325,232.334C445.528,376.739,352.259,463.269,239.882,463.704z"/></svg>