<svg xmlns="http://www.w3.org/2000/svg" xmlns:xlink="http://www.w3.org/1999/xlink" id="Capa_1" x="0" y="0" version="1.1" viewBox="0 0 500.552 500.552" xml:space="preserve" style="enable-background:new 0 0 500.552 500.552"><linearGradient id="SVGID_1_" x1="-40.636" x2="28.95" y1="562.443" y2="632.027" gradientTransform="matrix(8 0 0 -8 383.2079 5033.854)" gradientUnits="userSpaceOnUse"><stop offset="0" style="stop-color:#003f8a"/><stop offset=".518" style="stop-color:#00d7df"/><stop offset="1" style="stop-color:#006df0"/></linearGradient><path style="fill:url(#SVGID_1_)" d="M466.512,334.253c-46.326,119.462-180.724,178.75-300.186,132.424	C100.939,441.321,50.532,387.749,29.2,320.941c-1.343-4.211-5.845-6.535-10.056-5.192c-4.211,1.343-6.535,5.845-5.192,10.056	c41.682,130.47,181.239,202.447,311.709,160.765c71.752-22.923,129.197-77.213,156.131-147.557l15.2,4.712l3.56-89.72	l-47.984,75.912L466.512,334.253z"/><linearGradient id="SVGID_2_" x1="-52.05" x2="17.531" y1="573.852" y2="643.441" gradientTransform="matrix(8 0 0 -8 383.2079 5033.854)" gradientUnits="userSpaceOnUse"><stop offset="0" style="stop-color:#003f8a"/><stop offset=".518" style="stop-color:#00d7df"/><stop offset="1" style="stop-color:#006df0"/></linearGradient><path style="fill:url(#SVGID_2_)" d="M34,166.381C80.303,46.91,214.689-12.405,334.161,33.898	c65.98,25.572,116.682,79.857,137.695,147.427c1.049,3.336,4.143,5.604,7.64,5.6c0.813,0,1.622-0.121,2.4-0.36	c4.219-1.312,6.576-5.795,5.265-10.014c0-0.001,0-0.001-0.001-0.002C446.474,45.765,307.469-27.274,176.685,13.413	C104.098,35.994,45.877,90.619,18.72,161.621l-15.16-4.712L0,246.629l47.944-75.912L34,166.381z"/><linearGradient id="SVGID_3_" x1="-48.377" x2="21.207" y1="570.184" y2="639.768" gradientTransform="matrix(8 0 0 -8 383.2079 5033.854)" gradientUnits="userSpaceOnUse"><stop offset="0" style="stop-color:#003f8a"/><stop offset=".518" style="stop-color:#00d7df"/><stop offset="1" style="stop-color:#006df0"/></linearGradient><path style="fill:url(#SVGID_3_)" d="M258.256,82.317c0-4.418-3.582-8-8-8s-8,3.582-8,8v272c0,4.418,3.582,8,8,8s8-3.582,8-8	V82.317z"/><linearGradient id="SVGID_4_" x1="-36.878" x2="32.71" y1="558.683" y2="628.269" gradientTransform="matrix(8 0 0 -8 383.2079 5033.854)" gradientUnits="userSpaceOnUse"><stop offset="0" style="stop-color:#003f8a"/><stop offset=".518" style="stop-color:#00d7df"/><stop offset="1" style="stop-color:#006df0"/></linearGradient><path style="fill:url(#SVGID_4_)" d="M250.256,378.317c-4.418,0-8,3.582-8,8v32c0,4.418,3.582,8,8,8s8-3.582,8-8v-32	C258.256,381.899,254.674,378.317,250.256,378.317z"/></svg>