<svg xmlns="http://www.w3.org/2000/svg" xmlns:xlink="http://www.w3.org/1999/xlink" id="Capa_1" x="0" y="0" version="1.1" viewBox="0 0 498.792 498.792" xml:space="preserve" style="enable-background:new 0 0 498.792 498.792"><linearGradient id="SVGID_1_" x1="-47.1" x2="19.03" y1="565.99" y2="632.123" gradientTransform="matrix(8 0 0 -8 389.4118 5013)" gradientUnits="userSpaceOnUse"><stop offset="0" style="stop-color:#003f8a"/><stop offset=".518" style="stop-color:#00d7df"/><stop offset="1" style="stop-color:#006df0"/></linearGradient><path style="fill:url(#SVGID_1_)" d="M249.37,0C112.403,0.021,1.387,111.071,1.408,248.038	C1.429,385.005,112.479,496.021,249.446,496c25.774-0.004,51.389-4.026,75.924-11.92l5.8,14.712l72.152-53.44l-89.224,10.192	l5.368,13.6C197.352,507.828,66.999,440.195,28.315,318.081S57.264,65.615,179.378,26.931s252.466,28.949,291.151,151.063	c22.615,71.387,9.372,149.3-35.559,209.207c-2.654,3.532-1.942,8.547,1.59,11.201c3.532,2.654,8.547,1.942,11.201-1.59	c0.003-0.004,0.006-0.007,0.008-0.011c82.18-109.573,59.973-265.02-49.6-347.2C355.242,17.404,303.03,0,249.37,0z"/></svg>